<svg width="25" height="25" viewBox="0 0 25 25" fill="none" xmlns="http://www.w3.org/2000/svg">
<g clip-path="url(#clip0_68_77)">
<path d="M18.6998 24.9938H6.30779C6.22835 24.9797 6.14952 24.9608 6.06946 24.9528C5.39358 24.8832 4.73298 24.7328 4.12065 24.4444C1.47396 23.1947 0.0610916 21.0986 0.0244254 18.1696C-0.0220185 14.3875 0.0115922 10.6054 0.0140366 6.82323C0.0140366 5.6383 0.271922 4.50898 0.875082 3.48661C2.22501 1.1968 4.24776 0.0247042 6.90545 0.0106488C10.6375 -0.00890649 14.3701 -0.000351038 18.1027 0.0112599C18.5745 0.00359471 19.0457 0.0466187 19.5082 0.139592C22.2631 0.756195 24.0304 2.43673 24.7906 5.15614C24.8951 5.5283 24.93 5.91941 24.9966 6.30196V18.6994C24.9562 18.9628 24.9318 19.2292 24.8743 19.4884C24.2492 22.2487 22.5766 24.0234 19.8505 24.7885C19.4759 24.8917 19.0841 24.9266 18.6998 24.9938ZM12.5148 1.47058C10.6448 1.47058 8.77482 1.46202 6.90484 1.4773C6.46623 1.47411 6.02869 1.52106 5.60075 1.61724C3.09522 2.22834 1.48069 4.29265 1.47824 6.87823C1.47539 10.6263 1.47682 14.3755 1.48252 18.1256C1.47801 18.5319 1.51797 18.9374 1.60168 19.335C2.17673 21.857 4.27221 23.5247 6.85718 23.5284C10.6216 23.5341 14.3862 23.5328 18.151 23.5247C18.5492 23.5276 18.9466 23.4866 19.3359 23.4025C21.8384 22.8317 23.5189 20.7478 23.5269 18.1922C23.5385 14.3948 23.5305 10.5968 23.5269 6.79879C23.5269 6.03369 23.3906 5.29059 23.0545 4.59882C22.0608 2.56262 20.4163 1.50908 18.1498 1.47608C16.2718 1.44919 14.3933 1.47058 12.5148 1.47058Z" fill="#BAA195"/>
<path d="M12.5226 5.66808C16.2882 5.68947 19.3559 8.77432 19.3352 12.5179C19.3138 16.2842 16.2289 19.3525 12.4859 19.3317C8.7209 19.3104 5.65255 16.2249 5.67394 12.4813C5.69533 8.71565 8.77957 5.64669 12.5226 5.66808ZM17.8703 12.5002C17.8703 9.5492 15.4479 7.12801 12.4994 7.1329C11.0808 7.13931 9.72203 7.70523 8.7183 8.7077C7.71457 9.71016 7.14695 11.0682 7.13875 12.4868C7.12653 15.4335 9.54345 17.8602 12.4975 17.8645C15.4516 17.8688 17.8691 15.4525 17.8703 12.5002Z" fill="#BAA195"/>
<path d="M19.4942 7.27681C18.9607 7.27105 18.4509 7.05591 18.0746 6.67777C17.6983 6.29963 17.4856 5.78876 17.4824 5.25528C17.4885 4.1553 18.4192 3.23009 19.5064 3.24231C20.6094 3.25453 21.5285 4.18035 21.5182 5.26873C21.5108 6.37055 20.5899 7.2817 19.4942 7.27681ZM19.4942 4.71018C19.385 4.71156 19.2788 4.74538 19.1889 4.80735C19.099 4.86932 19.0296 4.95663 18.9896 5.05816C18.9495 5.15969 18.9405 5.27085 18.9638 5.3775C18.9871 5.48414 19.0416 5.58144 19.1204 5.65701C19.1991 5.73258 19.2986 5.783 19.4061 5.80185C19.5136 5.82071 19.6243 5.80714 19.7241 5.76289C19.8239 5.71863 19.9083 5.64568 19.9664 5.55333C20.0246 5.46097 20.054 5.35339 20.0509 5.24428C20.0431 5.10074 19.9807 4.9656 19.8765 4.86653C19.7724 4.76747 19.6343 4.71197 19.4905 4.7114L19.4942 4.71018Z" fill="#BAA195"/>
<path d="M19.4907 4.71149C19.5998 4.70979 19.7069 4.7406 19.7985 4.8C19.8901 4.85939 19.9619 4.94468 20.0048 5.04502C20.0478 5.14535 20.0599 5.2562 20.0397 5.36344C20.0194 5.47069 19.9677 5.56949 19.8912 5.64726C19.8146 5.72504 19.7166 5.77828 19.6097 5.8002C19.5028 5.82213 19.3918 5.81174 19.2908 5.77038C19.1898 5.72902 19.1034 5.65854 19.0425 5.56792C18.9817 5.47729 18.9492 5.37063 18.9492 5.26149C18.9518 5.11789 19.0094 4.98077 19.1102 4.87843C19.2109 4.77608 19.3471 4.71632 19.4907 4.71149Z" fill="white"/>
</g>
<defs>
<clipPath id="clip0_68_77">
<rect width="24.996" height="24.9941" fill="white"/>
</clipPath>
</defs>
</svg>
