<svg width="55" height="45" viewBox="0 0 55 45" fill="none" xmlns="http://www.w3.org/2000/svg">
<path d="M33.7092 22.9541C33.6815 23.0371 33.6815 23.3689 33.6539 23.673C33.6262 24.0601 33.5986 24.2813 33.5156 24.309C33.488 24.3366 33.4327 24.4196 33.4603 24.4749C33.5156 24.696 33.2944 25.6638 32.9903 26.355C32.1331 28.4011 30.7507 30.6407 29.2853 32.3549C29.0088 32.7144 28.7046 33.0738 28.6217 33.1844C28.4834 33.3503 28.0963 33.7374 27.6816 34.1245C27.5987 34.2351 27.4881 34.3457 27.4881 34.3733C27.4881 34.401 27.4328 34.4286 27.3775 34.4286C27.3222 34.4286 27.2392 34.5116 27.2116 34.6222C27.1839 34.7051 26.9627 34.9539 26.7415 35.1198C26.5203 35.2857 26.3268 35.4516 26.3268 35.4793C26.3268 35.5622 24.1425 37.4977 23.3683 38.0783C22.4006 38.8525 22.2347 38.9631 22.1517 38.9355C22.0964 38.9355 22.0688 38.9631 22.0688 39.0184C22.0688 39.0737 20.9905 39.8479 20.2163 40.3179C19.9951 40.4838 19.7186 40.6497 19.6356 40.705C19.1656 41.0368 17.0643 42.1704 16.1795 42.5852C15.0735 43.1105 13.1934 43.7741 13.0828 43.7188C13.0551 43.6911 12.9998 43.6911 12.9998 43.7464C12.9998 43.8294 12.6404 43.9123 11.4514 44.0782C10.3178 44.2165 10.0413 44.2441 9.93073 44.1612C9.87544 44.1059 9.82014 44.1059 9.79249 44.1612C9.73719 44.2165 8.79711 44.1888 8.29942 44.0782C7.1658 43.8294 5.92158 43.1935 5.258 42.4746C4.51147 41.728 3.98613 39.9861 4.15202 38.9908C4.20732 38.7419 4.26262 38.3272 4.31792 38.0507L4.37322 37.5253L4.20732 37.8295C4.06908 38.106 4.04143 38.1336 4.04143 37.9401C4.04143 37.8295 4.15202 37.6359 4.23497 37.5253C4.40087 37.3594 4.40087 37.3041 4.34557 37.1659C4.29027 37.0829 4.26262 36.9447 4.29027 36.8341C4.31792 36.5853 4.87091 35.5069 4.9815 35.5346C5.00915 35.5622 5.17505 35.3687 5.34094 35.1198C5.47919 34.871 5.64509 34.6775 5.67274 34.7051C5.72804 34.7328 5.81098 34.6498 5.89393 34.5392C5.94923 34.401 6.05983 34.2904 6.11513 34.2627C6.17042 34.2351 6.14278 34.3457 6.03218 34.4839C5.67274 35.0092 5.86628 34.8434 6.28102 34.2904C6.50222 33.9862 6.75106 33.7097 6.80636 33.6544C6.88931 33.5991 6.94461 33.5162 6.94461 33.4885C6.94461 33.4332 6.88931 33.4609 6.80636 33.4885C6.69576 33.5715 6.69576 33.5715 6.72341 33.4885C6.75106 33.4332 6.83401 33.3779 6.91696 33.3779C6.97226 33.4056 7.13815 33.295 7.24875 33.1291C7.35935 32.9632 7.49759 32.825 7.52524 32.825C7.58054 32.825 7.60819 32.7973 7.60819 32.7697C7.63584 32.7144 7.58054 32.7144 7.49759 32.7144C7.44229 32.742 7.387 32.7144 7.387 32.6867C7.41464 32.5761 7.60819 32.4379 7.66349 32.4932C7.66349 32.5208 7.93998 32.2996 8.21648 31.9955C8.49297 31.6913 8.88006 31.3319 9.07361 31.2213C9.26715 31.083 9.37775 30.9448 9.37775 30.9448C9.3501 30.8895 9.26715 30.9448 9.1842 31.0554C9.04596 31.1936 8.90771 31.2489 8.90771 31.1383C8.93536 30.9448 10.539 29.6453 10.7049 29.7282C10.7602 29.7282 11.0367 29.5623 11.3408 29.3135C11.7556 28.954 11.7832 28.9264 11.4791 29.1199C11.092 29.3964 11.0091 29.4241 11.0091 29.3135C11.0091 29.2029 12.6404 28.0693 12.8892 27.9863C12.9998 27.9587 13.0828 27.9034 13.0828 27.8481C13.0828 27.7098 13.5251 27.4333 13.691 27.4333C13.7463 27.4333 13.8016 27.4057 13.8016 27.3504C13.8293 27.2398 14.1058 27.0462 14.5758 26.7974C14.7694 26.7144 15.0735 26.5209 15.2118 26.4103C15.3777 26.2721 15.7647 26.0232 16.1242 25.8573C16.456 25.6914 17.009 25.3873 17.3408 25.1937C18.1149 24.7513 19.9398 23.8389 20.0227 23.8666C20.078 23.8666 20.161 23.8113 20.2163 23.7836C20.3545 23.6454 22.29 22.8435 23.6448 22.3459C24.1701 22.1247 24.6125 21.9311 24.5849 21.9035C24.5849 21.8482 24.6402 21.8482 24.6955 21.8758C24.7508 21.9035 25.1102 21.7929 25.4697 21.6823C26.7139 21.2952 27.654 21.2675 27.9028 21.627C28.0687 21.8758 28.0687 21.9588 27.8752 22.0141C27.7922 22.0141 27.7093 22.097 27.6816 22.18C27.654 22.2629 27.5157 22.3182 27.2945 22.3459C26.6586 22.4012 25.0826 22.8159 24.0319 23.2306C23.783 23.3136 23.5619 23.3965 23.5342 23.3965C23.4236 23.3689 20.3269 24.696 20.0504 24.8619C19.9398 24.9449 19.5804 25.1108 19.2762 25.249C18.4744 25.6085 16.9813 26.438 16.1518 26.9633C15.7371 27.1845 15.2118 27.5163 14.9629 27.6822C13.8569 28.3458 11.9491 29.7559 10.8432 30.7236C9.15655 32.1614 8.76946 32.5761 8.07823 33.4609C7.93998 33.6268 7.82938 33.765 7.80174 33.7927C7.74644 33.8203 7.52524 34.1245 6.88931 34.9816C6.25337 35.8111 5.34094 37.6083 5.42389 37.8018C5.45154 37.8295 5.42389 38.023 5.36859 38.2166C5.0921 39.1843 5.06445 40.5391 5.28565 41.175C5.61744 42.1151 6.80636 42.7234 8.54827 42.834C9.59894 42.917 10.4561 42.834 11.7832 42.5299C12.8063 42.281 14.8247 41.5621 15.903 41.0092C16.4836 40.705 18.4744 39.599 18.8615 39.3502C19.4145 39.0184 19.8845 38.7696 19.8845 38.8249C19.8568 38.9078 18.032 40.0414 17.7555 40.1797C17.6172 40.235 17.3684 40.3732 17.2302 40.4838C16.8707 40.7603 14.2164 41.9769 13.221 42.3087C12.7786 42.4746 12.4468 42.6128 12.4745 42.6128C12.5021 42.6128 12.5298 42.6405 12.4745 42.6958C12.4468 42.7511 12.3915 42.7511 12.3362 42.6958C12.2809 42.6405 12.0044 42.6681 11.5067 42.7787C9.98603 43.1658 8.10588 43.1658 7.1658 42.834C6.61281 42.6405 6.55752 42.6958 7.08285 42.917C7.60819 43.1105 9.73719 43.3593 9.73719 43.2211C9.73719 43.1658 9.82014 43.1382 9.93073 43.1935C10.0413 43.2211 10.4284 43.2211 10.7879 43.1658C11.6173 43.0552 13.4422 42.5852 13.3316 42.5022C13.2487 42.4746 13.2763 42.4469 13.3316 42.3916C13.4146 42.364 13.4698 42.364 13.4698 42.4193C13.4698 42.4746 13.7187 42.4469 14.0781 42.3363C14.9353 42.0598 15.9306 41.6174 15.82 41.5345C15.7647 41.5068 15.7647 41.4515 15.8477 41.3962C15.903 41.3409 15.9583 41.3409 15.9859 41.4239C16.0412 41.5345 16.1242 41.5068 16.456 41.3409C17.6725 40.7327 20.1333 39.2672 21.1287 38.4931C21.5435 38.1889 22.1794 37.7189 22.5388 37.47C23.396 36.8618 26.2715 34.2904 27.0457 33.4332C27.4051 33.0738 27.8475 32.5761 28.0687 32.3549C28.5111 31.8849 29.4788 30.6683 29.4788 30.5854C29.4788 30.5577 29.3682 30.696 29.2023 30.8895C28.7876 31.3872 28.1793 31.9678 28.2622 31.7743C28.2899 31.6913 28.0687 31.8572 27.7646 32.1337C27.4604 32.4102 27.2392 32.6314 27.2392 32.5761C27.2392 32.5485 27.4328 32.2996 27.654 31.9955C27.9028 31.7466 28.0963 31.4978 28.0963 31.4701C28.0963 31.4425 28.2899 31.166 28.5387 30.8342C29.0364 30.2259 29.5065 29.5623 29.2576 29.8112C28.9535 30.143 28.8705 30.2259 28.8429 30.1706C28.7876 30.143 29.6447 28.8711 29.7553 28.7605C29.8659 28.7052 31.3037 26.1062 31.5249 25.6085C31.7184 25.1384 32.0226 24.1984 32.2714 23.3689C32.382 22.8712 32.4649 21.7652 32.4096 21.2122C32.2161 19.4703 31.3313 18.2538 29.783 17.6731C29.3129 17.4796 27.9028 17.1478 27.101 17.0648C26.2991 16.9819 23.3683 16.8989 22.843 16.9819C22.6218 17.0095 22.1794 17.0372 21.8752 17.0648C20.7693 17.1201 19.3868 17.3137 17.8384 17.5625C17.4514 17.6455 17.0643 17.7008 16.9813 17.7008C16.926 17.7008 16.8154 17.7284 16.7601 17.7561C16.5942 17.8114 14.8523 18.1432 14.244 18.2261C13.9675 18.2538 13.2487 18.4196 12.6127 18.5855C11.9768 18.7238 11.0644 18.9173 10.5667 19.0279L9.68189 19.2215L9.04596 20.7698C8.43767 22.2353 7.88468 23.756 7.46994 24.9172C7.35935 25.2214 7.13815 25.885 6.94461 26.3827C6.58516 27.3504 6.28102 28.3734 6.25337 28.6776C6.25337 28.7881 6.30867 28.9264 6.39162 29.0093C6.55752 29.2029 6.55752 29.3964 6.39162 29.3688C6.28102 29.3688 6.28102 29.4517 6.36397 29.9218C6.41927 30.1983 6.08748 30.5301 5.86628 30.3918C5.83863 30.3365 5.75568 30.3089 5.70039 30.3089C5.56214 30.2812 5.23035 29.9771 5.23035 29.9218C5.23035 29.8665 5.11975 29.7559 4.9815 29.6729C4.64971 29.4517 4.26262 28.484 4.37322 28.1246C4.42852 27.9034 4.31792 27.5992 4.04143 27.3227C3.79258 27.0462 2.79721 25.6085 2.52071 25.0831C2.18892 24.5025 1.63593 23.203 1.41474 22.4841C1.30414 22.1523 1.22119 22.0141 1.08295 21.9588C0.806455 21.8758 0.751156 21.2399 0.917052 19.9127C1.0553 18.5579 1.1106 18.3644 1.33179 18.2814C1.44239 18.2538 1.55299 18.0602 1.66358 17.7284C2.68661 14.9082 3.70963 13.1663 5.42389 11.3967C5.86628 10.9267 6.17042 10.7331 5.78333 11.1755C5.1474 11.8391 4.26262 12.8898 4.26262 12.9727C4.26262 13.0004 4.40087 12.8621 4.56676 12.6409C5.0368 12.0327 5.56214 11.5073 6.39162 10.7331C6.86166 10.3184 7.08285 10.0696 6.9999 10.0696C6.88931 10.0419 6.9999 9.9313 7.2764 9.71011C7.96763 9.12947 9.26715 8.24469 9.3501 8.27235C9.37775 8.27235 9.48834 8.27235 9.57129 8.27235C9.73719 8.27235 9.73719 8.27235 9.59894 8.1894C9.4607 8.1341 9.57129 8.05115 10.2625 7.60876C10.7049 7.33227 11.1197 7.13872 11.175 7.16637C11.2303 7.19402 11.2579 7.16637 11.2303 7.13872C11.175 7.02812 13.6357 5.70096 14.2993 5.45211C14.4652 5.39682 14.7141 5.06502 15.2118 4.34614C16.4836 2.38304 17.5343 1.08352 17.8108 1.00057C17.8937 0.97292 18.0043 0.889972 18.0873 0.834674C18.2255 0.751725 18.2532 0.751725 18.2808 0.862324C18.3085 0.97292 18.4191 1.00057 18.6679 1.02822C19.0827 1.05587 19.3315 1.19412 19.7739 1.66415C20.0504 1.9683 20.1057 2.32774 19.9398 2.41069C19.8845 2.43834 19.8568 2.52128 19.8292 2.57658C19.8292 2.63188 19.6356 2.93602 19.3592 3.21252C19.1103 3.51666 18.9168 3.7655 18.9444 3.7655C18.9444 3.79315 19.1103 3.79315 19.3039 3.73785C19.9121 3.65491 20.9352 3.7655 21.4882 3.9867C22.3453 4.37379 22.5941 4.70558 22.7047 5.59036C22.7877 6.22629 22.6771 6.69633 22.29 7.38756C22.0135 7.85761 21.0458 9.01888 20.3822 9.65481C20.1333 9.87601 19.2209 10.7331 18.3638 11.5073C16.5113 13.2492 14.3546 15.1294 14.2164 15.1017C14.1334 15.1017 14.0781 15.157 14.0505 15.2123C14.0228 15.2953 13.7463 15.5165 13.4698 15.71C12.6127 16.3459 11.562 17.1754 11.7003 17.1201C11.9768 17.0372 15.3224 16.3459 16.5389 16.1524C17.7278 15.9312 20.4375 15.5994 21.267 15.5718C21.4882 15.5718 22.0135 15.5441 22.4282 15.5165C23.4789 15.4335 27.3498 15.71 27.9028 15.9036C28.124 15.9589 28.4005 16.0418 28.5111 16.0695C29.4512 16.3183 30.8613 17.0648 31.5525 17.7284C32.0778 18.2261 32.935 19.3597 32.9073 19.5533C32.9073 19.5809 32.9903 19.7468 33.0732 19.9127C33.4327 20.521 33.7368 22.0694 33.7092 22.9541ZM18.3085 11.2585C18.4467 11.1479 18.5573 11.0373 18.5573 11.0096C18.5573 11.0096 18.4467 11.0649 18.3085 11.2032C18.1702 11.3138 18.0596 11.4244 18.0596 11.4244C18.0596 11.452 18.1702 11.3691 18.3085 11.2585ZM18.2255 10.7055C18.8615 10.1525 19.3592 9.68246 19.3039 9.65481C19.3039 9.62716 19.1656 9.71011 19.055 9.82071C18.9168 9.90366 18.7785 9.9866 18.7232 9.9866C18.5573 9.9866 16.8431 11.4797 16.8984 11.5903C16.926 11.6456 16.9813 11.7009 17.009 11.7009C17.0643 11.7009 17.6172 11.2585 18.2255 10.7055ZM15.3224 8.79768C14.4376 10.1801 13.2763 12.1433 12.668 13.2769C12.4192 13.7469 12.1427 14.217 12.0874 14.2999C11.9768 14.4381 11.8938 14.7146 11.9215 14.9082C11.9215 14.9911 12.4745 14.6317 13.0551 14.134C13.9952 13.3875 14.327 13.0833 14.2993 13.028C14.244 12.9727 14.4099 12.7792 14.5205 12.7792C14.5482 12.7792 14.5758 12.8345 14.5205 12.8621C14.4652 12.9451 14.4929 12.9451 14.6035 12.8621C14.6588 12.8345 14.7417 12.7239 14.7417 12.6409C14.7417 12.558 15.0182 12.2815 15.35 12.0327C15.6818 11.7838 16.2348 11.3414 16.5942 11.0649C16.9537 10.7608 17.3961 10.429 17.5896 10.3184C17.7555 10.1801 17.8937 10.0419 17.8661 10.0143C17.8384 9.9313 18.1426 9.71011 18.2255 9.76541C18.3085 9.79306 18.6956 9.48891 18.6956 9.37832C18.6956 9.35067 18.7785 9.29537 18.8615 9.26772C18.9721 9.21242 19.1103 9.07418 19.1933 8.96358C19.2486 8.82533 19.5804 8.43824 19.9121 8.1341C21.1011 7.00048 21.6264 6.171 21.6817 5.50741C21.7093 5.36916 21.7646 5.17562 21.8199 5.06502C21.9029 4.92677 21.8752 4.89913 21.6817 4.73323C21.4329 4.48439 20.7416 4.29084 20.1886 4.31849C19.4698 4.34614 18.2255 4.65028 18.032 4.84383C17.949 4.92677 17.8661 5.03737 17.8661 5.09267C17.8661 5.12032 17.6172 5.47976 17.3408 5.8945C17.0366 6.30924 16.8154 6.66868 16.8154 6.72398C16.8154 6.77928 16.7878 6.80693 16.7601 6.77928C16.7048 6.72398 16.4836 6.94518 16.2901 7.24932C16.2348 7.35992 16.1518 7.47051 16.1242 7.47051C16.0689 7.47051 16.0412 7.49816 16.0412 7.55346C16.0412 7.60876 15.7094 8.16175 15.3224 8.79768ZM10.0137 7.9129C9.95838 7.94055 9.98603 7.99585 10.0137 7.99585C10.069 7.99585 10.1243 7.9682 10.1519 7.9129C10.1796 7.88525 10.1796 7.82995 10.1243 7.82995C10.0966 7.82995 10.0137 7.85761 10.0137 7.9129ZM8.63122 8.82533C8.02293 9.24007 7.30405 9.84836 7.30405 9.95895C7.30405 10.0143 7.46994 9.87601 7.69114 9.68246C7.91233 9.46127 8.32707 9.12947 8.60357 8.90828L9.10125 8.54884L8.63122 8.82533ZM3.68199 13.7193C3.57139 13.8852 3.51609 13.9958 3.54374 13.9958C3.57139 13.9958 3.68199 13.8852 3.76493 13.7193C3.84788 13.581 3.90318 13.4704 3.87553 13.4704C3.87553 13.4704 3.76493 13.581 3.68199 13.7193ZM4.89856 26.1615C5.2027 24.9725 6.36397 21.4611 6.61281 21.0187C6.66811 20.9357 6.75106 20.7145 6.80636 20.5486C6.83401 20.3828 6.91696 20.1892 6.94461 20.1339C6.9999 20.051 6.94461 19.9957 6.77871 19.9957C6.66811 19.968 6.41927 19.8574 6.28102 19.7468C6.00453 19.498 5.89393 19.1385 5.86628 18.5579C5.86628 18.3367 5.89393 18.3091 6.03218 18.3644C6.22572 18.4196 6.9999 18.1155 7.60819 17.7561L8.07823 17.4796L8.76946 15.9589C9.65424 14.0511 10.9814 11.5903 12.2256 9.43362C12.7786 8.52119 13.2763 7.66406 13.3593 7.55346C13.4422 7.41522 13.6634 7.08342 13.8569 6.80693L14.1887 6.28159L13.8569 6.44749C12.4192 7.19402 10.0137 8.74238 8.63122 9.79306C6.64046 11.3138 5.36859 12.7239 4.06908 14.8252C2.9631 16.6224 2.35482 18.392 2.13362 20.3551C2.07832 21.074 2.07832 21.2399 2.21657 21.8482C2.43777 22.6223 2.99075 24.0325 3.51609 25.0278C3.93083 25.802 4.59441 26.8803 4.64971 26.8803C4.67736 26.8803 4.78796 26.5486 4.89856 26.1615ZM10.8432 13.1939C10.8432 13.1663 10.8155 13.1663 10.7602 13.2216C10.7326 13.3045 10.6773 13.3875 10.6773 13.4151C10.6773 13.4704 10.7326 13.4428 10.7602 13.3875C10.8155 13.3322 10.8432 13.2492 10.8432 13.1939ZM6.61281 22.7053C6.64046 22.6776 6.66811 22.567 6.66811 22.4841C6.64046 22.3735 6.61281 22.4012 6.58516 22.567C6.52987 22.7053 6.55752 22.7606 6.61281 22.7053ZM5.23035 28.6776C5.3133 28.8158 5.36859 28.8711 5.36859 28.7881C5.36859 28.7881 5.3133 28.7052 5.258 28.6499C5.11975 28.5393 5.11975 28.5393 5.23035 28.6776ZM8.88006 19.9957C9.01831 19.7192 9.01831 19.7192 8.82476 19.7192C8.74181 19.6915 8.68651 19.7468 8.71416 19.8021C8.76946 19.9404 8.60357 20.2169 8.38237 20.3828C8.32707 20.4381 8.18883 20.6869 8.13353 20.9081C8.07823 21.1569 7.96763 21.4887 7.93998 21.627C7.82938 21.9311 7.82938 21.9311 7.99528 21.7929C8.10588 21.7376 8.16118 21.7099 8.13353 21.7376C7.91233 22.1247 7.82938 22.2353 7.69114 22.2629C7.60819 22.2629 7.55289 22.3182 7.58054 22.4012C7.58054 22.4565 7.55289 22.5394 7.44229 22.5947C7.35935 22.6223 7.3317 22.7053 7.3317 22.8159C7.35935 22.8988 7.3317 23.0371 7.2764 23.0647C7.24875 23.12 7.1105 23.4242 7.02755 23.7836C6.86166 24.3643 6.72341 24.5578 6.64046 24.3643C6.58516 24.2813 6.66811 23.9772 6.94461 23.2859C6.97226 23.1477 6.9999 22.9818 6.9999 22.9265C6.97226 22.8435 6.9999 22.7882 7.02755 22.8159C7.08285 22.8159 7.30405 22.3459 7.52524 21.7929C7.74644 21.2399 7.96763 20.7698 7.99528 20.7422C8.05058 20.7145 8.13353 20.4657 8.21648 20.2169C8.29942 19.9404 8.41002 19.6915 8.46532 19.6362C8.57592 19.498 8.52062 19.498 8.05058 19.6639C7.71879 19.7745 7.63584 19.8298 7.49759 20.1339C7.41464 20.3275 7.387 20.521 7.387 20.5486C7.41464 20.5486 7.44229 20.5486 7.44229 20.4933C7.44229 20.4657 7.49759 20.3551 7.58054 20.2722C7.69114 20.1616 7.69114 20.1892 7.55289 20.5763C7.387 20.991 7.1658 21.2952 7.2764 20.9081C7.3317 20.7975 7.3317 20.7145 7.3317 20.7145C7.30405 20.7145 7.1658 20.991 7.02755 21.3781C6.88931 21.7376 6.75106 22.097 6.72341 22.1523C6.69576 22.2076 6.72341 22.2353 6.75106 22.2076C6.77871 22.18 6.88931 21.9864 6.97226 21.7652C7.08285 21.4887 7.13815 21.4058 7.13815 21.544C7.1105 21.7099 7.02755 21.9588 6.69576 22.8159C6.64046 22.8712 6.61281 22.9265 6.55752 22.8988C6.47457 22.8159 6.17042 23.673 6.14278 24.0601C6.14278 24.2537 6.11513 24.3643 6.05983 24.3366C6.00453 24.309 5.97688 24.3643 5.64509 25.4979C5.47919 25.9956 5.39624 26.4933 5.39624 26.6039C5.42389 26.6868 5.39624 26.7974 5.34094 26.7974C5.3133 26.825 5.23035 26.9633 5.2027 27.1568C5.1474 27.4333 5.17505 27.5163 5.3133 27.7375C5.45154 27.9034 5.50684 27.931 5.50684 27.8757C5.53449 27.7928 5.50684 27.7375 5.45154 27.7375C5.36859 27.7375 5.28565 27.461 5.36859 27.4333C5.42389 27.4057 5.47919 27.3227 5.50684 27.2674C5.53449 27.2121 5.56214 27.2674 5.56214 27.4057C5.53449 27.7651 5.58979 27.6822 5.72804 27.2398C5.92158 26.438 6.25337 25.3043 6.33632 25.1661C6.39162 25.1108 6.41927 24.9725 6.44692 24.8619C6.44692 24.7513 6.47457 24.6407 6.52987 24.6131C6.69576 24.5302 6.69576 24.8619 6.50222 25.3043C6.39162 25.5808 6.28102 25.8297 6.28102 25.9126C6.28102 25.9679 6.22572 26.1062 6.14278 26.2168C6.08748 26.355 5.97688 26.7144 5.92158 27.0739C5.86628 27.4057 5.78333 27.7928 5.75568 27.8757C5.70039 28.014 5.70039 28.1246 5.72804 28.2352C5.86628 28.484 5.89393 28.3734 5.92158 27.8204C5.94923 27.4333 5.97688 27.2951 6.05983 27.2674C6.17042 27.2398 6.41927 26.5209 6.39162 26.3274C6.39162 26.2997 6.41927 26.2168 6.44692 26.1615C6.55752 25.885 6.80636 25.2214 6.94461 24.7513C7.02755 24.4749 7.30405 23.8942 7.52524 23.4795C7.74644 23.0647 7.93998 22.65 7.93998 22.5394C7.93998 22.4288 8.02293 22.2076 8.13353 22.0141C8.21648 21.8482 8.29942 21.6823 8.29942 21.6546C8.29942 21.627 8.35472 21.4611 8.43767 21.2952C8.52062 21.1293 8.63122 20.8251 8.68651 20.6039C8.74181 20.3828 8.82476 20.1063 8.88006 19.9957ZM8.90771 19.5533C8.99066 19.5533 9.07361 19.5256 9.10125 19.498C9.10125 19.3874 9.01831 19.3874 8.85241 19.4703C8.74181 19.5256 8.76946 19.5256 8.90771 19.5533ZM10.4008 15.3506C10.4837 15.2676 10.5943 15.0741 10.622 14.9082C10.7326 14.4658 10.8432 14.2446 10.9538 14.2722C11.0367 14.2722 11.092 14.1893 11.1197 14.1064C11.1473 14.0234 11.1473 13.9681 11.1197 13.9958C10.9814 14.0787 11.0367 13.8022 11.2856 13.4151C11.7279 12.5856 11.9768 12.1986 12.0321 12.2262C12.1427 12.2815 12.2809 12.0603 12.2809 11.7838C12.3086 11.6456 12.3915 11.452 12.4745 11.3691C12.5851 11.2585 12.6404 11.1202 12.6127 11.0649C12.5851 11.0373 12.7233 10.8161 12.8892 10.5672C13.0551 10.3184 13.1934 10.0972 13.1934 10.0696C13.1934 10.0419 13.2763 9.95895 13.3593 9.87601C13.4698 9.79306 13.5251 9.68246 13.4975 9.62716C13.4698 9.59951 13.5251 9.46127 13.6357 9.35067C13.7187 9.26772 13.8016 9.12947 13.8016 9.07418C13.8293 9.01888 13.8569 8.93593 13.9122 8.90828C13.9675 8.88063 13.9952 8.93593 13.9675 9.01888C13.9122 9.26772 13.9399 9.32302 14.0781 9.15712C14.1887 9.01888 14.2164 9.01888 14.1887 9.24007C14.1887 9.35067 14.1334 9.46127 14.1058 9.43362C14.0505 9.43362 14.0228 9.51657 14.0228 9.62716C13.9952 9.71011 13.9399 9.87601 13.8293 9.95895C13.7463 10.0419 13.6634 10.1801 13.6081 10.2907C13.5804 10.3737 13.4698 10.5119 13.3593 10.6225C13.1381 10.7884 13.0275 11.1202 13.1657 11.1755C13.2487 11.2032 13.4422 10.899 13.7187 10.4013C13.9675 9.9313 14.2164 9.51657 14.2717 9.46127C14.4376 9.21242 14.7141 8.77003 14.7141 8.71474C14.7141 8.60414 14.2993 8.65943 14.2164 8.77003C14.1887 8.79768 14.1334 8.82533 14.1058 8.79768C14.0781 8.77003 14.2164 8.54884 14.3823 8.32764C14.5758 8.0235 14.6588 7.85761 14.5758 7.82995C14.5482 7.80231 14.4929 7.82995 14.4652 7.88525C14.4652 7.9129 14.3823 8.0235 14.327 8.0788C14.1334 8.32764 14.0781 8.1341 14.244 7.82995C14.4099 7.52581 14.4099 7.49816 14.327 7.49816C14.2717 7.49816 14.2164 7.55346 14.2164 7.63641C14.2164 7.71936 14.1887 7.80231 14.1334 7.82995C14.0781 7.85761 14.0505 7.94055 14.0505 7.99585C14.0505 8.05115 13.9399 8.1894 13.8293 8.29999C13.7187 8.41059 13.6081 8.54884 13.6081 8.63179C13.5804 8.82533 13.3316 9.24007 13.1934 9.29537C13.1381 9.29537 13.0828 9.35067 13.1104 9.40597C13.1104 9.54421 12.7786 10.1525 12.668 10.1248C12.6404 10.1248 12.5298 10.2907 12.4745 10.4843C12.3915 10.7055 12.2533 11.0096 12.1427 11.2032C12.0044 11.3967 11.7556 11.8115 11.562 12.1709C11.3685 12.5303 11.175 12.7792 11.1473 12.7515C11.1197 12.7239 11.175 12.6133 11.2579 12.475C11.3408 12.3368 11.3685 12.1986 11.3685 12.1709C11.2856 12.1156 11.0367 12.6686 11.092 12.8068C11.1473 12.9727 10.6496 13.9405 10.539 13.8852C10.4561 13.8575 10.4284 13.9128 10.4561 14.0787C10.4561 14.217 10.4561 14.3552 10.4008 14.4105C10.3455 14.4658 10.2349 14.687 10.0966 14.9358C9.95838 15.2123 9.84779 15.3506 9.79249 15.3506C9.73719 15.3229 9.68189 15.3506 9.65424 15.4059C9.57129 15.5718 9.57129 15.5994 9.68189 15.5441C9.73719 15.5165 9.73719 15.5441 9.70954 15.6824C9.54364 16.0971 9.37775 16.3736 9.26715 16.3459C9.1842 16.3459 8.96301 16.7054 8.96301 16.8989C8.93536 16.9266 9.04596 16.8989 9.1842 16.8436C9.37775 16.7607 9.4054 16.7054 9.32245 16.6777C9.1289 16.6224 9.21185 16.5118 9.43305 16.5118C9.73719 16.5395 10.069 16.1801 10.1796 15.7653C10.2072 15.5994 10.3178 15.4059 10.4008 15.3506ZM11.3685 13.6363C11.3685 13.6087 11.3408 13.581 11.2856 13.6087C11.2579 13.6363 11.2026 13.7193 11.2026 13.8022C11.2026 13.9128 11.2026 13.9128 11.2856 13.8022C11.3408 13.7469 11.3685 13.664 11.3685 13.6363ZM10.7602 15.793C10.7879 15.7653 10.8432 15.7377 10.8432 15.71C10.8432 15.6824 10.8155 15.6824 10.7602 15.6547C10.7326 15.6547 10.6773 15.71 10.6773 15.7377C10.6773 15.793 10.7049 15.8206 10.7602 15.793ZM11.5067 14.4381C11.645 14.1064 11.8109 13.7746 11.8662 13.6916C12.0597 13.5257 12.3086 13.028 12.198 13.028C12.0597 13.0004 12.1427 12.8345 12.2809 12.8068C12.4745 12.7792 13.221 11.3691 13.1104 11.2308C13.0828 11.1755 13.0275 11.2308 12.9445 11.3414C12.8339 11.5903 12.6957 11.6732 12.6127 11.5626C12.5851 11.4797 12.5574 11.4797 12.5021 11.535C12.4745 11.5626 12.5021 11.6179 12.5574 11.6456C12.6404 11.6732 12.6404 11.7009 12.5298 11.8115C12.4745 11.8944 12.3915 12.0327 12.3639 12.1156C12.3086 12.2262 12.198 12.3091 12.1427 12.3368C12.0597 12.3644 12.0044 12.4474 12.0044 12.6409C11.9768 12.8345 11.9215 12.9451 11.8385 12.9727C11.7832 12.9727 11.7279 13.0557 11.7279 13.111C11.7279 13.1663 11.7003 13.1939 11.645 13.1663C11.6173 13.1386 11.5344 13.1939 11.4791 13.2769C11.3408 13.4981 11.3685 13.5257 11.5067 13.4151C11.645 13.3322 11.645 13.3598 11.5897 13.5257C11.5344 13.6363 11.4514 13.8299 11.3685 13.9681C11.2856 14.1064 11.2303 14.2722 11.2303 14.3275C11.2303 14.4105 11.1473 14.4934 11.0367 14.5487C10.8432 14.6593 10.8155 14.8529 10.8708 15.2676C10.8985 15.3506 10.8432 15.4059 10.7879 15.3782C10.622 15.3782 10.5943 15.5441 10.7602 15.5718C10.8708 15.5718 10.9814 15.5165 11.092 15.3229C11.175 15.157 11.3685 14.7423 11.5067 14.4381ZM20.3822 16.3736C19.8292 16.4842 19.7186 16.5118 20.0504 16.4842C20.2992 16.4842 20.4651 16.5118 20.4928 16.5671C20.5481 16.6777 20.6034 16.6777 20.9628 16.5671C21.1287 16.5118 21.2946 16.4842 21.3223 16.5118C21.3776 16.5395 21.4052 16.4842 21.4052 16.4012C21.4329 16.2077 21.3499 16.2077 20.3822 16.3736ZM19.1656 16.4842C18.9997 16.5395 18.9997 16.5395 19.1656 16.5395C19.2762 16.5671 19.3592 16.5395 19.3868 16.5118C19.4698 16.4012 19.3868 16.4012 19.1656 16.4842ZM25.7462 16.7054C25.8014 16.6501 25.6079 16.5948 25.2761 16.5948C24.8614 16.5671 24.8061 16.5948 24.972 16.6501C25.3314 16.7607 25.6909 16.7883 25.7462 16.7054ZM26.3544 16.3736C26.3821 16.263 26.1885 16.2354 24.6125 16.1524C23.5895 16.0971 23.0642 16.1248 23.0089 16.2354C23.0089 16.2907 23.1748 16.3736 23.4236 16.4565L23.866 16.5395H23.5342C23.3407 16.5395 23.0918 16.5395 22.9812 16.5671C22.843 16.5948 22.8153 16.5671 22.843 16.4012C22.8706 16.2354 22.843 16.2077 22.5665 16.1801C22.4006 16.1524 22.2347 16.1801 22.207 16.2077C22.1517 16.2354 21.9858 16.2354 21.8199 16.2077C21.5711 16.1524 21.5435 16.1801 21.5158 16.3183C21.4882 16.4842 21.5158 16.4842 21.9305 16.4842C22.207 16.4565 22.3453 16.4842 22.3453 16.5395C22.3453 16.5948 22.1794 16.6224 21.9858 16.5948C21.7923 16.5948 21.6264 16.5948 21.5988 16.6224C21.5711 16.6777 21.4882 16.7054 21.3776 16.7054C21.267 16.6777 21.0181 16.7054 20.7969 16.733C20.5757 16.7607 20.3822 16.7607 20.2992 16.733C20.2716 16.7054 20.2163 16.733 20.2163 16.7883C20.2163 16.8436 20.161 16.8436 20.1333 16.816C20.0504 16.7607 19.3592 16.816 18.3914 16.9819C18.0043 17.0372 17.5343 17.1201 17.3131 17.1478C16.4283 17.286 15.9859 17.3966 15.9859 17.5072C15.9859 17.6455 16.2071 17.6455 16.3454 17.5072C16.4007 17.4243 16.5666 17.369 16.7601 17.3966C16.9537 17.3966 17.0919 17.369 17.0919 17.3413C17.0919 17.3137 17.1749 17.286 17.2578 17.286C17.3408 17.3137 17.6172 17.2584 17.8661 17.2307C18.3638 17.1201 21.7093 16.7607 22.3453 16.733C22.5665 16.733 22.7324 16.6777 22.7324 16.6501C22.7324 16.5948 22.7047 16.5671 22.6494 16.5671C22.5941 16.5671 22.5665 16.5395 22.6218 16.5118C22.6494 16.4842 22.7324 16.5118 22.7877 16.5671C22.9812 16.7607 24.6955 16.733 24.5849 16.5395C24.5572 16.5118 24.6125 16.4289 24.6678 16.3736C24.8061 16.2907 24.972 16.3183 25.995 16.4289C26.1885 16.4289 26.3268 16.4289 26.3544 16.3736ZM27.1839 16.4842C27.2116 16.4565 27.101 16.4012 26.9074 16.3736C26.6033 16.3183 26.465 16.3459 26.5756 16.4565C26.6586 16.5395 27.1286 16.5671 27.1839 16.4842ZM27.8475 16.9819C27.8752 16.9819 27.9028 16.9542 27.9028 16.9266C27.9028 16.8713 27.7369 16.8436 27.5434 16.8436L27.1563 16.816L27.4881 16.8989C27.654 16.9266 27.8199 16.9819 27.8475 16.9819ZM30.0594 17.4796C30.4465 17.7561 30.4742 17.7561 30.4189 17.6455C30.2806 17.3966 28.5664 16.6501 27.7093 16.4842C27.3498 16.4289 27.2945 16.4289 27.3775 16.5395C27.4328 16.6224 27.5987 16.6777 27.8475 16.6777C28.2899 16.7054 29.5618 17.1754 30.0594 17.4796ZM24.972 22.4565C25.0549 22.4565 25.0826 22.4288 25.0273 22.4012C24.972 22.3735 24.889 22.4012 24.889 22.4012C24.8614 22.4288 24.889 22.4565 24.972 22.4565ZM24.8614 22.2353C24.7231 22.3182 24.8337 22.3182 25.0549 22.2353C25.1655 22.2076 25.1932 22.18 25.1102 22.1523C25.0549 22.1523 24.9443 22.18 24.8614 22.2353ZM23.3683 23.0371C23.6172 22.9541 23.8107 22.8435 23.783 22.7882C23.7278 22.7606 22.5112 23.203 22.5112 23.2859C22.5112 23.3136 22.6494 23.2583 22.8153 23.203C22.9812 23.1477 23.2301 23.0924 23.3683 23.0371ZM23.7554 22.567C23.6448 22.6223 23.5619 22.6776 23.6172 22.6776C23.6448 22.6776 23.783 22.65 23.8936 22.5947C24.0042 22.5394 24.0595 22.4841 24.0319 22.4841C23.9766 22.4841 23.866 22.5394 23.7554 22.567ZM16.5666 25.8297C16.5113 25.802 15.82 26.2168 15.7371 26.3274C15.7094 26.355 15.8753 26.2721 16.1242 26.1338C16.373 25.9956 16.5666 25.8573 16.5666 25.8297ZM15.2118 26.6039C15.1565 26.6039 15.1288 26.6315 15.1288 26.6868C15.1288 26.7144 15.1565 26.7421 15.2118 26.7144C15.2394 26.6868 15.2671 26.6592 15.2947 26.6315C15.2947 26.6039 15.2394 26.6039 15.2118 26.6039ZM15.35 26.7697C15.2394 26.8527 15.0459 26.9633 14.9353 27.0462L14.7417 27.2121L14.9629 27.1568C15.1012 27.1568 15.2671 27.0739 15.3224 26.9909C15.4053 26.908 15.4883 26.8527 15.5435 26.8527C15.5988 26.8527 15.6541 26.825 15.6818 26.7974C15.7094 26.7697 15.903 26.6592 16.1242 26.5762C16.3454 26.4656 16.5666 26.3274 16.6219 26.2168C16.6495 26.1338 16.7325 26.0785 16.7601 26.0785C16.7878 26.0785 16.7878 26.1062 16.7601 26.1615C16.6772 26.2997 17.2855 25.9679 17.6449 25.6914C18.2808 25.2214 18.502 25.0831 18.7785 25.0278C18.9444 25.0002 19.1656 24.8896 19.2762 24.779C19.4698 24.6131 19.6633 24.5578 19.5527 24.696C19.5251 24.7237 19.5251 24.779 19.5804 24.779C19.608 24.779 19.6633 24.7237 19.6633 24.6407C19.6633 24.5854 19.8015 24.5025 19.9674 24.4472C20.1333 24.3919 20.2992 24.309 20.3269 24.2813C20.3545 24.2537 20.4651 24.1707 20.6034 24.1154C20.714 24.0325 20.7969 23.9495 20.7693 23.8942C20.7416 23.8666 20.7693 23.8113 20.8246 23.8389C20.8522 23.8389 20.9075 23.8666 20.9075 23.9219C20.9352 23.9772 21.1011 23.9219 21.3499 23.8113C21.6264 23.673 21.8476 23.6177 21.9029 23.6454C21.9858 23.673 22.0135 23.673 21.9858 23.6177C21.9582 23.5624 21.9858 23.5071 22.0688 23.4795C22.1241 23.4518 22.1794 23.3965 22.207 23.3412C22.207 23.2859 22.5112 23.12 22.843 22.9818C23.2024 22.8435 23.4789 22.7053 23.4513 22.7053C23.3683 22.5947 18.8891 24.5578 18.9444 24.6684C18.9997 24.7513 18.6403 24.9449 18.5297 24.8896C18.4191 24.8343 17.8937 25.0831 17.8937 25.1937C17.8937 25.249 17.8384 25.2767 17.7831 25.2767C17.7278 25.2767 17.5619 25.3596 17.4237 25.4702C17.2302 25.6361 16.1518 26.3274 15.35 26.7697ZM14.6311 26.9356C14.5482 26.9909 14.4652 27.0462 14.4652 27.0739C14.4652 27.0739 14.5482 27.0739 14.6311 27.0186C14.7141 26.9909 14.797 26.9356 14.797 26.908C14.797 26.8803 14.7141 26.908 14.6311 26.9356ZM14.327 27.4333C14.1611 27.5439 14.1058 27.6269 14.1887 27.6269C14.2717 27.6269 14.4099 27.5439 14.5205 27.461C14.7694 27.2121 14.6588 27.2121 14.327 27.4333ZM12.0044 29.037C11.7003 29.2858 11.645 29.3411 11.7832 29.3411C11.8662 29.3411 11.9768 29.3135 12.0321 29.2582C12.0874 29.1752 12.115 29.1476 12.0874 29.1476C12.0321 29.1199 12.0874 29.0646 12.1703 28.9817C12.3362 28.8158 12.5021 28.7881 12.3915 28.954C12.3639 29.0093 12.3639 29.0093 12.4745 28.9264C12.5574 28.8711 12.6127 28.8158 12.5851 28.7881C12.5298 28.6776 12.7233 28.5393 12.9445 28.5117C13.1657 28.5117 13.7187 28.0969 13.6081 28.014C13.5804 27.9863 13.5251 28.014 13.5251 28.0416C13.5251 28.0969 13.4975 28.1246 13.4698 28.0969C13.4146 28.0416 12.6957 28.5117 12.0044 29.037ZM9.93073 30.3918C9.70954 30.5301 9.4054 30.8342 9.51599 30.8342C9.51599 30.8342 9.68189 30.696 9.87544 30.5301C10.1796 30.2536 10.1796 30.2536 9.93073 30.3918ZM11.5344 29.4794C11.5067 29.3688 8.79711 31.636 8.79711 31.7743C8.79711 31.8019 9.1289 31.5531 9.54364 31.1936C9.93073 30.8342 10.3178 30.5301 10.3731 30.5301C10.539 30.5024 11.562 29.59 11.5344 29.4794ZM8.54827 31.9955C8.49297 32.0508 8.46532 32.1061 8.46532 32.1061C8.49297 32.1061 8.54827 32.0508 8.63122 31.9955C8.68651 31.9402 8.71416 31.8849 8.68651 31.8849C8.65886 31.8849 8.60357 31.9402 8.54827 31.9955ZM8.16118 32.4102C8.07823 32.4932 8.02293 32.5485 8.05058 32.5485C8.07823 32.5485 8.16118 32.4932 8.24413 32.4102C8.32707 32.3273 8.38237 32.2443 8.35472 32.2443C8.32707 32.2443 8.24413 32.3273 8.16118 32.4102ZM7.77409 32.825C7.71879 32.8802 7.69114 32.9355 7.71879 32.9355C7.74644 32.9355 7.80174 32.8802 7.85703 32.825C7.91233 32.742 7.93998 32.6867 7.91233 32.6867C7.91233 32.6867 7.82938 32.742 7.77409 32.825ZM6.41927 42.917C6.44692 42.9723 6.61281 43.0276 6.61281 42.9723C6.61281 42.9446 6.55752 42.917 6.50222 42.8893C6.41927 42.834 6.39162 42.8617 6.41927 42.917ZM7.85703 43.5252C8.02293 43.5529 8.05058 43.5252 7.93998 43.4976C7.85703 43.4699 7.69114 43.4146 7.55289 43.3593C7.41464 43.3317 7.30405 43.3317 7.2764 43.3593C7.2764 43.4423 7.52524 43.4976 7.85703 43.5252ZM8.52062 43.7464C8.71416 43.7741 8.71416 43.7741 8.57592 43.6358C8.41002 43.4976 8.21648 43.4699 8.21648 43.5529C8.21648 43.6911 8.29942 43.7464 8.52062 43.7464ZM10.7326 43.7741C10.8708 43.7741 10.9261 43.7188 10.9261 43.6358C10.8985 43.5529 10.7049 43.5529 10.4284 43.6358C10.3455 43.6635 10.2625 43.6635 10.2072 43.6635C10.1796 43.6635 10.0966 43.6911 10.0137 43.7188C9.95838 43.7464 9.82014 43.7741 9.70954 43.8017C9.59894 43.8017 9.73719 43.8017 10.0137 43.8017C10.2902 43.8017 10.622 43.8017 10.7326 43.7741ZM12.0597 43.5252L12.5298 43.4146L12.115 43.4423C11.8938 43.4423 11.6726 43.4699 11.645 43.5252C11.562 43.5529 11.5344 43.5529 11.5067 43.4699C11.5067 43.4146 11.4514 43.4146 11.3685 43.4976C11.3132 43.5529 11.175 43.6358 11.1197 43.6358C10.8985 43.7464 11.6173 43.6358 12.0597 43.5252ZM13.0275 43.304C13.1104 43.2764 13.1934 43.2487 13.1934 43.2211C13.1934 43.1382 12.7233 43.1658 12.6957 43.2764C12.6127 43.3317 12.751 43.3593 13.0275 43.304ZM14.9629 42.6958C15.0459 42.6681 15.1288 42.5852 15.1288 42.5299C15.1288 42.4746 15.1288 42.4746 15.0459 42.5299C14.9906 42.5852 14.8523 42.6128 14.7694 42.6128C14.6864 42.6128 14.5758 42.6128 14.5482 42.6405C14.5205 42.6958 14.4652 42.6958 14.4376 42.7234C14.1887 42.7234 13.691 42.8893 13.691 42.9723C13.691 43.0829 14.0228 43.0276 14.4929 42.834C14.6588 42.7511 14.8247 42.7234 14.8247 42.7234C14.797 42.7511 14.88 42.7511 14.9629 42.6958ZM16.4836 41.9769C16.5666 42.0598 16.9537 41.8386 16.9813 41.7004C16.9813 41.5345 16.9813 41.5345 16.456 41.811C15.8753 42.0875 15.6265 42.2257 15.6818 42.3087C15.7371 42.3916 15.7371 42.3916 15.9583 42.281C16.0689 42.2534 16.1518 42.1704 16.1518 42.1151C16.0965 42.0045 16.4007 41.8939 16.4836 41.9769ZM17.2025 41.7004C17.2025 41.6451 17.2025 41.5898 17.1749 41.5068C17.1472 41.4515 17.0919 41.4239 17.0919 41.4239C17.0919 41.4515 17.0643 41.5345 17.0366 41.6174C17.009 41.7557 17.1196 41.811 17.2025 41.7004ZM20.161 39.9308C20.5757 39.5437 20.6587 39.3778 20.2992 39.599C20.161 39.682 20.0504 39.7373 20.0227 39.7373C19.9674 39.7373 19.7186 39.9032 19.2762 40.1797C19.2209 40.2073 19.0274 40.3456 18.8338 40.4562C18.6403 40.5668 18.502 40.705 18.5297 40.7603C18.5573 40.8156 18.5573 40.8156 18.502 40.8156C18.3914 40.7327 17.9214 40.9815 17.9214 41.1474C17.8937 41.258 17.8108 41.2856 17.6172 41.2303C17.5619 41.2303 17.479 41.258 17.4514 41.3133C17.3684 41.4239 17.3131 41.6451 17.3961 41.5621C17.4237 41.5621 17.4514 41.4792 17.4514 41.4515C17.5067 41.2856 17.5067 41.258 17.5619 41.3686C17.6172 41.4792 19.3315 40.5944 19.4145 40.4009C19.4421 40.3179 19.4974 40.2626 19.5251 40.2903C19.6909 40.3179 19.8292 40.235 20.161 39.9308ZM21.0458 39.3502C21.1287 39.2949 21.184 39.2396 21.184 39.2396C21.184 39.129 21.0458 39.2119 20.9905 39.3225C20.9352 39.4055 20.9628 39.4331 21.0458 39.3502ZM22.6218 38.106C22.6771 38.0783 22.6771 38.023 22.6494 37.9954C22.6494 37.9677 22.4559 38.0507 22.29 38.1889C22.0964 38.3272 21.8199 38.5207 21.6264 38.6313C21.4605 38.7419 21.267 38.9078 21.2117 38.9908C21.0181 39.2396 21.3776 39.1566 21.7923 38.8802C21.9858 38.7143 22.2347 38.4931 22.3453 38.3825C22.4559 38.2442 22.5941 38.1336 22.6218 38.106ZM26.3821 34.9539C26.6033 34.7328 26.7692 34.5116 26.7415 34.4839C26.7415 34.4563 26.5203 34.6222 26.2715 34.8434C24.5572 36.3641 23.6448 37.1659 23.2301 37.4977C22.8983 37.7465 22.7877 37.8848 22.8706 37.8848C22.9259 37.9124 23.5619 37.4147 24.2531 36.8341C25.912 35.4516 25.912 35.4516 26.3821 34.9539ZM27.6816 33.6268C27.9857 33.2673 28.0687 33.1014 27.7922 33.3226C27.571 33.4885 26.8798 34.2904 26.8798 34.3733C26.8798 34.4286 27.101 34.2074 27.6816 33.6268ZM28.7323 32.4102C28.8982 32.2443 28.9535 32.1337 28.7876 32.2443C28.6217 32.3273 28.3175 32.7144 28.3175 32.7973C28.3175 32.8526 28.3728 32.825 28.4281 32.742C28.4834 32.6591 28.6217 32.5208 28.7323 32.4102ZM29.3129 31.6637C29.6171 31.2213 29.5065 31.2766 29.1747 31.7466C29.0088 31.9678 28.9535 32.1061 29.0088 32.0508C29.0641 31.9955 29.2023 31.8296 29.3129 31.6637ZM53.697 25.9403C53.9182 25.5532 53.9735 25.5532 54.0565 25.9126C54.1394 26.2168 54.0565 26.438 53.8906 26.438C53.78 26.4656 53.78 26.438 53.8629 26.2997C53.9459 26.1615 53.9459 26.1615 53.8353 26.2168C53.78 26.2721 53.6417 26.4103 53.5035 26.5209C53.3099 26.7421 53.0887 26.908 51.9828 27.7928C51.7063 28.014 51.4298 28.2628 51.3468 28.3458C51.2639 28.4287 51.015 28.6499 50.8215 28.8158C50.4344 29.0923 48.3054 30.8895 47.9183 31.2213C47.8354 31.3319 47.4759 31.6084 47.1165 31.8849C46.7847 32.1337 46.5359 32.4102 46.5359 32.4655C46.5635 32.5208 46.5082 32.5485 46.4529 32.5208C46.37 32.4932 46.3423 32.5208 46.3976 32.6314C46.4253 32.6867 46.4253 32.7697 46.37 32.7697C46.3147 32.7697 46.287 32.742 46.287 32.6867C46.2594 32.6314 45.9829 32.7973 45.6787 33.0738C45.3469 33.3226 45.0704 33.5715 45.0981 33.6268C45.1257 33.6821 45.0704 33.7097 44.9875 33.6821C44.9045 33.6821 44.7663 33.765 44.6557 33.8756C44.5728 33.9862 44.5451 34.0415 44.5728 34.0139C44.7939 33.848 44.6557 34.0415 44.3516 34.2904C44.1857 34.4563 44.0474 34.5945 44.0751 34.6222C44.1304 34.6498 45.2363 33.6821 45.264 33.5991C45.264 33.5438 45.3746 33.4332 45.4852 33.3503C45.6787 33.212 45.6787 33.212 45.6511 33.4056C45.6511 33.4885 45.4575 33.7374 45.2363 33.9033C44.9875 34.0968 44.8769 34.2351 44.9322 34.2904C44.9875 34.3457 45.2363 34.1798 45.6234 33.9033C45.9552 33.6544 46.4529 33.2673 46.7017 33.0738C48.2501 31.9955 49.3008 31.1936 49.3284 31.1107C49.3837 30.9724 49.9367 30.5577 49.9644 30.613C50.1303 30.7513 49.0519 31.8019 47.0612 33.3503C46.5635 33.765 45.9829 34.2351 45.7893 34.401C44.3516 35.7005 41.1995 37.6083 40.1765 37.8295C39.1535 38.023 38.6281 38.106 38.4622 38.0507C38.3793 38.023 38.2134 37.9954 38.1305 37.9954C37.9093 38.023 36.8862 37.2488 36.6097 36.8341C36.4991 36.6682 36.3333 36.447 36.2503 36.3641C35.7526 35.8387 35.3655 34.2627 35.4485 33.0185C35.5038 32.2443 35.7526 30.696 35.9462 29.9218C36.0015 29.7006 36.0844 29.3411 36.1397 29.1752C36.3885 28.2075 37.6881 24.3366 38.2411 22.8988C38.4622 22.3182 38.8217 21.3228 39.0705 20.6869C39.3194 20.051 39.6512 19.2215 39.8171 18.862C39.9553 18.4749 40.3148 17.6731 40.5636 17.0372C40.8124 16.4012 41.0613 15.793 41.1166 15.71C41.1719 15.6271 41.2548 15.4888 41.2825 15.4059C41.3378 15.2676 41.5866 14.687 42.2779 13.1386C42.4438 12.7239 42.6373 12.3921 42.6926 12.3921C42.7202 12.3921 42.7479 12.3091 42.7479 12.2538C42.7479 12.1986 43.3009 11.0373 43.9921 9.68246C45.181 7.35992 45.2363 7.24932 45.1534 6.94518C45.0428 6.61338 45.181 6.14335 45.6511 5.23092C46.0935 4.42909 47.6418 2.30009 48.1395 1.88535C48.2501 1.77475 48.9413 2.10654 49.2178 2.41069C49.4667 2.65953 49.4667 2.68718 49.3284 2.82543C49.2178 2.93602 49.2178 2.96367 49.3284 3.01897C49.3837 3.07427 49.522 3.10192 49.6049 3.07427C49.7155 3.07427 49.7985 3.10192 49.8538 3.15722C49.9091 3.26782 49.4943 4.01435 49.3561 3.95905C49.2731 3.9314 49.2731 3.9867 49.3284 4.12495C49.3837 4.23554 49.3008 4.42909 49.0243 4.87148C48.0842 6.47514 46.8123 8.77003 45.7064 10.9267C45.3469 11.6456 45.0151 12.3091 44.9598 12.3644C44.9045 12.4197 44.711 12.8345 44.4898 13.3045C44.2686 13.8022 44.0198 14.2999 43.9368 14.4381C43.8262 14.5764 43.7709 14.7146 43.7709 14.7423C43.7709 14.7699 43.688 14.9358 43.605 15.1017C43.5221 15.2676 43.4668 15.4612 43.4668 15.5165C43.4668 15.5718 43.2179 16.1248 42.8861 16.733C42.582 17.3413 42.2502 18.0326 42.1673 18.2814C42.0014 18.7514 41.5313 19.9404 41.4484 20.1063C41.1442 20.6039 40.9507 21.0463 40.8124 21.544C40.6465 22.097 40.2042 23.3965 39.8724 24.2813C39.7894 24.4472 39.6788 24.696 39.6235 24.8343C39.5406 24.9449 39.4853 25.0831 39.4853 25.1384C39.4853 25.1937 39.4023 25.5255 39.2641 25.8573C39.1258 26.1891 39.0152 26.5762 38.9876 26.6868C38.9876 26.825 38.8493 27.1845 38.7111 27.5163C38.5728 27.8481 38.4346 28.2905 38.407 28.4564C38.3793 28.6499 38.2134 29.2582 38.0199 29.8388C37.854 30.4195 37.6881 30.9724 37.7157 31.0277C37.7157 31.1107 37.6881 31.2489 37.6604 31.3595C37.5498 31.719 37.301 32.9908 37.2457 33.6268C37.1074 35.1198 37.218 36.1705 37.5498 36.4747C37.7987 36.6959 38.8493 36.447 40.1212 35.8664C40.923 35.4793 41.2272 35.2857 42.4714 34.3733C42.9691 34.0139 43.4668 33.6821 43.5221 33.6821C43.605 33.6821 43.688 33.5991 43.7433 33.5162C43.7986 33.4056 44.241 33.0461 44.7386 32.6867C45.8446 31.8296 46.5359 31.3042 46.6188 31.2213C46.6465 31.166 47.0888 30.8342 47.5589 30.4748C48.0566 30.1153 48.5543 29.7006 48.7202 29.5347C48.886 29.3964 49.1902 29.1199 49.4114 28.954C49.6602 28.7881 49.8538 28.6223 49.8538 28.5946C49.8261 28.567 49.8814 28.5117 49.9644 28.4564C50.0197 28.4287 50.1579 28.3458 50.2409 28.2628C50.3515 28.1522 50.6556 27.9034 51.098 27.5163C51.1809 27.4333 51.651 27.0186 52.1763 26.5486C53.1717 25.6361 53.2823 25.5532 53.3099 25.6914C53.3099 25.7744 52.8676 26.2168 51.4574 27.5163C51.2362 27.7375 50.9321 27.9863 50.7662 28.0969C50.6003 28.2075 50.3791 28.4011 50.2409 28.5393C50.1303 28.6499 49.992 28.7605 49.9367 28.7605C49.9091 28.7881 49.8538 28.8158 49.8814 28.8711C49.8814 28.9264 49.8261 28.9817 49.7708 28.9817C49.6879 28.9817 49.5773 29.1199 49.4667 29.2858C49.3561 29.4517 49.2178 29.59 49.1072 29.59C48.9966 29.59 48.7754 29.7559 48.6096 29.9218C48.4437 30.0877 48.2778 30.2259 48.2501 30.2259C48.2225 30.2259 48.0842 30.3642 47.8907 30.5024C47.7524 30.6407 47.31 30.9724 46.9506 31.2489C46.5912 31.4978 46.3423 31.719 46.37 31.7466C46.37 31.7743 46.5635 31.6913 46.757 31.5254C46.9782 31.3595 47.1994 31.2489 47.2824 31.2213C47.3653 31.2213 47.4483 31.166 47.4759 31.1107C47.5036 31.083 47.9183 30.7789 48.3331 30.4471C49.3008 29.7006 51.4298 27.9587 51.7339 27.6545C51.8722 27.5163 52.121 27.2951 52.3146 27.1568C52.5358 27.0186 52.7017 26.8803 52.7293 26.8527C52.8399 26.6868 53.3376 26.2444 53.4205 26.2444C53.4758 26.2168 53.6141 26.0785 53.697 25.9403ZM35.8909 33.4332C35.8909 33.2397 35.8632 33.1567 35.8356 33.1844C35.7803 33.2397 35.7803 33.3779 35.7803 33.5438C35.8356 33.8756 35.8632 33.8203 35.8909 33.4332ZM37.2457 31.2213C37.2457 31.166 37.2457 31.083 37.218 31.0554C37.1904 31.0277 37.1627 31.083 37.1904 31.166C37.1904 31.2766 37.218 31.2766 37.2457 31.2213ZM37.1351 30.3365C37.1074 30.5301 37.1074 30.5024 37.218 30.2536C37.301 30.1153 37.3563 29.9494 37.3563 29.8941C37.3563 29.8665 37.301 29.8665 37.2457 29.9218C37.1904 29.9771 37.1351 30.0324 37.0798 30.0324C37.0521 30.06 36.9968 30.1153 36.9968 30.1706C36.9692 30.2259 37.0245 30.2259 37.0521 30.1983C37.1351 30.143 37.1351 30.1706 37.1351 30.3365ZM37.4116 30.5024C37.4669 30.4748 37.4945 30.3918 37.4669 30.3642C37.4669 30.3089 37.4392 30.2812 37.3839 30.3365C37.3563 30.3642 37.3286 30.4471 37.3286 30.4748C37.3286 30.5301 37.3839 30.5301 37.4116 30.5024ZM37.4116 29.6729C37.4669 29.6176 37.4669 29.5347 37.4392 29.507C37.4116 29.4794 37.3839 29.5623 37.3563 29.6453C37.3286 29.7559 37.3286 29.7835 37.4116 29.6729ZM37.8263 28.4011C37.9646 27.9034 38.1028 27.4886 38.0752 27.461C38.0199 27.4333 37.4392 29.2305 37.4392 29.3411C37.4669 29.4794 37.5222 29.3135 37.8263 28.4011ZM38.1581 27.1292C38.1581 27.2121 38.4622 26.4656 38.4622 26.3827C38.4346 26.355 38.4346 26.3274 38.407 26.3274C38.3517 26.3274 38.1305 27.0186 38.1581 27.1292ZM39.0705 25.3596C39.1258 25.1937 39.1535 25.0831 39.1258 25.0831C39.0705 25.0831 38.7387 26.0232 38.7387 26.1338C38.7387 26.2444 38.9323 25.8297 39.0705 25.3596ZM39.2364 24.9172C39.2641 24.8896 39.2917 24.8343 39.2917 24.779C39.2917 24.7237 39.2641 24.7237 39.2088 24.7513C39.1811 24.779 39.1535 24.8619 39.1535 24.8896C39.1535 24.9449 39.1811 24.9725 39.2364 24.9172ZM39.5406 24.1154C39.7341 23.6454 39.7618 23.5071 39.6512 23.6177C39.5682 23.673 39.2641 24.5025 39.2641 24.5854C39.2917 24.6684 39.3747 24.5578 39.5406 24.1154ZM39.8447 23.2306C39.9 23.1477 39.9 23.0924 39.8724 23.0647C39.8447 23.0371 39.8171 23.0924 39.7894 23.1753C39.7618 23.3136 39.7618 23.3136 39.8447 23.2306ZM40.3148 22.0141C40.3701 21.9864 40.3977 21.9311 40.3977 21.8758C40.3701 21.8205 40.3424 21.8205 40.3148 21.8482C40.2595 21.8758 40.2318 21.9588 40.2595 22.0141C40.2595 22.0417 40.2871 22.0694 40.3148 22.0141ZM40.8124 20.0233C40.8954 19.8851 40.923 19.7468 40.8677 19.7468C40.8124 19.7745 40.2871 21.0463 40.3148 21.1846C40.3148 21.2399 40.3977 21.1016 40.5083 20.8528C40.6189 20.6039 40.7018 20.3828 40.7018 20.3551C40.7018 20.3275 40.7295 20.1892 40.8124 20.0233ZM41.2272 19.6362C41.3101 19.5256 41.3654 19.3874 41.3654 19.3321C41.3378 19.1938 41.2825 19.2768 41.1995 19.5809L41.1166 19.8851L41.2272 19.6362ZM41.2272 19.1385C41.3378 18.8344 41.4207 18.5855 41.3931 18.5579C41.3654 18.5302 40.923 19.498 40.923 19.6086C40.9507 19.7468 41.006 19.6362 41.2272 19.1385ZM42.1396 17.7284C42.1673 17.6731 42.3055 17.2031 42.3055 17.1201C42.3055 17.0648 42.1673 17.3137 42.029 17.6178C41.8908 17.922 41.8078 18.2538 41.8078 18.3091C41.8078 18.392 41.8908 18.3091 41.9461 18.1155C42.029 17.922 42.112 17.7561 42.1396 17.7284ZM43.0797 14.6593C43.1626 14.5487 43.1903 14.4658 43.1626 14.4381C43.1626 14.4105 43.1073 14.4934 43.052 14.604C42.9691 14.8252 42.9691 14.8252 43.0797 14.6593ZM44.158 12.5027C44.241 12.2262 44.158 12.2815 44.0474 12.558C43.9645 12.6962 43.9645 12.7792 43.9921 12.7239C44.0474 12.6962 44.1027 12.5856 44.158 12.5027ZM43.4944 11.7285C43.4668 11.7562 43.4391 11.8115 43.4391 11.8668C43.4668 11.9774 43.5221 11.9497 43.5497 11.7838C43.5497 11.7009 43.5497 11.6732 43.4944 11.7285ZM43.1903 12.3921C43.135 12.4197 43.1073 12.475 43.135 12.5303C43.135 12.5856 43.1626 12.5856 43.2179 12.558C43.2456 12.5303 43.2732 12.4474 43.2732 12.3921C43.2732 12.3644 43.2179 12.3368 43.1903 12.3921ZM42.7479 13.2216C42.4714 13.6916 42.3885 13.9405 42.4991 13.9405C42.5267 13.9128 42.5543 13.8852 42.5543 13.8575C42.5543 13.8022 42.6649 13.5534 42.7755 13.3045L42.9967 12.8345L42.7479 13.2216ZM42.2226 14.3275C42.1673 14.4658 42.1673 14.5211 42.2226 14.4658C42.2779 14.4105 42.3332 14.2999 42.3608 14.1893C42.4161 14.0511 42.4161 14.0234 42.3608 14.0787C42.3055 14.1064 42.2502 14.2446 42.2226 14.3275ZM40.5636 18.2538C39.8171 19.6362 39.6512 20.0233 39.7894 20.1063C39.8724 20.1339 40.2595 19.3874 40.4807 18.7514C40.6189 18.3091 41.006 17.6178 41.0336 17.7561C41.0336 17.8114 41.006 17.8943 40.9783 17.922C40.923 17.9496 40.923 18.0049 40.9507 18.0602C40.9783 18.0879 40.9507 18.1432 40.923 18.1985C40.8677 18.2261 40.8677 18.3367 40.8677 18.4196C40.8677 18.5026 40.8401 18.6408 40.7571 18.7238C40.7018 18.7791 40.5912 19.0003 40.5359 19.1938C40.4807 19.3874 40.3977 19.5533 40.3701 19.5533C40.2595 19.5533 39.983 20.3275 40.0106 20.521C40.0106 20.6869 40.0383 20.6869 40.1765 20.4381C40.2595 20.2445 40.3148 20.1892 40.3701 20.2722C40.4254 20.3551 40.4807 20.2998 40.5636 20.0786C40.6742 19.7745 41.2272 18.4749 41.476 17.9773C41.5313 17.8114 41.6143 17.7284 41.6419 17.7284C41.6696 17.7561 41.6419 17.8667 41.5866 17.922C41.559 18.0049 41.5313 18.0879 41.559 18.1155C41.6143 18.1708 42.3055 16.6501 42.6926 15.6824C42.9138 15.0741 42.7479 15.2953 42.4438 15.9865C42.112 16.733 41.7802 17.4243 41.7249 17.5072C41.6696 17.5902 41.8908 16.9266 41.9737 16.7607C42.029 16.6777 42.0843 16.5395 42.112 16.4012C42.112 16.263 41.9461 16.5948 41.6972 17.1201C41.4484 17.6455 41.1995 18.1985 41.1166 18.3644C40.9783 18.6132 40.9783 18.6132 41.0336 18.392C41.1995 17.8667 42.0014 16.1524 42.0843 16.1248C42.1396 16.1248 42.1949 16.0695 42.2226 16.0142C42.2502 15.9312 42.2226 15.9312 42.1949 15.9865C42.1396 16.0142 42.112 16.0418 42.0843 15.9865C42.0843 15.9036 42.6096 14.7976 42.7202 14.7423C42.7755 14.7146 42.8032 14.6593 42.7479 14.604C42.6649 14.4934 42.9691 13.9681 43.0797 14.0234C43.135 14.0234 43.2179 13.9958 43.2456 13.9405C43.2732 13.8852 43.3009 13.8575 43.3562 13.8852C43.4115 13.9128 43.8262 13.2492 43.9092 12.9727C43.9645 12.8068 43.7156 13.2492 43.5221 13.581C43.3562 13.9681 43.3009 13.8299 43.4668 13.4151C43.5774 13.111 43.5774 13.0833 43.4668 13.2492C43.4115 13.3875 43.3009 13.581 43.2179 13.7193C43.1626 13.8575 43.0797 13.9405 43.052 13.9405C42.9967 13.8575 43.4944 12.9174 43.5774 12.9451C43.688 12.9451 44.1857 12.0327 44.158 11.8391C44.1304 11.7562 44.1857 11.6732 44.2133 11.6732C44.2686 11.6732 44.2686 11.5903 44.2686 11.5073C44.2686 11.3967 44.3239 11.2308 44.4069 11.1202C44.4898 11.0096 44.6004 10.8161 44.6557 10.7055C44.711 10.5672 44.8769 10.1801 45.0428 9.79306C45.2363 9.43362 45.3469 9.10182 45.3193 9.07418C45.264 9.04653 44.6833 9.9866 44.3239 10.7055C44.158 11.0373 44.1027 11.2308 44.1304 11.3414C44.1857 11.452 44.158 11.5073 44.0474 11.5073C43.9645 11.535 43.8815 11.6179 43.8539 11.7285C43.8262 11.8391 43.7986 12.005 43.7156 12.088C43.4391 12.558 42.4161 14.687 42.4438 14.7976C42.4438 14.8529 42.3885 14.9358 42.2779 14.9358C42.1673 14.9635 42.1396 14.9358 42.1673 14.7423C42.1949 14.5764 42.1949 14.5764 42.0567 14.7146C41.9461 14.8252 41.3101 16.1801 41.3378 16.263C41.3378 16.3459 41.5313 16.263 41.6419 16.1248C41.7525 15.9865 41.7525 15.9865 41.7525 16.2077C41.7249 16.3459 41.6972 16.4565 41.6696 16.4565C41.6143 16.4565 41.6143 16.5118 41.6143 16.5671C41.6143 16.733 41.4484 17.0648 41.3654 16.9819C41.3378 16.9542 41.3654 16.816 41.4207 16.7054C41.476 16.5671 41.5037 16.4289 41.476 16.4012C41.3931 16.3183 40.8954 17.1201 40.8677 17.369C40.8401 17.5072 40.8124 17.6178 40.7848 17.6178C40.7295 17.6178 40.7018 17.7284 40.7018 17.8667C40.6742 17.9773 40.6189 18.1708 40.5636 18.2538ZM39.6512 20.4933C39.5959 20.5763 39.5406 20.7145 39.5682 20.7422C39.5682 20.7975 39.5959 20.7698 39.6512 20.6592C39.7065 20.5486 39.7341 20.4381 39.7341 20.3828C39.7341 20.3275 39.6788 20.3828 39.6512 20.4933ZM38.5452 23.3412C38.4346 23.3412 38.2411 23.9495 38.324 24.0325C38.3517 24.0601 38.3793 24.0325 38.407 23.9495C38.407 23.8389 38.4899 23.6454 38.6005 23.4795C38.8217 23.1753 38.8217 23.0094 38.6834 22.9265C38.6558 22.8988 38.6281 22.9818 38.6281 23.0924C38.6558 23.2306 38.6005 23.3412 38.5452 23.3412ZM38.2134 24.226C38.1028 24.309 38.1305 24.3643 38.2134 24.3643C38.2687 24.3643 38.2964 24.309 38.2964 24.2537C38.2964 24.226 38.2411 24.1984 38.2134 24.226ZM38.1028 24.6407C38.0475 24.6684 38.0199 24.696 38.0199 24.7513C38.0475 24.779 38.0752 24.8343 38.1305 24.8343C38.1581 24.8343 38.1858 24.779 38.1858 24.7237C38.1858 24.6684 38.1305 24.6407 38.1028 24.6407ZM37.5222 25.4149C37.4945 25.5255 37.4945 25.5532 37.5775 25.4426C37.6051 25.3873 37.6328 25.3043 37.6051 25.2767C37.5775 25.249 37.5498 25.3043 37.5222 25.4149ZM37.4945 25.6361C37.4945 25.5532 36.8862 27.2951 36.9139 27.378C36.9139 27.4886 37.1074 26.9909 37.301 26.355C37.4116 25.9956 37.4945 25.6638 37.4945 25.6361ZM36.0844 31.0277C36.0568 31.3042 36.1674 31.1107 36.2503 30.8065C36.278 30.6407 36.278 30.4471 36.278 30.4471C36.2227 30.3918 36.195 30.5301 36.0844 31.0277ZM35.9462 31.8019L35.9185 32.0231L36.0015 31.7743C36.0568 31.6637 36.0844 31.4978 36.0844 31.4148C36.0844 31.3042 36.0844 31.3042 36.0291 31.4148C36.0015 31.4978 35.9738 31.6637 35.9462 31.8019ZM36.4162 33.7374C36.4162 33.6544 36.4162 33.5715 36.3885 33.5715C36.3609 33.5438 36.3333 33.5991 36.3609 33.6821C36.3609 33.7927 36.3885 33.8203 36.4162 33.7374ZM36.278 32.6867C36.4438 31.4701 37.1074 28.8434 37.2457 28.9264C37.2733 28.9264 37.2733 29.0923 37.218 29.2858C37.0521 29.9771 37.2457 29.5347 37.6328 28.2628C38.0199 27.0739 38.7111 25.0278 38.9323 24.4749C38.9876 24.3643 39.0429 24.2813 39.0705 24.309C39.0982 24.3366 39.0705 24.4196 39.0429 24.4749C38.9323 24.696 38.4346 26.1615 38.4622 26.1891C38.4899 26.2168 38.6281 25.8573 38.9599 25.0002C39.3194 23.9772 39.4023 23.673 39.347 23.5624C39.2917 23.4242 39.5682 22.5117 39.6788 22.4841C39.7341 22.4841 39.6788 22.7053 39.5959 22.9818C39.3747 23.6454 39.3747 23.673 39.4853 23.5071C39.5682 23.4518 39.5959 23.3412 39.5959 23.3136C39.5959 23.2583 39.7065 22.9541 39.8447 22.6223C39.983 22.2906 40.0936 21.9864 40.0659 21.9311C40.0659 21.9035 40.1212 21.7929 40.1765 21.7099C40.2595 21.5993 40.2595 21.5164 40.2318 21.4611C40.2042 21.4334 40.1489 21.4887 40.1212 21.544C39.983 21.8482 40.0383 21.544 40.1765 21.1016C40.3424 20.6039 40.3148 20.521 40.0936 20.8528C40.0106 21.0187 39.983 21.0463 39.983 20.9081C40.0383 20.6039 39.8171 20.7975 39.7065 21.1569C39.5959 21.5164 39.43 21.7099 39.4023 21.5164C39.4023 21.4334 39.43 21.3228 39.4853 21.2675C39.5682 21.1569 39.5682 21.1016 39.5129 21.0463C39.4023 20.9357 39.2088 21.2399 39.0152 21.9311C38.9323 22.18 38.8217 22.4288 38.794 22.4565C38.7111 22.5394 38.7664 22.9541 38.8493 22.9541C38.9046 22.9541 38.9323 22.8712 38.9046 22.8159C38.9046 22.6776 39.0429 22.4012 39.1535 22.3735C39.1535 22.3735 39.1811 22.4288 39.1811 22.5117C39.2088 22.567 39.1811 22.65 39.1258 22.65C39.0982 22.65 39.0705 22.7053 39.0705 22.7606C39.1258 22.8988 38.8217 23.7007 38.6005 24.0325C38.5175 24.1707 38.4622 24.3366 38.4622 24.4472C38.4899 24.5302 38.4622 24.6131 38.4346 24.6131C38.3793 24.6131 38.2687 24.8896 38.1858 25.2214C38.1028 25.5532 38.0199 25.8297 37.9646 25.8297C37.9369 25.8297 37.9093 25.9126 37.9369 25.9956C37.9369 26.0785 37.8816 26.2444 37.8263 26.355C37.6881 26.5209 37.6604 26.5209 37.6604 26.3274C37.6328 26.2168 37.6604 26.1338 37.7157 26.0785C37.7434 26.0509 37.771 25.9679 37.771 25.885C37.7434 25.8297 37.8263 25.5808 37.9093 25.3873C38.0752 24.9725 38.0752 24.9172 37.9922 24.9172C37.9646 24.9449 37.771 25.3596 37.6051 25.885C37.4392 26.4103 37.301 26.908 37.2457 26.9909C37.2457 27.0739 37.1904 27.2398 37.1351 27.4057C37.0521 27.7928 36.9139 28.2352 36.8586 28.2905C36.748 28.3734 36.2503 30.143 36.3056 30.2536C36.3333 30.3089 36.3885 30.2259 36.4438 30.06C36.4991 29.8941 36.5821 29.7559 36.6097 29.7282C36.6927 29.7282 36.665 29.8112 36.5268 30.5024C36.4715 30.696 36.4438 30.8342 36.4715 30.8342C36.4991 30.8342 36.4991 30.8895 36.4715 30.9448C36.4162 31.0277 36.3609 31.3042 36.3056 31.6084C36.0844 32.8526 36.0015 33.4609 36.0844 33.9862L36.1397 34.5116L36.1674 33.8756C36.195 33.5162 36.2227 32.9908 36.278 32.6867ZM38.7387 24.5578C38.5175 25.1108 38.3517 25.4702 38.3793 25.3596C38.407 25.0831 39.0705 23.2859 39.1535 23.2859C39.2364 23.2583 39.1535 23.5071 38.7387 24.5578ZM46.6465 32.4379C46.6188 32.3549 47.0888 32.0508 47.1165 32.0784C47.1441 32.1061 47.0612 32.2167 46.9506 32.2996C46.7294 32.4655 46.6465 32.4932 46.6465 32.4379ZM52.6464 28.2075C52.6187 28.1246 53.1164 27.4057 53.1717 27.461C53.227 27.5163 52.9505 28.0693 52.7846 28.1799C52.7017 28.2352 52.6464 28.2628 52.6464 28.2075ZM52.3975 28.2628C52.4805 28.2075 52.4805 28.2352 52.3975 28.3734C52.3422 28.484 52.2869 28.5946 52.2869 28.6499C52.3146 28.7328 51.9551 29.1752 51.8722 29.2029C51.8169 29.2029 51.7892 29.1752 51.7892 29.1199C51.7892 29.037 52.2593 28.4011 52.3975 28.2628Z" fill="#C88D76"/>
</svg>
