<svg width="138" height="44" viewBox="0 0 138 44" fill="none" xmlns="http://www.w3.org/2000/svg">
<path d="M27.8289 18.4792C27.8062 18.5473 27.8062 18.8194 27.7835 19.0689C27.7608 19.3864 27.7381 19.5678 27.6701 19.5905C27.6474 19.6132 27.6021 19.6812 27.6248 19.7266C27.6701 19.908 27.4887 20.7017 27.2392 21.2687C26.5362 22.9469 25.4022 24.7839 24.2003 26.19C23.9735 26.4848 23.724 26.7796 23.656 26.8703C23.5426 27.0064 23.2251 27.3239 22.8849 27.6414C22.8169 27.7321 22.7262 27.8228 22.7262 27.8455C22.7262 27.8682 22.6808 27.8909 22.6354 27.8909C22.5901 27.8909 22.5221 27.9589 22.4994 28.0496C22.4767 28.1177 22.2953 28.3218 22.1138 28.4579C21.9324 28.5939 21.7737 28.73 21.7737 28.7527C21.7737 28.8207 19.982 30.4082 19.347 30.8845C18.5533 31.5195 18.4172 31.6102 18.3492 31.5875C18.3038 31.5875 18.2811 31.6102 18.2811 31.6555C18.2811 31.7009 17.3967 32.3359 16.7617 32.7214C16.5802 32.8575 16.3535 32.9936 16.2854 33.0389C15.8999 33.3111 14.1763 34.2409 13.4506 34.5811C12.5434 35.012 11.0013 35.5563 10.9106 35.5109C10.8879 35.4882 10.8425 35.4882 10.8425 35.5336C10.8425 35.6016 10.5477 35.6697 9.57254 35.8057C8.64271 35.9191 8.41592 35.9418 8.32521 35.8738C8.27985 35.8284 8.23449 35.8284 8.21182 35.8738C8.16646 35.9191 7.39538 35.8965 6.98717 35.8057C6.05734 35.6016 5.0368 35.08 4.49252 34.4904C3.88019 33.8781 3.4493 32.4493 3.58537 31.6329C3.63073 31.4288 3.67608 31.0886 3.72144 30.8618L3.7668 30.4309L3.63073 30.6804C3.51733 30.9071 3.49465 30.9298 3.49465 30.7711C3.49465 30.6804 3.58537 30.5216 3.6534 30.4309C3.78948 30.2948 3.78948 30.2495 3.74412 30.1361C3.69876 30.068 3.67608 29.9546 3.69876 29.8639C3.72144 29.6598 4.17501 28.7754 4.26573 28.798C4.28841 28.8207 4.42448 28.662 4.56055 28.4579C4.67394 28.2537 4.81002 28.095 4.8327 28.1177C4.87805 28.1403 4.94609 28.0723 5.01412 27.9816C5.05948 27.8682 5.1502 27.7775 5.19555 27.7548C5.24091 27.7321 5.21823 27.8228 5.12752 27.9362C4.8327 28.3671 4.99145 28.2311 5.33163 27.7775C5.51306 27.528 5.71716 27.3012 5.76252 27.2559C5.83056 27.2105 5.87591 27.1425 5.87591 27.1198C5.87591 27.0745 5.83056 27.0971 5.76252 27.1198C5.67181 27.1878 5.67181 27.1878 5.69448 27.1198C5.71716 27.0745 5.7852 27.0291 5.85324 27.0291C5.89859 27.0518 6.03466 26.9611 6.12538 26.825C6.21609 26.6889 6.32949 26.5755 6.35217 26.5755C6.39752 26.5755 6.4202 26.5528 6.4202 26.5302C6.44288 26.4848 6.39752 26.4848 6.32949 26.4848C6.28413 26.5075 6.23877 26.4848 6.23877 26.4621C6.26145 26.3714 6.4202 26.258 6.46556 26.3034C6.46556 26.3261 6.69235 26.1446 6.91913 25.8952C7.14592 25.6457 7.46342 25.3509 7.62217 25.2602C7.78092 25.1468 7.87164 25.0334 7.87164 25.0334C7.84896 24.988 7.78092 25.0334 7.71289 25.1241C7.59949 25.2375 7.4861 25.2828 7.4861 25.1921C7.50878 25.0334 8.82414 23.9675 8.96021 24.0355C9.00557 24.0355 9.23236 23.8994 9.48182 23.6953C9.822 23.4005 9.84468 23.3778 9.59522 23.5366C9.27771 23.7634 9.20968 23.786 9.20968 23.6953C9.20968 23.6046 10.5477 22.6748 10.7518 22.6068C10.8425 22.5841 10.9106 22.5387 10.9106 22.4934C10.9106 22.38 11.2734 22.1532 11.4095 22.1532C11.4549 22.1532 11.5002 22.1305 11.5002 22.0851C11.5229 21.9944 11.7497 21.8357 12.1352 21.6316C12.294 21.5635 12.5434 21.4048 12.6568 21.3141C12.7929 21.2007 13.1104 20.9966 13.4052 20.8605C13.6774 20.7244 14.1309 20.475 14.4031 20.3162C15.0381 19.9534 16.5349 19.205 16.6029 19.2276C16.6483 19.2276 16.7163 19.1823 16.7617 19.1596C16.8751 19.0462 18.4626 18.3885 19.5738 17.9803C20.0047 17.7989 20.3676 17.6401 20.3449 17.6174C20.3449 17.5721 20.3903 17.5721 20.4356 17.5948C20.481 17.6174 20.7758 17.5267 21.0706 17.436C22.0912 17.1185 22.8622 17.0958 23.0663 17.3907C23.2024 17.5948 23.2024 17.6628 23.0437 17.7082C22.9756 17.7082 22.9076 17.7762 22.8849 17.8442C22.8622 17.9123 22.7488 17.9576 22.5674 17.9803C22.0458 18.0257 20.7531 18.3658 19.8913 18.706C19.6872 18.7741 19.5058 18.8421 19.4831 18.8421C19.3924 18.8194 16.8524 19.908 16.6256 20.0441C16.5349 20.1121 16.2401 20.2482 15.9906 20.3616C15.3329 20.6564 14.1083 21.3367 13.4279 21.7676C13.0877 21.9491 12.6568 22.2212 12.4527 22.3573C11.5456 22.9016 9.98075 24.0582 9.07361 24.8519C7.69021 26.0312 7.37271 26.3714 6.80574 27.0971C6.69235 27.2332 6.60163 27.3466 6.57895 27.3693C6.5336 27.392 6.35217 27.6414 5.83056 28.3445C5.30895 29.0248 4.56055 30.4989 4.62859 30.6577C4.65127 30.6804 4.62859 30.8391 4.58323 30.9979C4.35644 31.7916 4.33376 32.9029 4.51519 33.4245C4.78734 34.1956 5.76252 34.6945 7.19128 34.7852C8.05307 34.8532 8.7561 34.7852 9.84468 34.5357C10.6838 34.3316 12.3393 33.742 13.2238 33.2884C13.7001 33.0389 15.3329 32.1318 15.6504 31.9277C16.104 31.6555 16.4895 31.4514 16.4895 31.4968C16.4669 31.5648 14.9701 32.4947 14.7433 32.608C14.6299 32.6534 14.4258 32.7668 14.3124 32.8575C14.0176 33.0843 11.8404 34.0822 11.024 34.3543C10.6611 34.4904 10.389 34.6038 10.4116 34.6038C10.4343 34.6038 10.457 34.6264 10.4116 34.6718C10.389 34.7172 10.3436 34.7172 10.2983 34.6718C10.2529 34.6264 10.0261 34.6491 9.61789 34.7398C8.37057 35.0573 6.82842 35.0573 6.05734 34.7852C5.60377 34.6264 5.55841 34.6718 5.98931 34.8532C6.4202 35.012 8.16646 35.2161 8.16646 35.1027C8.16646 35.0573 8.23449 35.0347 8.32521 35.08C8.41592 35.1027 8.73343 35.1027 9.02825 35.0573C9.70861 34.9666 11.2054 34.5811 11.1147 34.5131C11.0466 34.4904 11.0693 34.4677 11.1147 34.4223C11.1827 34.3997 11.2281 34.3997 11.2281 34.445C11.2281 34.4904 11.4322 34.4677 11.727 34.377C12.43 34.1502 13.2465 33.7873 13.1558 33.7193C13.1104 33.6966 13.1104 33.6513 13.1784 33.6059C13.2238 33.5606 13.2692 33.5606 13.2918 33.6286C13.3372 33.7193 13.4052 33.6966 13.6774 33.5606C14.6752 33.0616 16.6936 31.8597 17.5101 31.2246C17.8503 30.9752 18.3719 30.5896 18.6667 30.3855C19.3697 29.8866 21.7283 27.7775 22.3633 27.0745C22.6581 26.7796 23.021 26.3714 23.2024 26.19C23.5653 25.8044 24.359 24.8066 24.359 24.7385C24.359 24.7159 24.2683 24.8293 24.1322 24.988C23.7921 25.3962 23.2931 25.8725 23.3612 25.7137C23.3838 25.6457 23.2024 25.7818 22.953 26.0086C22.7035 26.2353 22.5221 26.4168 22.5221 26.3714C22.5221 26.3487 22.6808 26.1446 22.8622 25.8952C23.0663 25.6911 23.2251 25.4869 23.2251 25.4643C23.2251 25.4416 23.3838 25.2148 23.588 24.9427C23.9962 24.4437 24.3817 23.8994 24.1776 24.1035C23.9281 24.3757 23.8601 24.4437 23.8374 24.3984C23.7921 24.3757 24.4951 23.3325 24.5858 23.2418C24.6765 23.1964 25.8558 21.0646 26.0373 20.6564C26.196 20.2709 26.4455 19.4998 26.6496 18.8194C26.7403 18.4112 26.8083 17.5041 26.763 17.0505C26.6042 15.6217 25.8785 14.6239 24.6085 14.1476C24.223 13.9889 23.0663 13.7167 22.4087 13.6487C21.751 13.5806 19.347 13.5126 18.9161 13.5806C18.7347 13.6033 18.3719 13.626 18.1224 13.6487C17.2152 13.694 16.0813 13.8528 14.8113 14.0569C14.4938 14.1249 14.1763 14.1703 14.1083 14.1703C14.0629 14.1703 13.9722 14.193 13.9268 14.2156C13.7908 14.261 12.362 14.5331 11.8631 14.6012C11.6363 14.6239 11.0466 14.7599 10.525 14.896C10.0034 15.0094 9.25504 15.1682 8.84682 15.2589L8.1211 15.4176L7.59949 16.6876C7.10056 17.8896 6.64699 19.1369 6.30681 20.0894C6.21609 20.3389 6.03466 20.8832 5.87591 21.2914C5.58109 22.0851 5.33163 22.9243 5.30895 23.1737C5.30895 23.2644 5.3543 23.3778 5.42234 23.4459C5.55841 23.6046 5.55841 23.7634 5.42234 23.7407C5.33163 23.7407 5.33163 23.8087 5.39966 24.1943C5.44502 24.421 5.17288 24.6932 4.99145 24.5798C4.96877 24.5344 4.90073 24.5118 4.85537 24.5118C4.74198 24.4891 4.46984 24.2396 4.46984 24.1943C4.46984 24.1489 4.37912 24.0582 4.26573 23.9902C3.99358 23.8087 3.67608 23.015 3.7668 22.7201C3.81215 22.5387 3.72144 22.2893 3.49465 22.0625C3.29055 21.8357 2.47411 20.6564 2.24733 20.2255C1.97518 19.7492 1.52161 18.6833 1.34018 18.0937C1.24947 17.8216 1.18143 17.7082 1.06804 17.6628C0.841249 17.5948 0.795892 17.0732 0.931964 15.9846C1.04536 14.8733 1.09071 14.7146 1.27214 14.6465C1.36286 14.6239 1.45357 14.4651 1.54429 14.193C2.3834 11.8797 3.22251 10.451 4.62859 8.99955C4.99145 8.61402 5.24091 8.45527 4.92341 8.81812C4.4018 9.36241 3.67608 10.2242 3.67608 10.2922C3.67608 10.3149 3.78948 10.2015 3.92555 10.0201C4.31109 9.52116 4.74198 9.09027 5.42234 8.45527C5.80788 8.11509 5.98931 7.91098 5.92127 7.91098C5.83056 7.8883 5.92127 7.79758 6.14806 7.61615C6.71502 7.1399 7.78092 6.41418 7.84896 6.43686C7.87164 6.43686 7.96235 6.43686 8.03039 6.43686C8.16646 6.43686 8.16646 6.43686 8.05307 6.36883C7.93967 6.32347 8.03039 6.25543 8.59735 5.89258C8.96021 5.66579 9.30039 5.50704 9.34575 5.52972C9.39111 5.5524 9.41379 5.52972 9.39111 5.50704C9.34575 5.41632 11.3642 4.32775 11.9084 4.12364C12.0445 4.07828 12.2486 3.80614 12.6568 3.21649C13.7001 1.60631 14.5618 0.540411 14.7886 0.472374C14.8567 0.449695 14.9474 0.381658 15.0154 0.336301C15.1288 0.268265 15.1515 0.268265 15.1742 0.358981C15.1968 0.449695 15.2876 0.472374 15.4917 0.495051C15.8318 0.517731 16.036 0.631124 16.3988 1.01666C16.6256 1.26613 16.671 1.56095 16.5349 1.62899C16.4895 1.65167 16.4669 1.7197 16.4442 1.76506C16.4442 1.81042 16.2854 2.05988 16.0586 2.28667C15.8545 2.53613 15.6958 2.74024 15.7185 2.74024C15.7185 2.76292 15.8545 2.76292 16.0133 2.71756C16.5122 2.64953 17.3513 2.74024 17.8049 2.92167C18.5079 3.23917 18.712 3.51131 18.8028 4.23703C18.8708 4.75864 18.7801 5.14418 18.4626 5.71115C18.2358 6.09668 17.442 7.04919 16.8977 7.5708C16.6936 7.75223 15.9452 8.45527 15.2422 9.09027C13.7227 10.519 11.9538 12.0612 11.8404 12.0385C11.7724 12.0385 11.727 12.0839 11.7043 12.1292C11.6817 12.1972 11.4549 12.3787 11.2281 12.5374C10.525 13.059 9.66325 13.7394 9.77664 13.694C10.0034 13.626 12.7475 13.059 13.7454 12.9003C14.7206 12.7189 16.9431 12.4467 17.6235 12.424C17.8049 12.424 18.2358 12.4014 18.576 12.3787C19.4378 12.3106 22.6128 12.5374 23.0663 12.6962C23.2478 12.7415 23.4746 12.8096 23.5653 12.8322C24.3363 13.0364 25.493 13.6487 26.0599 14.193C26.4908 14.6012 27.1939 15.531 27.1712 15.6898C27.1712 15.7124 27.2392 15.8485 27.3073 15.9846C27.6021 16.4835 27.8515 17.7535 27.8289 18.4792ZM15.1968 8.88616C15.3102 8.79544 15.401 8.70473 15.401 8.68205C15.401 8.68205 15.3102 8.72741 15.1968 8.8408C15.0835 8.93152 14.9927 9.02223 14.9927 9.02223C14.9927 9.04491 15.0835 8.97687 15.1968 8.88616ZM15.1288 8.43259C15.6504 7.97901 16.0586 7.59348 16.0133 7.5708C16.0133 7.54812 15.8999 7.61615 15.8092 7.70687C15.6958 7.77491 15.5824 7.84294 15.537 7.84294C15.401 7.84294 13.9949 9.06759 14.0402 9.1583C14.0629 9.20366 14.1083 9.24902 14.1309 9.24902C14.1763 9.24902 14.6299 8.88616 15.1288 8.43259ZM12.7475 6.86776C12.0218 8.00169 11.0693 9.61188 10.5704 10.5417C10.3663 10.9272 10.1395 11.3128 10.0941 11.3808C10.0034 11.4942 9.9354 11.721 9.95807 11.8797C9.95807 11.9478 10.4116 11.653 10.8879 11.2447C11.659 10.6324 11.9311 10.383 11.9084 10.3376C11.8631 10.2922 11.9992 10.1335 12.0899 10.1335C12.1125 10.1335 12.1352 10.1788 12.0899 10.2015C12.0445 10.2696 12.0672 10.2696 12.1579 10.2015C12.2033 10.1788 12.2713 10.0881 12.2713 10.0201C12.2713 9.95206 12.4981 9.72527 12.7702 9.52116C13.0424 9.31705 13.4959 8.9542 13.7908 8.72741C14.0856 8.47794 14.4485 8.2058 14.6072 8.11509C14.7433 8.00169 14.8567 7.8883 14.834 7.86562C14.8113 7.79758 15.0608 7.61615 15.1288 7.66151C15.1968 7.68419 15.5143 7.43472 15.5143 7.34401C15.5143 7.32133 15.5824 7.27597 15.6504 7.2533C15.7411 7.20794 15.8545 7.09455 15.9226 7.00383C15.9679 6.89044 16.2401 6.57294 16.5122 6.32347C17.4874 5.39365 17.9183 4.71329 17.9636 4.169C17.9863 4.0556 18.0317 3.89685 18.077 3.80614C18.1451 3.69274 18.1224 3.67007 17.9636 3.53399C17.7595 3.32989 17.1926 3.17113 16.739 3.19381C16.1494 3.21649 15.1288 3.46596 14.9701 3.62471C14.902 3.69274 14.834 3.78346 14.834 3.82882C14.834 3.8515 14.6299 4.14632 14.4031 4.4865C14.1536 4.82668 13.9722 5.1215 13.9722 5.16686C13.9722 5.21222 13.9495 5.2349 13.9268 5.21222C13.8815 5.16686 13.7001 5.34829 13.5413 5.59775C13.4959 5.68847 13.4279 5.77918 13.4052 5.77918C13.3599 5.77918 13.3372 5.80186 13.3372 5.84722C13.3372 5.89258 13.0651 6.34615 12.7475 6.86776ZM8.39325 6.14204C8.34789 6.16472 8.37057 6.21008 8.39325 6.21008C8.4386 6.21008 8.48396 6.1874 8.50664 6.14204C8.52932 6.11936 8.52932 6.074 8.48396 6.074C8.46128 6.074 8.39325 6.09668 8.39325 6.14204ZM7.25931 6.89044C6.76038 7.23062 6.17074 7.72955 6.17074 7.82026C6.17074 7.86562 6.30681 7.75223 6.48824 7.59348C6.66967 7.41205 7.00985 7.1399 7.23663 6.95847L7.64485 6.66365L7.25931 6.89044ZM3.19983 10.9046C3.10912 11.0406 3.06376 11.1313 3.08644 11.1313C3.10912 11.1313 3.19983 11.0406 3.26787 10.9046C3.3359 10.7912 3.38126 10.7005 3.35858 10.7005C3.35858 10.7005 3.26787 10.7912 3.19983 10.9046ZM4.19769 21.11C4.44716 20.1348 5.39966 17.2546 5.60377 16.8917C5.64913 16.8237 5.71716 16.6423 5.76252 16.5062C5.7852 16.3701 5.85324 16.2114 5.87591 16.166C5.92127 16.098 5.87591 16.0526 5.73984 16.0526C5.64913 16.0299 5.44502 15.9392 5.33163 15.8485C5.10484 15.6444 5.01412 15.3496 4.99145 14.8733C4.99145 14.6919 5.01412 14.6692 5.12752 14.7146C5.28627 14.7599 5.92127 14.5105 6.4202 14.2156L6.80574 13.9889L7.37271 12.7415C8.09842 11.1767 9.187 9.1583 10.2075 7.38937C10.6611 6.64097 11.0693 5.93793 11.1374 5.84722C11.2054 5.73383 11.3868 5.46168 11.5456 5.2349L11.8177 4.804L11.5456 4.94007C10.3663 5.5524 8.39325 6.8224 7.25931 7.68419C5.62645 8.93152 4.58323 10.0881 3.51733 11.8117C2.61019 13.2858 2.11125 14.7373 1.92983 16.3474C1.88447 16.9371 1.88447 17.0732 1.99786 17.5721C2.17929 18.2071 2.63286 19.3637 3.06376 20.1801C3.40394 20.8151 3.94823 21.6996 3.99358 21.6996C4.01626 21.6996 4.10698 21.4275 4.19769 21.11ZM9.07361 10.4737C9.07361 10.451 9.05093 10.451 9.00557 10.4963C8.98289 10.5644 8.93753 10.6324 8.93753 10.6551C8.93753 10.7005 8.98289 10.6778 9.00557 10.6324C9.05093 10.5871 9.07361 10.519 9.07361 10.4737ZM5.60377 18.2751C5.62645 18.2525 5.64913 18.1617 5.64913 18.0937C5.62645 18.003 5.60377 18.0257 5.58109 18.1617C5.53573 18.2751 5.55841 18.3205 5.60377 18.2751ZM4.46984 23.1737C4.53787 23.2871 4.58323 23.3325 4.58323 23.2644C4.58323 23.2644 4.53787 23.1964 4.49252 23.151C4.37912 23.0603 4.37912 23.0603 4.46984 23.1737ZM7.46342 16.0526C7.57681 15.8258 7.57681 15.8258 7.41806 15.8258C7.35003 15.8032 7.30467 15.8485 7.32735 15.8939C7.37271 16.0073 7.23663 16.234 7.0552 16.3701C7.00985 16.4155 6.89645 16.6196 6.8511 16.801C6.80574 17.0051 6.71502 17.2773 6.69235 17.3907C6.60163 17.6401 6.60163 17.6401 6.7377 17.5267C6.82842 17.4814 6.87377 17.4587 6.8511 17.4814C6.66967 17.7989 6.60163 17.8896 6.48824 17.9123C6.4202 17.9123 6.37484 17.9576 6.39752 18.0257C6.39752 18.071 6.37484 18.1391 6.28413 18.1844C6.21609 18.2071 6.19342 18.2751 6.19342 18.3658C6.21609 18.4339 6.19342 18.5473 6.14806 18.57C6.12538 18.6153 6.01199 18.8648 5.94395 19.1596C5.80788 19.6358 5.69448 19.7946 5.62645 19.6358C5.58109 19.5678 5.64913 19.3183 5.87591 18.7514C5.89859 18.638 5.92127 18.5019 5.92127 18.4566C5.89859 18.3885 5.92127 18.3432 5.94395 18.3658C5.98931 18.3658 6.17074 17.9803 6.35217 17.5267C6.5336 17.0732 6.71502 16.6876 6.7377 16.6649C6.78306 16.6423 6.8511 16.4382 6.91913 16.234C6.98717 16.0073 7.07788 15.8032 7.12324 15.7578C7.21396 15.6444 7.1686 15.6444 6.78306 15.7805C6.51092 15.8712 6.44288 15.9165 6.32949 16.166C6.26145 16.3248 6.23877 16.4835 6.23877 16.5062C6.26145 16.5062 6.28413 16.5062 6.28413 16.4608C6.28413 16.4382 6.32949 16.3474 6.39752 16.2794C6.48824 16.1887 6.48824 16.2114 6.37484 16.5289C6.23877 16.8691 6.05734 17.1185 6.14806 16.801C6.19342 16.7103 6.19342 16.6423 6.19342 16.6423C6.17074 16.6423 6.05734 16.8691 5.94395 17.1866C5.83056 17.4814 5.71716 17.7762 5.69448 17.8216C5.67181 17.8669 5.69448 17.8896 5.71716 17.8669C5.73984 17.8442 5.83056 17.6855 5.89859 17.5041C5.98931 17.2773 6.03466 17.2092 6.03466 17.3226C6.01199 17.4587 5.94395 17.6628 5.67181 18.3658C5.62645 18.4112 5.60377 18.4566 5.55841 18.4339C5.49038 18.3658 5.24091 19.0689 5.21823 19.3864C5.21823 19.5451 5.19555 19.6358 5.1502 19.6132C5.10484 19.5905 5.08216 19.6358 4.81002 20.5657C4.67394 20.9739 4.60591 21.3821 4.60591 21.4728C4.62859 21.5409 4.60591 21.6316 4.56055 21.6316C4.53787 21.6542 4.46984 21.7676 4.44716 21.9264C4.4018 22.1532 4.42448 22.2212 4.53787 22.4026C4.65127 22.5387 4.69662 22.5614 4.69662 22.516C4.7193 22.448 4.69662 22.4026 4.65127 22.4026C4.58323 22.4026 4.51519 22.1759 4.58323 22.1532C4.62859 22.1305 4.67394 22.0625 4.69662 22.0171C4.7193 21.9718 4.74198 22.0171 4.74198 22.1305C4.7193 22.4253 4.76466 22.3573 4.87805 21.9944C5.0368 21.3367 5.30895 20.4069 5.37698 20.2935C5.42234 20.2482 5.44502 20.1348 5.4677 20.0441C5.4677 19.9534 5.49038 19.8626 5.53573 19.84C5.67181 19.7719 5.67181 20.0441 5.51306 20.4069C5.42234 20.6337 5.33163 20.8378 5.33163 20.9059C5.33163 20.9512 5.28627 21.0646 5.21823 21.1553C5.17288 21.2687 5.08216 21.5635 5.0368 21.8584C4.99145 22.1305 4.92341 22.448 4.90073 22.516C4.85537 22.6294 4.85537 22.7201 4.87805 22.8109C4.99145 23.015 5.01412 22.9243 5.0368 22.4707C5.05948 22.1532 5.08216 22.0398 5.1502 22.0171C5.24091 21.9944 5.44502 21.4048 5.42234 21.246C5.42234 21.2234 5.44502 21.1553 5.4677 21.11C5.55841 20.8832 5.76252 20.3389 5.87591 19.9534C5.94395 19.7266 6.17074 19.2503 6.35217 18.9101C6.5336 18.57 6.69235 18.2298 6.69235 18.1391C6.69235 18.0483 6.76038 17.8669 6.8511 17.7082C6.91913 17.5721 6.98717 17.436 6.98717 17.4133C6.98717 17.3907 7.03253 17.2546 7.10056 17.1185C7.1686 16.9824 7.25931 16.733 7.30467 16.5515C7.35003 16.3701 7.41806 16.1433 7.46342 16.0526ZM7.4861 15.6898C7.55413 15.6898 7.62217 15.6671 7.64485 15.6444C7.64485 15.5537 7.57681 15.5537 7.44074 15.6217C7.35003 15.6671 7.37271 15.6671 7.4861 15.6898ZM8.71075 12.2426C8.77878 12.1746 8.8695 12.0158 8.89218 11.8797C8.98289 11.5169 9.07361 11.3355 9.16432 11.3581C9.23236 11.3581 9.27771 11.2901 9.30039 11.2221C9.32307 11.154 9.32307 11.1087 9.30039 11.1313C9.187 11.1994 9.23236 10.9726 9.43646 10.6551C9.79932 9.97474 10.0034 9.65724 10.0488 9.67991C10.1395 9.72527 10.2529 9.54384 10.2529 9.31705C10.2756 9.20366 10.3436 9.04491 10.4116 8.97687C10.5024 8.88616 10.5477 8.77277 10.525 8.72741C10.5024 8.70473 10.6158 8.5233 10.7518 8.31919C10.8879 8.11509 11.0013 7.93366 11.0013 7.91098C11.0013 7.8883 11.0693 7.82026 11.1374 7.75223C11.2281 7.68419 11.2734 7.59348 11.2508 7.54812C11.2281 7.52544 11.2734 7.41205 11.3642 7.32133C11.4322 7.2533 11.5002 7.1399 11.5002 7.09455C11.5229 7.04919 11.5456 6.98115 11.5909 6.95847C11.6363 6.93579 11.659 6.98115 11.6363 7.04919C11.5909 7.2533 11.6136 7.29865 11.727 7.16258C11.8177 7.04919 11.8404 7.04919 11.8177 7.23062C11.8177 7.32133 11.7724 7.41205 11.7497 7.38937C11.7043 7.38937 11.6817 7.4574 11.6817 7.54812C11.659 7.61615 11.6136 7.75223 11.5229 7.82026C11.4549 7.8883 11.3868 8.00169 11.3415 8.09241C11.3188 8.16044 11.2281 8.27384 11.1374 8.36455C10.9559 8.50062 10.8652 8.77277 10.9786 8.81812C11.0466 8.8408 11.2054 8.59134 11.4322 8.18312C11.6363 7.79758 11.8404 7.4574 11.8858 7.41205C12.0218 7.20794 12.2486 6.84508 12.2486 6.79972C12.2486 6.70901 11.9084 6.75436 11.8404 6.84508C11.8177 6.86776 11.7724 6.89044 11.7497 6.86776C11.727 6.84508 11.8404 6.66365 11.9765 6.48222C12.1352 6.23275 12.2033 6.09668 12.1352 6.074C12.1125 6.05133 12.0672 6.074 12.0445 6.11936C12.0445 6.14204 11.9765 6.23275 11.9311 6.27811C11.7724 6.48222 11.727 6.32347 11.8631 6.074C11.9992 5.82454 11.9992 5.80186 11.9311 5.80186C11.8858 5.80186 11.8404 5.84722 11.8404 5.91525C11.8404 5.98329 11.8177 6.05133 11.7724 6.074C11.727 6.09668 11.7043 6.16472 11.7043 6.21008C11.7043 6.25543 11.6136 6.36883 11.5229 6.45954C11.4322 6.55026 11.3415 6.66365 11.3415 6.73169C11.3188 6.89044 11.1147 7.23062 11.0013 7.27597C10.9559 7.27597 10.9106 7.32133 10.9333 7.36669C10.9333 7.48008 10.6611 7.97901 10.5704 7.95633C10.5477 7.95633 10.457 8.09241 10.4116 8.25116C10.3436 8.43259 10.2302 8.68205 10.1395 8.8408C10.0261 8.99955 9.822 9.33973 9.66325 9.63456C9.5045 9.92938 9.34575 10.1335 9.32307 10.1108C9.30039 10.0881 9.34575 9.99741 9.41379 9.88402C9.48182 9.77063 9.5045 9.65724 9.5045 9.63456C9.43646 9.5892 9.23236 10.0428 9.27771 10.1562C9.32307 10.2922 8.91485 11.086 8.82414 11.0406C8.7561 11.018 8.73343 11.0633 8.7561 11.1994C8.7561 11.3128 8.7561 11.4262 8.71075 11.4715C8.66539 11.5169 8.57468 11.6983 8.46128 11.9024C8.34789 12.1292 8.25717 12.2426 8.21182 12.2426C8.16646 12.2199 8.1211 12.2426 8.09842 12.288C8.03039 12.424 8.03039 12.4467 8.1211 12.4014C8.16646 12.3787 8.16646 12.4014 8.14378 12.5147C8.00771 12.8549 7.87164 13.0817 7.78092 13.059C7.71289 13.059 7.53146 13.3539 7.53146 13.5126C7.50878 13.5353 7.59949 13.5126 7.71289 13.4673C7.87164 13.3992 7.89432 13.3539 7.82628 13.3312C7.66753 13.2858 7.73556 13.1951 7.91699 13.1951C8.16646 13.2178 8.4386 12.923 8.52932 12.5828C8.552 12.4467 8.64271 12.288 8.71075 12.2426ZM9.5045 10.8365C9.5045 10.8138 9.48182 10.7912 9.43646 10.8138C9.41379 10.8365 9.36843 10.9046 9.36843 10.9726C9.36843 11.0633 9.36843 11.0633 9.43646 10.9726C9.48182 10.9272 9.5045 10.8592 9.5045 10.8365ZM9.00557 12.6055C9.02825 12.5828 9.07361 12.5601 9.07361 12.5374C9.07361 12.5147 9.05093 12.5147 9.00557 12.4921C8.98289 12.4921 8.93753 12.5374 8.93753 12.5601C8.93753 12.6055 8.96021 12.6281 9.00557 12.6055ZM9.61789 11.4942C9.73129 11.2221 9.86736 10.9499 9.91272 10.8819C10.0715 10.7458 10.2756 10.3376 10.1849 10.3376C10.0715 10.3149 10.1395 10.1788 10.2529 10.1562C10.4116 10.1335 11.024 8.97687 10.9333 8.86348C10.9106 8.81812 10.8652 8.86348 10.7972 8.9542C10.7065 9.1583 10.5931 9.22634 10.525 9.13563C10.5024 9.06759 10.4797 9.06759 10.4343 9.11295C10.4116 9.13563 10.4343 9.18098 10.4797 9.20366C10.5477 9.22634 10.5477 9.24902 10.457 9.33973C10.4116 9.40777 10.3436 9.52116 10.3209 9.5892C10.2756 9.67991 10.1849 9.74795 10.1395 9.77063C10.0715 9.79331 10.0261 9.86134 10.0261 10.0201C10.0034 10.1788 9.95807 10.2696 9.89004 10.2922C9.84468 10.2922 9.79932 10.3603 9.79932 10.4056C9.79932 10.451 9.77664 10.4737 9.73129 10.451C9.70861 10.4283 9.64057 10.4737 9.59522 10.5417C9.48182 10.7231 9.5045 10.7458 9.61789 10.6551C9.73129 10.5871 9.73129 10.6097 9.68593 10.7458C9.64057 10.8365 9.57254 10.9953 9.5045 11.1087C9.43646 11.2221 9.39111 11.3581 9.39111 11.4035C9.39111 11.4715 9.32307 11.5396 9.23236 11.5849C9.07361 11.6756 9.05093 11.8344 9.09628 12.1746C9.11896 12.2426 9.07361 12.288 9.02825 12.2653C8.89218 12.2653 8.8695 12.4014 9.00557 12.424C9.09628 12.424 9.187 12.3787 9.27771 12.2199C9.34575 12.0839 9.5045 11.7437 9.61789 11.4942ZM16.8977 13.0817C16.4442 13.1724 16.3535 13.1951 16.6256 13.1724C16.8297 13.1724 16.9658 13.1951 16.9885 13.2405C17.0338 13.3312 17.0792 13.3312 17.374 13.2405C17.5101 13.1951 17.6461 13.1724 17.6688 13.1951C17.7142 13.2178 17.7369 13.1724 17.7369 13.1044C17.7595 12.9456 17.6915 12.9456 16.8977 13.0817ZM15.8999 13.1724C15.7638 13.2178 15.7638 13.2178 15.8999 13.2178C15.9906 13.2405 16.0586 13.2178 16.0813 13.1951C16.1494 13.1044 16.0813 13.1044 15.8999 13.1724ZM21.2974 13.3539C21.3428 13.3085 21.184 13.2631 20.9119 13.2631C20.5717 13.2405 20.5263 13.2631 20.6624 13.3085C20.9572 13.3992 21.2521 13.4219 21.2974 13.3539ZM21.7963 13.0817C21.819 12.991 21.6603 12.9683 20.3676 12.9003C19.5285 12.8549 19.0976 12.8776 19.0522 12.9683C19.0522 13.0137 19.1883 13.0817 19.3924 13.1497L19.7553 13.2178H19.4831C19.3244 13.2178 19.1203 13.2178 19.0295 13.2405C18.9161 13.2631 18.8935 13.2405 18.9161 13.1044C18.9388 12.9683 18.9161 12.9456 18.6894 12.923C18.5533 12.9003 18.4172 12.923 18.3945 12.9456C18.3492 12.9683 18.2131 12.9683 18.077 12.9456C17.8729 12.9003 17.8503 12.923 17.8276 13.0364C17.8049 13.1724 17.8276 13.1724 18.1678 13.1724C18.3945 13.1497 18.5079 13.1724 18.5079 13.2178C18.5079 13.2631 18.3719 13.2858 18.2131 13.2631C18.0544 13.2631 17.9183 13.2631 17.8956 13.2858C17.8729 13.3312 17.8049 13.3539 17.7142 13.3539C17.6235 13.3312 17.4194 13.3539 17.2379 13.3765C17.0565 13.3992 16.8977 13.3992 16.8297 13.3765C16.807 13.3539 16.7617 13.3765 16.7617 13.4219C16.7617 13.4673 16.7163 13.4673 16.6936 13.4446C16.6256 13.3992 16.0586 13.4446 15.2649 13.5806C14.9474 13.626 14.5618 13.694 14.3804 13.7167C13.6547 13.8301 13.2918 13.9208 13.2918 14.0115C13.2918 14.1249 13.4733 14.1249 13.5867 14.0115C13.632 13.9435 13.7681 13.8981 13.9268 13.9208C14.0856 13.9208 14.199 13.8981 14.199 13.8755C14.199 13.8528 14.267 13.8301 14.3351 13.8301C14.4031 13.8528 14.6299 13.8074 14.834 13.7848C15.2422 13.694 17.9863 13.3992 18.5079 13.3765C18.6894 13.3765 18.8254 13.3312 18.8254 13.3085C18.8254 13.2631 18.8028 13.2405 18.7574 13.2405C18.712 13.2405 18.6894 13.2178 18.7347 13.1951C18.7574 13.1724 18.8254 13.1951 18.8708 13.2405C19.0295 13.3992 20.4356 13.3765 20.3449 13.2178C20.3222 13.1951 20.3676 13.1271 20.4129 13.0817C20.5263 13.0137 20.6624 13.0364 21.5015 13.1271C21.6603 13.1271 21.7737 13.1271 21.7963 13.0817ZM22.4767 13.1724C22.4994 13.1497 22.4087 13.1044 22.2499 13.0817C22.0004 13.0364 21.8871 13.059 21.9778 13.1497C22.0458 13.2178 22.4313 13.2405 22.4767 13.1724ZM23.021 13.5806C23.0437 13.5806 23.0663 13.558 23.0663 13.5353C23.0663 13.4899 22.9303 13.4673 22.7715 13.4673L22.454 13.4446L22.7262 13.5126C22.8622 13.5353 22.9983 13.5806 23.021 13.5806ZM24.8353 13.9889C25.1528 14.2156 25.1755 14.2156 25.1301 14.1249C25.0167 13.9208 23.6106 13.3085 22.9076 13.1724C22.6128 13.1271 22.5674 13.1271 22.6354 13.2178C22.6808 13.2858 22.8169 13.3312 23.021 13.3312C23.3838 13.3539 24.4271 13.7394 24.8353 13.9889ZM20.6624 18.071C20.7304 18.071 20.7531 18.0483 20.7078 18.0257C20.6624 18.003 20.5944 18.0257 20.5944 18.0257C20.5717 18.0483 20.5944 18.071 20.6624 18.071ZM20.5717 17.8896C20.4583 17.9576 20.549 17.9576 20.7304 17.8896C20.8212 17.8669 20.8438 17.8442 20.7758 17.8216C20.7304 17.8216 20.6397 17.8442 20.5717 17.8896ZM19.347 18.5473C19.5512 18.4792 19.7099 18.3885 19.6872 18.3432C19.6419 18.3205 18.644 18.6833 18.644 18.7514C18.644 18.7741 18.7574 18.7287 18.8935 18.6833C19.0295 18.638 19.2336 18.5926 19.347 18.5473ZM19.6645 18.1617C19.5738 18.2071 19.5058 18.2525 19.5512 18.2525C19.5738 18.2525 19.6872 18.2298 19.7779 18.1844C19.8687 18.1391 19.914 18.0937 19.8913 18.0937C19.846 18.0937 19.7553 18.1391 19.6645 18.1617ZM13.7681 20.8378C13.7227 20.8151 13.1558 21.1553 13.0877 21.246C13.0651 21.2687 13.2011 21.2007 13.4052 21.0873C13.6093 20.9739 13.7681 20.8605 13.7681 20.8378ZM12.6568 21.4728C12.6115 21.4728 12.5888 21.4955 12.5888 21.5409C12.5888 21.5635 12.6115 21.5862 12.6568 21.5635C12.6795 21.5409 12.7022 21.5182 12.7249 21.4955C12.7249 21.4728 12.6795 21.4728 12.6568 21.4728ZM12.7702 21.6089C12.6795 21.6769 12.5208 21.7676 12.43 21.8357L12.2713 21.9718L12.4527 21.9264C12.5661 21.9264 12.7022 21.8584 12.7475 21.7903C12.8156 21.7223 12.8836 21.6769 12.929 21.6769C12.9743 21.6769 13.0197 21.6542 13.0424 21.6316C13.0651 21.6089 13.2238 21.5182 13.4052 21.4501C13.5867 21.3594 13.7681 21.246 13.8134 21.1553C13.8361 21.0873 13.9042 21.0419 13.9268 21.0419C13.9495 21.0419 13.9495 21.0646 13.9268 21.11C13.8588 21.2234 14.3577 20.9512 14.6526 20.7244C15.1742 20.3389 15.3556 20.2255 15.5824 20.1801C15.7185 20.1575 15.8999 20.0667 15.9906 19.976C16.1494 19.84 16.3081 19.7946 16.2174 19.908C16.1947 19.9307 16.1947 19.976 16.2401 19.976C16.2627 19.976 16.3081 19.9307 16.3081 19.8626C16.3081 19.8173 16.4215 19.7492 16.5576 19.7039C16.6936 19.6585 16.8297 19.5905 16.8524 19.5678C16.8751 19.5451 16.9658 19.4771 17.0792 19.4317C17.1699 19.3637 17.2379 19.2957 17.2152 19.2503C17.1926 19.2276 17.2152 19.1823 17.2606 19.205C17.2833 19.205 17.3286 19.2276 17.3286 19.273C17.3513 19.3183 17.4874 19.273 17.6915 19.1823C17.9183 19.0689 18.0997 19.0235 18.1451 19.0462C18.2131 19.0689 18.2358 19.0689 18.2131 19.0235C18.1904 18.9782 18.2131 18.9328 18.2811 18.9101C18.3265 18.8875 18.3719 18.8421 18.3945 18.7967C18.3945 18.7514 18.644 18.6153 18.9161 18.5019C19.211 18.3885 19.4378 18.2751 19.4151 18.2751C19.347 18.1844 15.6731 19.7946 15.7185 19.8853C15.7638 19.9534 15.469 20.1121 15.3783 20.0667C15.2876 20.0214 14.8567 20.2255 14.8567 20.3162C14.8567 20.3616 14.8113 20.3842 14.766 20.3842C14.7206 20.3842 14.5845 20.4523 14.4711 20.543C14.3124 20.6791 13.4279 21.246 12.7702 21.6089ZM12.1806 21.745C12.1125 21.7903 12.0445 21.8357 12.0445 21.8584C12.0445 21.8584 12.1125 21.8584 12.1806 21.813C12.2486 21.7903 12.3167 21.745 12.3167 21.7223C12.3167 21.6996 12.2486 21.7223 12.1806 21.745ZM11.9311 22.1532C11.795 22.2439 11.7497 22.3119 11.8177 22.3119C11.8858 22.3119 11.9992 22.2439 12.0899 22.1759C12.294 21.9718 12.2033 21.9718 11.9311 22.1532ZM10.0261 23.4685C9.77664 23.6727 9.73129 23.718 9.84468 23.718C9.91272 23.718 10.0034 23.6953 10.0488 23.65C10.0941 23.5819 10.1168 23.5593 10.0941 23.5593C10.0488 23.5366 10.0941 23.4912 10.1622 23.4232C10.2983 23.2871 10.4343 23.2644 10.3436 23.4005C10.3209 23.4459 10.3209 23.4459 10.4116 23.3778C10.4797 23.3325 10.525 23.2871 10.5024 23.2644C10.457 23.1737 10.6158 23.0603 10.7972 23.0376C10.9786 23.0376 11.4322 22.6975 11.3415 22.6294C11.3188 22.6068 11.2734 22.6294 11.2734 22.6521C11.2734 22.6975 11.2508 22.7201 11.2281 22.6975C11.1827 22.6521 10.5931 23.0376 10.0261 23.4685ZM8.32521 24.5798C8.14378 24.6932 7.89432 24.9427 7.98503 24.9427C7.98503 24.9427 8.1211 24.8293 8.27985 24.6932C8.52932 24.4664 8.52932 24.4664 8.32521 24.5798ZM9.64057 23.8314C9.61789 23.7407 7.39538 25.6003 7.39538 25.7137C7.39538 25.7364 7.66753 25.5323 8.00771 25.2375C8.32521 24.9427 8.64271 24.6932 8.68807 24.6932C8.82414 24.6705 9.66325 23.9221 9.64057 23.8314ZM7.19128 25.8952C7.14592 25.9405 7.12324 25.9859 7.12324 25.9859C7.14592 25.9859 7.19128 25.9405 7.25931 25.8952C7.30467 25.8498 7.32735 25.8044 7.30467 25.8044C7.28199 25.8044 7.23663 25.8498 7.19128 25.8952ZM6.87377 26.2353C6.80574 26.3034 6.76038 26.3487 6.78306 26.3487C6.80574 26.3487 6.87377 26.3034 6.94181 26.2353C7.00985 26.1673 7.0552 26.0993 7.03253 26.0993C7.00985 26.0993 6.94181 26.1673 6.87377 26.2353ZM6.55627 26.5755C6.51092 26.6209 6.48824 26.6662 6.51092 26.6662C6.5336 26.6662 6.57895 26.6209 6.62431 26.5755C6.66967 26.5075 6.69235 26.4621 6.66967 26.4621C6.66967 26.4621 6.60163 26.5075 6.55627 26.5755ZM5.44502 34.8532C5.4677 34.8986 5.60377 34.9439 5.60377 34.8986C5.60377 34.8759 5.55841 34.8532 5.51306 34.8306C5.44502 34.7852 5.42234 34.8079 5.44502 34.8532ZM6.62431 35.3522C6.76038 35.3748 6.78306 35.3522 6.69235 35.3295C6.62431 35.3068 6.48824 35.2615 6.37484 35.2161C6.26145 35.1934 6.17074 35.1934 6.14806 35.2161C6.14806 35.2841 6.35217 35.3295 6.62431 35.3522ZM7.1686 35.5336C7.32735 35.5563 7.32735 35.5563 7.21396 35.4429C7.07788 35.3295 6.91913 35.3068 6.91913 35.3748C6.91913 35.4882 6.98717 35.5336 7.1686 35.5336ZM8.98289 35.5563C9.09628 35.5563 9.14164 35.5109 9.14164 35.4429C9.11896 35.3748 8.96021 35.3748 8.73343 35.4429C8.66539 35.4656 8.59735 35.4656 8.552 35.4656C8.52932 35.4656 8.46128 35.4882 8.39325 35.5109C8.34789 35.5336 8.23449 35.5563 8.14378 35.579C8.05307 35.579 8.16646 35.579 8.39325 35.579C8.62003 35.579 8.89218 35.579 8.98289 35.5563ZM10.0715 35.3522L10.457 35.2615L10.1168 35.2841C9.9354 35.2841 9.75397 35.3068 9.73129 35.3522C9.66325 35.3748 9.64057 35.3748 9.61789 35.3068C9.61789 35.2615 9.57254 35.2615 9.5045 35.3295C9.45914 35.3748 9.34575 35.4429 9.30039 35.4429C9.11896 35.5336 9.70861 35.4429 10.0715 35.3522ZM10.8652 35.1707C10.9333 35.1481 11.0013 35.1254 11.0013 35.1027C11.0013 35.0347 10.6158 35.0573 10.5931 35.1481C10.525 35.1934 10.6384 35.2161 10.8652 35.1707ZM12.4527 34.6718C12.5208 34.6491 12.5888 34.5811 12.5888 34.5357C12.5888 34.4904 12.5888 34.4904 12.5208 34.5357C12.4754 34.5811 12.362 34.6038 12.294 34.6038C12.2259 34.6038 12.1352 34.6038 12.1125 34.6264C12.0899 34.6718 12.0445 34.6718 12.0218 34.6945C11.8177 34.6945 11.4095 34.8306 11.4095 34.8986C11.4095 34.9893 11.6817 34.9439 12.0672 34.7852C12.2033 34.7172 12.3393 34.6945 12.3393 34.6945C12.3167 34.7172 12.3847 34.7172 12.4527 34.6718ZM13.7001 34.0822C13.7681 34.1502 14.0856 33.9688 14.1083 33.8554C14.1083 33.7193 14.1083 33.7193 13.6774 33.9461C13.2011 34.1729 12.997 34.2863 13.0424 34.3543C13.0877 34.4223 13.0877 34.4223 13.2692 34.3316C13.3599 34.3089 13.4279 34.2409 13.4279 34.1956C13.3826 34.1048 13.632 34.0141 13.7001 34.0822ZM14.2897 33.8554C14.2897 33.81 14.2897 33.7647 14.267 33.6966C14.2443 33.6513 14.199 33.6286 14.199 33.6286C14.199 33.6513 14.1763 33.7193 14.1536 33.7873C14.1309 33.9007 14.2217 33.9461 14.2897 33.8554ZM16.7163 32.4039C17.0565 32.0864 17.1245 31.9504 16.8297 32.1318C16.7163 32.1998 16.6256 32.2452 16.6029 32.2452C16.5576 32.2452 16.3535 32.3813 15.9906 32.608C15.9452 32.6307 15.7865 32.7441 15.6277 32.8348C15.469 32.9255 15.3556 33.0389 15.3783 33.0843C15.401 33.1297 15.401 33.1297 15.3556 33.1297C15.2649 33.0616 14.8793 33.2657 14.8793 33.4018C14.8567 33.4925 14.7886 33.5152 14.6299 33.4698C14.5845 33.4698 14.5165 33.4925 14.4938 33.5379C14.4258 33.6286 14.3804 33.81 14.4485 33.742C14.4711 33.742 14.4938 33.6739 14.4938 33.6513C14.5392 33.5152 14.5392 33.4925 14.5845 33.5832C14.6299 33.6739 16.036 32.9482 16.104 32.7895C16.1267 32.7214 16.172 32.6761 16.1947 32.6988C16.3308 32.7214 16.4442 32.6534 16.7163 32.4039ZM17.442 31.9277C17.5101 31.8823 17.5554 31.837 17.5554 31.837C17.5554 31.7463 17.442 31.8143 17.3967 31.905C17.3513 31.973 17.374 31.9957 17.442 31.9277ZM18.7347 30.9071C18.7801 30.8845 18.7801 30.8391 18.7574 30.8164C18.7574 30.7938 18.5986 30.8618 18.4626 30.9752C18.3038 31.0886 18.077 31.2473 17.9183 31.338C17.7822 31.4288 17.6235 31.5648 17.5781 31.6329C17.4194 31.837 17.7142 31.7689 18.0544 31.5421C18.2131 31.4061 18.4172 31.2246 18.5079 31.1339C18.5986 31.0205 18.712 30.9298 18.7347 30.9071ZM21.819 28.3218C22.0004 28.1403 22.1365 27.9589 22.1138 27.9362C22.1138 27.9136 21.9324 28.0496 21.7283 28.2311C20.3222 29.4784 19.5738 30.1361 19.2336 30.4082C18.9615 30.6123 18.8708 30.7257 18.9388 30.7257C18.9842 30.7484 19.5058 30.3402 20.0728 29.8639C21.4335 28.73 21.4335 28.73 21.819 28.3218ZM22.8849 27.2332C23.1344 26.9384 23.2024 26.8023 22.9756 26.9837C22.7942 27.1198 22.2272 27.7775 22.2272 27.8455C22.2272 27.8909 22.4087 27.7095 22.8849 27.2332ZM23.7467 26.2353C23.8828 26.0993 23.9281 26.0086 23.7921 26.0993C23.656 26.1673 23.4065 26.4848 23.4065 26.5528C23.4065 26.5982 23.4519 26.5755 23.4972 26.5075C23.5426 26.4394 23.656 26.3261 23.7467 26.2353ZM24.223 25.623C24.4724 25.2602 24.3817 25.3055 24.1096 25.6911C23.9735 25.8725 23.9281 25.9859 23.9735 25.9405C24.0188 25.8952 24.1322 25.7591 24.223 25.623ZM42.6253 16.733C42.5119 16.8917 42.3078 17.1412 42.1717 17.2773C41.8542 17.7082 39.2462 20.3616 38.8153 20.7244C37.8854 21.4728 36.7742 22.2212 35.8444 22.6975C35.4815 22.9016 35.096 23.1057 35.0052 23.151C34.3929 23.5593 32.0343 23.9221 31.6261 23.6953C31.5354 23.6273 31.4447 23.6046 31.3993 23.6273C31.2179 23.7407 29.9706 22.6521 29.6531 22.1078C29.5397 21.9037 29.4263 21.813 29.2902 21.7903C29.0634 21.745 29.0634 21.6996 29.2675 21.5862C29.4036 21.5409 29.4263 21.4728 29.4036 21.3821C29.1995 20.6337 29.3583 19.6132 29.8572 18.5019C30.3108 17.5267 31.3086 15.9392 31.7849 15.4403C31.8983 15.3269 32.1251 15.0548 32.3292 14.828C32.8281 14.2156 33.2817 13.7848 33.4858 13.7621C33.5992 13.7167 33.8486 13.7394 34.0527 13.7848C34.2568 13.8301 34.5517 13.8981 34.7104 13.9208C35.2547 14.0569 35.6402 14.2837 36.1392 14.7826C36.7969 15.4176 37.001 15.8258 36.9329 16.3701C36.8876 16.8917 36.6835 17.3907 36.2979 17.9576C35.9124 18.5246 35.0506 19.4317 34.4836 19.8173C32.9188 20.9059 32.2611 21.2914 31.0138 21.813C30.787 21.9264 30.5829 22.0398 30.5829 22.0625C30.5829 22.3119 31.2633 22.516 31.8983 22.448C33.3497 22.3119 34.7785 21.7676 36.2299 20.8378C36.5247 20.6564 36.8195 20.4976 36.8649 20.4976C37.001 20.4976 37.3411 20.2255 37.3411 20.1348C37.3411 20.0667 37.636 19.8173 37.9535 19.5905C38.0669 19.4998 38.0895 19.4998 37.9988 19.6132C37.8174 19.84 38.0215 19.7039 38.6112 19.2276C38.9287 18.9328 39.3822 18.57 39.609 18.3885C40.0626 18.0257 40.7656 17.3907 41.1738 16.9598C41.3099 16.7783 41.6955 16.3928 41.9903 16.0753C42.3078 15.7578 42.716 15.3269 42.8974 15.1228C43.6231 14.329 43.9633 13.9435 44.0087 13.9889C44.0314 14.0115 43.8499 14.2837 43.5778 14.6012C43.1922 15.1001 43.1696 15.1228 43.4871 14.7826C43.8272 14.4198 44.054 14.329 43.8272 14.6465C43.7592 14.7146 43.7139 14.8506 43.7139 14.9187C43.7139 15.0094 43.7365 15.0094 43.8046 14.9414C44.0087 14.7826 43.8953 14.9414 43.5551 15.3496C43.3737 15.5537 43.1469 15.8939 43.0335 16.098C42.9428 16.3021 42.7613 16.5742 42.6253 16.733ZM31.2633 19.205C30.9458 19.8626 30.5829 20.7017 30.5829 20.8605C30.5829 20.8832 30.6509 20.8378 31.4447 20.2935C32.057 19.908 32.7147 19.4091 32.8508 19.273C32.8508 19.2503 33.1002 19.0462 33.3724 18.8421C33.894 18.3885 34.9372 17.3226 35.232 16.9144C35.5042 16.5289 35.7536 15.6898 35.7083 15.3723C35.6629 15.0774 35.5722 14.9867 35.1867 14.8733C34.6424 14.7373 34.2342 15.0094 33.2817 16.1887C32.4199 17.2546 31.7168 18.2978 31.2633 19.205ZM40.5162 18.6607C40.8563 18.2525 40.6522 18.4112 40.1306 19.0008C39.7678 19.4091 39.7224 19.4771 39.9719 19.2276C40.176 19.0462 40.4028 18.7967 40.5162 18.6607ZM64.9965 18.071C65.246 17.8216 65.3821 17.7308 65.3821 17.8216C65.3821 17.8669 65.2007 18.1164 64.9739 18.3885C64.7244 18.6833 64.4296 19.0916 64.3162 19.2957C64.0667 19.7492 63.8173 19.9987 62.8421 20.8378C62.5019 21.1553 62.0483 21.5862 61.8669 21.7676C61.504 22.1759 60.7783 22.7428 60.0299 23.2644C59.4629 23.6727 57.694 24.6025 57.1951 24.7839C56.3106 25.1014 55.222 25.1921 54.4963 25.0334C53.816 24.8746 53.4077 24.5344 52.8861 23.65C52.546 23.0376 52.4326 22.7882 52.3418 22.2893C52.3192 22.1985 52.3192 22.0851 52.3192 21.9491C51.0038 23.2644 49.2349 24.8293 48.237 25.5096C47.2845 26.1446 45.6743 26.8023 44.7445 26.9157C44.495 26.9384 44.2456 27.0064 44.1548 27.0745C43.9507 27.2105 42.8395 27.3012 42.4539 27.1878C41.4107 26.9611 41.0932 26.7343 40.3902 25.8498C39.9366 25.2828 39.8232 25.0787 39.6645 24.5798C39.5284 24.0809 39.5057 23.8994 39.5511 23.3325C39.6418 21.881 40.0047 20.611 40.8211 18.8194C41.3427 17.5948 41.6375 17.1185 42.522 15.8712C43.5652 14.4198 43.8147 14.1023 44.5857 13.1497C45.2207 12.3787 45.4702 12.1292 45.6063 12.1292C45.697 12.1292 45.8331 12.0612 45.8784 11.9931C46.0372 11.721 47.1711 10.8138 47.7154 10.519C48.5545 10.0881 49.6204 9.95206 50.1874 10.2242C50.5049 10.3603 50.9811 10.8819 51.0945 11.1994C51.5254 12.4014 50.1647 15.3949 48.169 17.6855C47.534 18.4339 47.2391 18.6153 46.5361 18.6607C46.0599 18.706 45.9918 18.6833 45.9011 18.5473C45.8331 18.4566 45.7197 18.3432 45.629 18.2751C45.3795 18.1391 45.1527 17.6174 45.2207 17.2773C45.2661 17.0505 45.3115 17.0051 45.5609 16.9371C45.9011 16.8464 46.4227 17.0051 46.4227 17.1639C46.4227 17.4133 46.6268 17.2773 47.3299 16.4835C48.872 14.7599 50.142 12.3787 50.142 11.2447V10.9046H49.8018C49.3709 10.9046 49.2122 10.9953 48.305 11.6303C47.0804 12.5147 44.2456 15.7351 43.4065 17.1639C43.2023 17.5494 41.955 20.0667 41.7736 20.4976C41.1386 21.9718 40.7077 24.6478 40.9798 25.2148C41.0479 25.3282 41.252 25.4869 41.4334 25.6003C41.7282 25.7364 41.887 25.7591 42.7034 25.7591C44.0868 25.7364 45.3795 25.3055 47.0124 24.3757C48.8267 23.3098 50.3461 22.0625 52.614 19.6585C52.614 19.6132 52.614 19.5678 52.614 19.5225C53.0449 19.1369 53.1356 18.9782 53.317 18.6153C53.7252 17.7989 54.6324 16.5289 55.6303 15.4176C56.1519 14.8506 56.6054 14.3971 56.6281 14.3971C56.6735 14.4198 56.6735 14.3744 56.6735 14.329C56.6735 14.2837 56.6962 14.2383 56.7415 14.261C56.7869 14.261 56.8095 14.2383 56.8095 14.193C56.8095 14.1249 56.8322 14.1023 56.9003 14.1023C56.9456 14.1023 57.0817 14.0342 57.1724 13.9662C57.3085 13.8301 57.3085 13.8301 57.127 13.9435L56.9229 14.0569L57.127 13.8755C57.3312 13.694 57.4445 13.6487 57.3765 13.7848C57.3538 13.8301 57.3538 13.8528 57.3992 13.8074C57.4219 13.7848 57.4445 13.7167 57.4445 13.694C57.4445 13.558 57.7847 13.3312 57.9888 13.3312C58.0795 13.3312 58.2383 13.2858 58.3063 13.2631C58.4424 13.1951 58.4424 13.1951 58.3063 13.3085C58.1249 13.4673 58.2156 13.5126 58.4197 13.3765C58.5785 13.2631 58.6012 13.2631 58.7599 13.4446C58.8279 13.558 58.9413 13.694 58.9867 13.7167C59.3496 14.0342 59.8485 14.7146 59.9619 15.0094C60.098 15.3496 60.0753 16.0526 59.9165 16.3248C59.8485 16.4608 59.7578 16.5742 59.7124 16.5742C59.6671 16.5742 59.5083 16.4155 59.3042 16.1887C59.0321 15.8939 58.9867 15.8032 59.0094 15.6217C59.0321 15.5083 59.0094 15.3949 58.9867 15.3723C58.964 15.3496 58.964 15.2589 59.0094 15.1682C59.0321 15.0548 59.0547 14.964 59.0547 14.9414C59.0547 14.8506 58.5785 14.8733 58.5558 14.964C58.5331 15.0094 58.2837 15.2589 57.9888 15.531C57.3538 16.0753 55.6303 18.003 55.3808 18.4566C55.2901 18.6153 55.0633 19.0008 54.8819 19.2957C53.7706 21.0873 53.2717 22.5614 53.5438 23.2644C53.6345 23.4912 53.6799 23.5139 53.952 23.5593C54.3829 23.6273 55.222 23.6046 55.5622 23.5366C55.721 23.5139 55.8344 23.5139 55.857 23.5593C55.8797 23.6727 56.7188 23.4005 57.4445 23.0603C59.8031 21.9037 61.3226 20.8378 64.2255 18.1844C64.5203 17.9349 64.8378 17.6174 64.9058 17.5267C64.9965 17.436 65.0873 17.368 65.1099 17.3907C65.1326 17.4133 65.0646 17.5267 64.9739 17.6401C64.8831 17.7308 64.7471 17.9576 64.679 18.0937C64.4749 18.4566 64.611 18.4566 64.9965 18.071ZM57.694 13.5126C57.5806 13.626 57.6033 13.626 57.762 13.5353C57.8754 13.4899 57.9208 13.4446 57.8754 13.4219C57.8301 13.3992 57.762 13.4446 57.694 13.5126ZM43.8147 14.8053C43.7693 14.8506 43.7466 14.9187 43.7693 14.9187C43.792 14.9187 43.8373 14.8506 43.9054 14.8053C43.9507 14.7373 43.9734 14.6692 43.9507 14.6692C43.9281 14.6692 43.86 14.7373 43.8147 14.8053ZM43.7013 15.0094C43.6332 14.9414 43.2931 15.3949 43.3157 15.531C43.3157 15.5764 43.4065 15.4857 43.5198 15.3269C43.6332 15.1682 43.724 15.0321 43.7013 15.0094ZM41.4107 18.3658C41.3427 18.5246 41.3427 18.57 41.3881 18.4792C41.4334 18.3885 41.6148 18.1617 41.7963 17.9576C41.955 17.7535 42.2725 17.2773 42.4993 16.8917C42.7488 16.5062 42.9756 16.098 43.0663 15.9846C43.1343 15.8712 42.9982 15.9846 42.7941 16.234C42.59 16.4835 42.4086 16.733 42.4086 16.7783C42.4086 16.8464 42.3632 16.9144 42.2952 16.9371C42.1818 16.9824 41.6148 17.8896 41.4107 18.3658ZM40.5716 20.4523C40.617 20.3616 40.5943 20.3389 40.5489 20.3616C40.5036 20.3842 40.4809 20.4523 40.4809 20.4976C40.4809 20.611 40.5263 20.5884 40.5716 20.4523ZM52.3418 21.5409C52.3418 21.4501 52.3418 21.3367 52.3645 21.2234C52.0924 21.5182 51.8202 21.7676 51.6388 21.9491C51.2986 22.2893 51.0265 22.5841 51.0265 22.6294C51.0265 22.7882 51.7749 22.1759 52.2965 21.5635C52.3192 21.5635 52.3192 21.5409 52.3418 21.5409ZM62.8194 20.0667C62.2978 20.475 61.6628 21.0192 61.7308 21.0192C61.7535 21.0192 62.0483 20.8151 62.3658 20.543C62.9555 20.0667 63.341 19.6812 62.8194 20.0667ZM61.436 21.1326C61.4133 21.11 61.3906 21.1553 61.3906 21.2007C61.3906 21.3367 61.4133 21.3367 61.4587 21.246C61.4814 21.2007 61.4814 21.1553 61.436 21.1326ZM63.2049 20.2482C63.7492 19.6585 63.8173 19.6358 62.6153 20.611C62.4112 20.7698 62.0937 21.0646 61.8896 21.246C61.7081 21.4275 61.368 21.6996 61.1638 21.881C60.9371 22.0398 60.7783 22.1985 60.7783 22.2212C60.7783 22.2666 61.6174 21.6542 62.2297 21.178C62.5019 20.9512 62.9328 20.543 63.2049 20.2482ZM63.7719 19.341C63.8626 19.273 63.9306 19.205 63.9306 19.1823C63.9306 19.1369 63.6812 19.2957 63.6358 19.3864C63.6131 19.4317 63.6585 19.4091 63.7719 19.341ZM77.1185 17.7082C77.2772 17.7082 77.2545 17.7762 77.0504 17.9576C76.937 18.0483 76.8236 18.2298 76.801 18.3432C76.801 18.4566 76.7329 18.5473 76.7103 18.5473C76.6876 18.5473 76.6422 18.57 76.6422 18.6153C76.6422 18.638 76.3701 19.0008 76.0072 19.3864C75.6444 19.7719 75.3495 20.1348 75.3495 20.1575C75.3495 20.2709 74.261 21.3141 74.1929 21.2687C74.1702 21.246 74.1249 21.2914 74.1249 21.3367C74.1249 21.6089 72.5374 22.7655 71.5849 23.1737C70.655 23.5819 70.02 23.6273 69.4077 23.3552C69.1356 23.2418 68.7727 22.9243 68.75 22.7428C68.75 22.6975 68.6593 22.5841 68.5686 22.4934C68.3191 22.2893 68.1604 21.8584 68.1604 21.3594C68.1604 20.9739 68.2738 20.2709 68.4099 20.0441C68.4325 19.976 68.5459 19.7039 68.6366 19.4317C68.9768 18.4792 69.5891 17.0732 69.884 16.5062L70.2015 15.8939L69.9747 16.0526C69.8386 16.1433 69.6118 16.3701 69.4758 16.5515C69.2943 16.8464 69.2036 16.9371 69.0222 16.9598C68.8408 17.0051 68.6366 17.1639 68.115 17.6855C67.7522 18.0483 67.3893 18.3432 67.344 18.3432C67.2986 18.3432 67.2532 18.3885 67.2532 18.4566C67.2532 18.5926 67.0038 18.9555 67.0038 18.8194C67.0038 18.7967 66.9357 18.8648 66.8677 18.9782C66.7997 19.0916 66.5275 19.4317 66.2781 19.7492C66.0059 20.0667 65.4616 20.7698 65.0307 21.3367C64.0556 22.6068 63.9195 22.7882 63.3298 23.2644C62.7402 23.786 62.5814 23.8314 62.3093 23.6727C62.1732 23.6046 62.0372 23.5139 61.9918 23.4685C61.9464 23.4005 61.8784 23.3552 61.8557 23.3552C61.765 23.3552 61.7197 23.1057 61.7877 23.0603C61.833 23.0376 61.833 22.9923 61.765 22.9469C61.3795 22.6521 61.3568 22.0625 61.7423 21.2687C61.8784 21.0192 61.9918 20.7925 62.0372 20.7925C62.1279 20.7925 62.1279 20.7925 61.9011 21.2687C61.697 21.6996 61.5609 22.3346 61.6516 22.4707C61.697 22.5387 61.7197 22.5387 61.7197 22.448C61.7197 22.38 61.7877 22.1985 61.8557 22.0171C61.9691 21.813 61.9918 21.6769 61.9691 21.5635C61.9238 21.4501 61.9691 21.3367 62.2413 20.9739C62.5361 20.543 62.6041 20.3616 62.4 20.543C62.332 20.5884 62.2866 20.5884 62.2866 20.543C62.2866 20.4976 62.3093 20.475 62.3547 20.475C62.3773 20.475 62.468 20.3389 62.5588 20.2028C62.6268 20.0441 62.7629 19.8173 62.8536 19.7039C63.0577 19.4544 63.3752 19.0008 63.5113 18.7741C63.8061 18.2978 64.4638 17.4133 64.5318 17.368C64.5772 17.3226 64.6225 17.2546 64.6225 17.1866C64.6225 17.1412 64.7813 16.8691 64.9854 16.5969C65.2122 16.3474 65.3709 16.098 65.3709 16.0753C65.3482 16.0073 65.9152 15.3269 66.6409 14.5105C67.0718 14.0569 67.344 13.8074 67.4574 13.7621C67.5481 13.7621 67.7522 13.626 67.8882 13.5126C68.2511 13.1724 68.5686 13.0817 69.0222 13.1951C69.2036 13.2405 69.4077 13.3085 69.4531 13.3765C69.4984 13.4219 69.6345 13.5353 69.7706 13.6033C69.9067 13.7167 70.0654 13.8981 70.1788 14.1476C70.2922 14.3517 70.4056 14.5331 70.4736 14.5785C70.519 14.6012 70.6324 14.7146 70.7004 14.7826C70.7911 14.8733 70.9045 14.9414 70.9499 14.9414C71.0859 14.9414 71.2447 15.3723 71.2447 15.7124C71.2447 15.9392 71.154 16.2794 71.0179 16.7103C70.8818 17.0505 70.6777 17.6401 70.5643 17.9803C70.4509 18.3432 70.1561 19.0916 69.9293 19.6812C69.4531 20.8605 69.249 21.5862 69.249 22.1305C69.249 22.4934 69.249 22.5387 69.4077 22.5614C69.6799 22.6294 70.0427 22.5614 70.5417 22.3346C71.6529 21.8357 72.5147 21.246 73.7847 20.1575C74.1249 19.84 74.3517 19.7039 74.397 19.7492C74.4197 19.7946 74.6919 19.5678 75.1001 19.1823C75.5536 18.7287 75.7577 18.57 75.7804 18.638C75.8258 18.706 75.7577 18.8194 75.6897 18.8875C75.599 18.9782 75.5536 19.0689 75.5536 19.0916C75.5763 19.0916 75.7577 18.9328 75.9845 18.7287C76.1886 18.5019 76.4154 18.3205 76.5061 18.2978C76.5742 18.2751 76.6649 18.2298 76.6876 18.1617C76.7329 17.9803 77.0278 17.7082 77.1185 17.7082ZM63.8968 18.6607C63.8741 18.6607 63.8514 18.706 63.8514 18.7287C63.8514 18.8421 63.9195 18.7967 64.0102 18.6607C64.0556 18.5926 64.0782 18.5246 64.0329 18.5019C63.9875 18.4792 63.9648 18.5019 63.9648 18.57C63.9648 18.6153 63.9422 18.6607 63.8968 18.6607ZM66.8224 18.3885C66.9131 18.5019 66.9811 18.4339 66.9357 18.2751C66.9131 18.1844 66.8904 18.1617 66.8224 18.2298C66.7543 18.2751 66.7543 18.2978 66.8224 18.3885ZM67.979 16.801C68.047 16.7103 67.7749 16.9824 67.3666 17.3907C66.709 18.071 66.0513 18.7967 66.0966 18.7967C66.1193 18.7967 66.4595 18.4112 66.8904 17.9576C67.3893 17.4133 67.6841 17.1185 67.7749 17.1185C67.8429 17.1185 67.8882 17.0958 67.8656 17.0505C67.8656 17.0051 67.9109 16.8917 67.979 16.801ZM68.7954 14.9867C68.9315 14.6239 69.0449 14.329 69.0449 14.3064C68.9995 14.2837 68.0243 15.0774 67.8656 15.2589C67.7295 15.4176 67.6161 15.4176 67.6841 15.2815C67.7068 15.2135 67.7068 15.1908 67.6388 15.2135C67.5934 15.2362 67.5707 15.3269 67.5707 15.3723C67.5707 15.5083 67.3213 15.8032 66.5502 16.6423C66.3007 16.8917 65.8472 17.4587 65.5297 17.8896C65.1895 18.3432 64.872 18.7514 64.8266 18.8194C64.5998 19.0689 63.5113 20.9285 63.5113 21.0646C63.5113 21.178 63.6473 21.0419 64.2823 20.2935C65.4843 18.8421 65.7565 18.5473 65.7791 18.8194C65.7791 18.8648 65.8018 18.8421 65.8245 18.7741C65.8698 18.706 65.8698 18.6153 65.8245 18.57C65.8018 18.5246 66.0286 18.2298 66.4141 17.7989C66.9811 17.1866 67.0718 17.0958 67.2306 17.1185C67.3893 17.1412 67.3893 17.1185 67.3213 17.0278C67.2306 16.9371 67.2986 16.8464 67.8656 16.2794C68.4779 15.6444 68.5459 15.5537 68.7954 14.9867ZM99.1483 20.9285C99.3297 20.611 99.3751 20.611 99.4431 20.9059C99.5112 21.1553 99.4431 21.3367 99.3071 21.3367C99.2163 21.3594 99.2163 21.3367 99.2844 21.2234C99.3524 21.11 99.3524 21.11 99.2617 21.1553C99.2163 21.2007 99.103 21.3141 98.9896 21.4048C98.8308 21.5862 98.6494 21.7223 97.7422 22.448C97.5154 22.6294 97.2887 22.8335 97.2206 22.9016C97.1526 22.9696 96.9485 23.151 96.7897 23.2871C96.4722 23.5139 94.726 24.988 94.4085 25.2602C94.3404 25.3509 94.0456 25.5777 93.7508 25.8044C93.4786 26.0086 93.2745 26.2353 93.2745 26.2807C93.2972 26.3261 93.2519 26.3487 93.2065 26.3261C93.1385 26.3034 93.1158 26.3261 93.1611 26.4168C93.1838 26.4621 93.1838 26.5302 93.1385 26.5302C93.0931 26.5302 93.0704 26.5075 93.0704 26.4621C93.0477 26.4168 92.821 26.5528 92.5715 26.7796C92.2994 26.9837 92.0726 27.1878 92.0952 27.2332C92.1179 27.2786 92.0726 27.3012 92.0045 27.2786C91.9365 27.2786 91.8231 27.3466 91.7324 27.4373C91.6643 27.528 91.6417 27.5734 91.6643 27.5507C91.8458 27.4146 91.7324 27.5734 91.4829 27.7775C91.3468 27.9136 91.2335 28.027 91.2561 28.0496C91.3015 28.0723 92.2086 27.2786 92.2313 27.2105C92.2313 27.1652 92.322 27.0745 92.4127 27.0064C92.5715 26.893 92.5715 26.893 92.5488 27.0518C92.5488 27.1198 92.3901 27.3239 92.2086 27.46C92.0045 27.6187 91.9138 27.7321 91.9592 27.7775C92.0045 27.8228 92.2086 27.6868 92.5261 27.46C92.7983 27.2559 93.2065 26.9384 93.4106 26.7796C94.6806 25.8952 95.5424 25.2375 95.5651 25.1694C95.6104 25.0561 96.064 24.7159 96.0867 24.7612C96.2228 24.8746 95.3383 25.7364 93.7054 27.0064C93.2972 27.3466 92.821 27.7321 92.6622 27.8682C91.4829 28.9341 88.8975 30.4989 88.0584 30.6804C87.2193 30.8391 86.7884 30.9071 86.6524 30.8618C86.5843 30.8391 86.4483 30.8164 86.3802 30.8164C86.1988 30.8391 85.3597 30.2041 85.1329 29.8639C85.0422 29.7279 84.9061 29.5464 84.8381 29.4784C84.4299 29.0475 84.1124 27.7548 84.1804 26.7343C84.2257 26.0993 84.4299 24.8293 84.5886 24.1943C84.634 24.0128 84.702 23.718 84.7474 23.5819C84.9515 22.7882 86.0174 19.6132 86.4709 18.4339C86.6524 17.9576 86.9472 17.1412 87.1513 16.6196C87.3554 16.098 87.6275 15.4176 87.7636 15.1228C87.877 14.8053 88.1718 14.1476 88.3759 13.626C88.58 13.1044 88.7842 12.6055 88.8295 12.5374C88.8749 12.4694 88.9429 12.356 88.9656 12.288C89.0109 12.1746 89.2151 11.6983 89.782 10.4283C89.9181 10.0881 90.0768 9.81599 90.1222 9.81599C90.1449 9.81599 90.1676 9.74795 90.1676 9.70259C90.1676 9.65724 90.6211 8.70473 91.1881 7.59348C92.1633 5.68847 92.2086 5.59775 92.1406 5.34829C92.0499 5.07614 92.1633 4.69061 92.5488 3.94221C92.9117 3.28453 94.1817 1.53827 94.5899 1.19809C94.6806 1.10738 95.2476 1.37952 95.4744 1.62899C95.6785 1.83309 95.6785 1.85577 95.5651 1.96917C95.4744 2.05988 95.4744 2.08256 95.5651 2.12792C95.6104 2.17327 95.7238 2.19595 95.7919 2.17327C95.8826 2.17327 95.9506 2.19595 95.996 2.24131C96.0413 2.33203 95.7011 2.94435 95.5878 2.89899C95.5197 2.87631 95.5197 2.92167 95.5651 3.03506C95.6104 3.12578 95.5424 3.28453 95.3156 3.64739C94.5445 4.96275 93.5013 6.84508 92.5942 8.61402C92.2994 9.20366 92.0272 9.74795 91.9818 9.79331C91.9365 9.83866 91.7777 10.1788 91.5963 10.5644C91.4149 10.9726 91.2108 11.3808 91.1427 11.4942C91.052 11.6076 91.0067 11.721 91.0067 11.7437C91.0067 11.7664 90.9386 11.9024 90.8706 12.0385C90.8026 12.1746 90.7572 12.3333 90.7572 12.3787C90.7572 12.424 90.5531 12.8776 90.2809 13.3765C90.0315 13.8755 89.7593 14.4424 89.6913 14.6465C89.5552 15.0321 89.1697 16.0073 89.1017 16.1433C88.8522 16.5515 88.6934 16.9144 88.58 17.3226C88.444 17.7762 88.0811 18.8421 87.809 19.5678C87.7409 19.7039 87.6502 19.908 87.6049 20.0214C87.5368 20.1121 87.4915 20.2255 87.4915 20.2709C87.4915 20.3162 87.4234 20.5884 87.31 20.8605C87.1966 21.1326 87.1059 21.4501 87.0833 21.5409C87.0833 21.6542 86.9699 21.9491 86.8565 22.2212C86.7431 22.4934 86.6297 22.8562 86.607 22.9923C86.5843 23.151 86.4483 23.65 86.2895 24.1262C86.1534 24.6025 86.0174 25.0561 86.04 25.1014C86.04 25.1694 86.0174 25.2828 85.9947 25.3736C85.904 25.6684 85.6999 26.7116 85.6545 27.2332C85.5411 28.4579 85.6318 29.3196 85.904 29.5691C86.1081 29.7505 86.9699 29.5464 88.0131 29.0702C88.6708 28.7527 88.9202 28.5939 89.9408 27.8455C90.349 27.5507 90.7572 27.2786 90.8026 27.2786C90.8706 27.2786 90.9386 27.2105 90.984 27.1425C91.0293 27.0518 91.3922 26.757 91.8004 26.4621C92.7076 25.7591 93.2745 25.3282 93.3426 25.2602C93.3652 25.2148 93.7281 24.9427 94.1136 24.6478C94.5219 24.353 94.9301 24.0128 95.0661 23.8768C95.2022 23.7634 95.4517 23.5366 95.6331 23.4005C95.8372 23.2644 95.996 23.1284 95.996 23.1057C95.9733 23.083 96.0187 23.0376 96.0867 22.9923C96.132 22.9696 96.2454 22.9016 96.3135 22.8335C96.4042 22.7428 96.6537 22.5387 97.0165 22.2212C97.0845 22.1532 97.4701 21.813 97.901 21.4275C98.7174 20.6791 98.8081 20.611 98.8308 20.7244C98.8308 20.7925 98.4679 21.1553 97.3113 22.2212C97.1299 22.4026 96.8804 22.6068 96.7444 22.6975C96.6083 22.7882 96.4269 22.9469 96.3135 23.0603C96.2228 23.151 96.1094 23.2418 96.064 23.2418C96.0413 23.2644 95.996 23.2871 96.0187 23.3325C96.0187 23.3778 95.9733 23.4232 95.9279 23.4232C95.8599 23.4232 95.7692 23.5366 95.6785 23.6727C95.5878 23.8087 95.4744 23.9221 95.3836 23.9221C95.2929 23.9221 95.1115 24.0582 94.9754 24.1943C94.8394 24.3303 94.7033 24.4437 94.6806 24.4437C94.6579 24.4437 94.5445 24.5571 94.3858 24.6705C94.2724 24.7839 93.9095 25.0561 93.6147 25.2828C93.3199 25.4869 93.1158 25.6684 93.1385 25.6911C93.1385 25.7137 93.2972 25.6457 93.456 25.5096C93.6374 25.3736 93.8188 25.2828 93.8869 25.2602C93.9549 25.2602 94.0229 25.2148 94.0456 25.1694C94.0683 25.1468 94.4085 24.8973 94.7486 24.6252C95.5424 24.0128 97.2887 22.5841 97.5381 22.3346C97.6515 22.2212 97.8556 22.0398 98.0144 21.9264C98.1958 21.813 98.3319 21.6996 98.3546 21.6769C98.4453 21.5409 98.8535 21.178 98.9215 21.178C98.9669 21.1553 99.0803 21.0419 99.1483 20.9285ZM84.5432 27.0745C84.5432 26.9157 84.5206 26.8477 84.4979 26.8703C84.4525 26.9157 84.4525 27.0291 84.4525 27.1652C84.4979 27.4373 84.5206 27.392 84.5432 27.0745ZM85.6545 25.2602C85.6545 25.2148 85.6545 25.1468 85.6318 25.1241C85.6091 25.1014 85.5865 25.1468 85.6091 25.2148C85.6091 25.3055 85.6318 25.3055 85.6545 25.2602ZM85.5638 24.5344C85.5411 24.6932 85.5411 24.6705 85.6318 24.4664C85.6999 24.353 85.7452 24.2169 85.7452 24.1716C85.7452 24.1489 85.6999 24.1489 85.6545 24.1943C85.6091 24.2396 85.5638 24.285 85.5184 24.285C85.4957 24.3077 85.4504 24.353 85.4504 24.3984C85.4277 24.4437 85.4731 24.4437 85.4957 24.421C85.5638 24.3757 85.5638 24.3984 85.5638 24.5344ZM85.7906 24.6705C85.8359 24.6478 85.8586 24.5798 85.8359 24.5571C85.8359 24.5118 85.8133 24.4891 85.7679 24.5344C85.7452 24.5571 85.7225 24.6252 85.7225 24.6478C85.7225 24.6932 85.7679 24.6932 85.7906 24.6705ZM85.7906 23.9902C85.8359 23.9448 85.8359 23.8768 85.8133 23.8541C85.7906 23.8314 85.7679 23.8994 85.7452 23.9675C85.7225 24.0582 85.7225 24.0809 85.7906 23.9902ZM86.1308 22.9469C86.2441 22.5387 86.3575 22.1985 86.3349 22.1759C86.2895 22.1532 85.8133 23.6273 85.8133 23.718C85.8359 23.8314 85.8813 23.6953 86.1308 22.9469ZM86.4029 21.9037C86.4029 21.9718 86.6524 21.3594 86.6524 21.2914C86.6297 21.2687 86.6297 21.246 86.607 21.246C86.5616 21.246 86.3802 21.813 86.4029 21.9037ZM87.1513 20.4523C87.1966 20.3162 87.2193 20.2255 87.1966 20.2255C87.1513 20.2255 86.8791 20.9966 86.8791 21.0873C86.8791 21.178 87.0379 20.8378 87.1513 20.4523ZM87.2874 20.0894C87.31 20.0667 87.3327 20.0214 87.3327 19.976C87.3327 19.9307 87.31 19.9307 87.2647 19.9534C87.242 19.976 87.2193 20.0441 87.2193 20.0667C87.2193 20.1121 87.242 20.1348 87.2874 20.0894ZM87.5368 19.4317C87.6956 19.0462 87.7183 18.9328 87.6275 19.0235C87.5595 19.0689 87.31 19.7492 87.31 19.8173C87.3327 19.8853 87.4008 19.7946 87.5368 19.4317ZM87.7863 18.706C87.8317 18.638 87.8317 18.5926 87.809 18.57C87.7863 18.5473 87.7636 18.5926 87.7409 18.6607C87.7183 18.7741 87.7183 18.7741 87.7863 18.706ZM88.1718 17.7082C88.2172 17.6855 88.2399 17.6401 88.2399 17.5948C88.2172 17.5494 88.1945 17.5494 88.1718 17.5721C88.1265 17.5948 88.1038 17.6628 88.1265 17.7082C88.1265 17.7308 88.1492 17.7535 88.1718 17.7082ZM88.58 16.0753C88.6481 15.9619 88.6708 15.8485 88.6254 15.8485C88.58 15.8712 88.1492 16.9144 88.1718 17.0278C88.1718 17.0732 88.2399 16.9598 88.3306 16.7557C88.4213 16.5515 88.4893 16.3701 88.4893 16.3474C88.4893 16.3248 88.512 16.2114 88.58 16.0753ZM88.9202 15.7578C88.9883 15.6671 89.0336 15.5537 89.0336 15.5083C89.0109 15.3949 88.9656 15.463 88.8975 15.7124L88.8295 15.9619L88.9202 15.7578ZM88.9202 15.3496C89.0109 15.1001 89.079 14.896 89.0563 14.8733C89.0336 14.8506 88.6708 15.6444 88.6708 15.7351C88.6934 15.8485 88.7388 15.7578 88.9202 15.3496ZM89.6686 14.193C89.6913 14.1476 89.8047 13.7621 89.8047 13.694C89.8047 13.6487 89.6913 13.8528 89.5779 14.1023C89.4645 14.3517 89.3965 14.6239 89.3965 14.6692C89.3965 14.7373 89.4645 14.6692 89.5099 14.5105C89.5779 14.3517 89.6459 14.2156 89.6686 14.193ZM90.4397 11.6756C90.5077 11.5849 90.5304 11.5169 90.5077 11.4942C90.5077 11.4715 90.4624 11.5396 90.417 11.6303C90.349 11.8117 90.349 11.8117 90.4397 11.6756ZM91.3242 9.9067C91.3922 9.67991 91.3242 9.72527 91.2335 9.95206C91.1654 10.0655 91.1654 10.1335 91.1881 10.0881C91.2335 10.0655 91.2788 9.97474 91.3242 9.9067ZM90.7799 9.2717C90.7572 9.29438 90.7345 9.33973 90.7345 9.38509C90.7572 9.47581 90.8026 9.45313 90.8252 9.31705C90.8252 9.24902 90.8252 9.22634 90.7799 9.2717ZM90.5304 9.81599C90.4851 9.83866 90.4624 9.88402 90.4851 9.92938C90.4851 9.97474 90.5077 9.97474 90.5531 9.95206C90.5758 9.92938 90.5984 9.86134 90.5984 9.81599C90.5984 9.79331 90.5531 9.77063 90.5304 9.81599ZM90.1676 10.4963C89.9408 10.8819 89.8727 11.086 89.9634 11.086C89.9861 11.0633 90.0088 11.0406 90.0088 11.018C90.0088 10.9726 90.0995 10.7685 90.1902 10.5644L90.3717 10.1788L90.1676 10.4963ZM89.7367 11.4035C89.6913 11.5169 89.6913 11.5622 89.7367 11.5169C89.782 11.4715 89.8274 11.3808 89.8501 11.2901C89.8954 11.1767 89.8954 11.154 89.8501 11.1994C89.8047 11.2221 89.7593 11.3355 89.7367 11.4035ZM88.3759 14.6239C87.7636 15.7578 87.6275 16.0753 87.7409 16.1433C87.809 16.166 88.1265 15.5537 88.3079 15.0321C88.4213 14.6692 88.7388 14.1023 88.7615 14.2156C88.7615 14.261 88.7388 14.329 88.7161 14.3517C88.6708 14.3744 88.6708 14.4198 88.6934 14.4651C88.7161 14.4878 88.6934 14.5331 88.6708 14.5785C88.6254 14.6012 88.6254 14.6919 88.6254 14.7599C88.6254 14.828 88.6027 14.9414 88.5347 15.0094C88.4893 15.0548 88.3986 15.2362 88.3533 15.3949C88.3079 15.5537 88.2399 15.6898 88.2172 15.6898C88.1265 15.6898 87.8997 16.3248 87.9224 16.4835C87.9224 16.6196 87.945 16.6196 88.0584 16.4155C88.1265 16.2567 88.1718 16.2114 88.2172 16.2794C88.2625 16.3474 88.3079 16.3021 88.3759 16.1207C88.4667 15.8712 88.9202 14.8053 89.1243 14.3971C89.1697 14.261 89.2377 14.193 89.2604 14.193C89.2831 14.2156 89.2604 14.3064 89.2151 14.3517C89.1924 14.4198 89.1697 14.4878 89.1924 14.5105C89.2377 14.5558 89.8047 13.3085 90.1222 12.5147C90.3036 12.0158 90.1676 12.1972 89.9181 12.7642C89.6459 13.3765 89.3738 13.9435 89.3284 14.0115C89.2831 14.0796 89.4645 13.5353 89.5326 13.3992C89.5779 13.3312 89.6233 13.2178 89.6459 13.1044C89.6459 12.991 89.5099 13.2631 89.3058 13.694C89.1017 14.1249 88.8975 14.5785 88.8295 14.7146C88.7161 14.9187 88.7161 14.9187 88.7615 14.7373C88.8975 14.3064 89.5552 12.9003 89.6233 12.8776C89.6686 12.8776 89.714 12.8322 89.7367 12.7869C89.7593 12.7189 89.7367 12.7189 89.714 12.7642C89.6686 12.7869 89.6459 12.8096 89.6233 12.7642C89.6233 12.6962 90.0542 11.789 90.1449 11.7437C90.1902 11.721 90.2129 11.6756 90.1676 11.6303C90.0995 11.5396 90.349 11.1087 90.4397 11.154C90.4851 11.154 90.5531 11.1313 90.5758 11.086C90.5984 11.0406 90.6211 11.018 90.6665 11.0406C90.7118 11.0633 91.052 10.519 91.1201 10.2922C91.1654 10.1562 90.9613 10.519 90.8026 10.7912C90.6665 11.1087 90.6211 10.9953 90.7572 10.6551C90.8479 10.4056 90.8479 10.383 90.7572 10.519C90.7118 10.6324 90.6211 10.7912 90.5531 10.9046C90.5077 11.018 90.4397 11.086 90.417 11.086C90.3717 11.018 90.7799 10.2469 90.8479 10.2696C90.9386 10.2696 91.3468 9.52116 91.3242 9.36241C91.3015 9.29438 91.3468 9.22634 91.3695 9.22634C91.4149 9.22634 91.4149 9.1583 91.4149 9.09027C91.4149 8.99955 91.4602 8.86348 91.5283 8.77277C91.5963 8.68205 91.687 8.5233 91.7324 8.43259C91.7777 8.31919 91.9138 8.00169 92.0499 7.68419C92.2086 7.38937 92.2994 7.11722 92.2767 7.09455C92.2313 7.07187 91.7551 7.84294 91.4602 8.43259C91.3242 8.70473 91.2788 8.86348 91.3015 8.9542C91.3468 9.04491 91.3242 9.09027 91.2335 9.09027C91.1654 9.11295 91.0974 9.18098 91.0747 9.2717C91.052 9.36241 91.0293 9.49848 90.9613 9.56652C90.7345 9.95206 89.8954 11.6983 89.9181 11.789C89.9181 11.8344 89.8727 11.9024 89.782 11.9024C89.6913 11.9251 89.6686 11.9024 89.6913 11.7437C89.714 11.6076 89.714 11.6076 89.6006 11.721C89.5099 11.8117 88.9883 12.923 89.0109 12.991C89.0109 13.059 89.1697 12.991 89.2604 12.8776C89.3511 12.7642 89.3511 12.7642 89.3511 12.9456C89.3284 13.059 89.3058 13.1497 89.2831 13.1497C89.2377 13.1497 89.2377 13.1951 89.2377 13.2405C89.2377 13.3765 89.1017 13.6487 89.0336 13.5806C89.0109 13.558 89.0336 13.4446 89.079 13.3539C89.1243 13.2405 89.147 13.1271 89.1243 13.1044C89.0563 13.0364 88.6481 13.694 88.6254 13.8981C88.6027 14.0115 88.58 14.1023 88.5574 14.1023C88.512 14.1023 88.4893 14.193 88.4893 14.3064C88.4667 14.3971 88.4213 14.5558 88.3759 14.6239ZM87.6275 16.4608C87.5822 16.5289 87.5368 16.6423 87.5595 16.6649C87.5595 16.7103 87.5822 16.6876 87.6275 16.5969C87.6729 16.5062 87.6956 16.4155 87.6956 16.3701C87.6956 16.3248 87.6502 16.3701 87.6275 16.4608ZM86.7204 18.7967C86.6297 18.7967 86.4709 19.2957 86.539 19.3637C86.5616 19.3864 86.5843 19.3637 86.607 19.2957C86.607 19.205 86.675 19.0462 86.7658 18.9101C86.9472 18.6607 86.9472 18.5246 86.8338 18.4566C86.8111 18.4339 86.7884 18.5019 86.7884 18.5926C86.8111 18.706 86.7658 18.7967 86.7204 18.7967ZM86.4483 19.5225C86.3575 19.5905 86.3802 19.6358 86.4483 19.6358C86.4936 19.6358 86.5163 19.5905 86.5163 19.5451C86.5163 19.5225 86.4709 19.4998 86.4483 19.5225ZM86.3575 19.8626C86.3122 19.8853 86.2895 19.908 86.2895 19.9534C86.3122 19.976 86.3349 20.0214 86.3802 20.0214C86.4029 20.0214 86.4256 19.976 86.4256 19.9307C86.4256 19.8853 86.3802 19.8626 86.3575 19.8626ZM85.8813 20.4976C85.8586 20.5884 85.8586 20.611 85.9266 20.5203C85.9493 20.475 85.972 20.4069 85.9493 20.3842C85.9266 20.3616 85.904 20.4069 85.8813 20.4976ZM85.8586 20.6791C85.8586 20.611 85.3597 22.0398 85.3824 22.1078C85.3824 22.1985 85.5411 21.7903 85.6999 21.2687C85.7906 20.9739 85.8586 20.7017 85.8586 20.6791ZM84.702 25.1014C84.6793 25.3282 84.77 25.1694 84.8381 24.92C84.8607 24.7839 84.8607 24.6252 84.8607 24.6252C84.8154 24.5798 84.7927 24.6932 84.702 25.1014ZM84.5886 25.7364L84.5659 25.9178L84.634 25.7137C84.6793 25.623 84.702 25.4869 84.702 25.4189C84.702 25.3282 84.702 25.3282 84.6566 25.4189C84.634 25.4869 84.6113 25.623 84.5886 25.7364ZM84.9741 27.3239C84.9741 27.2559 84.9741 27.1878 84.9515 27.1878C84.9288 27.1652 84.9061 27.2105 84.9288 27.2786C84.9288 27.3693 84.9515 27.392 84.9741 27.3239ZM84.8607 26.4621C84.9968 25.4643 85.5411 23.3098 85.6545 23.3778C85.6772 23.3778 85.6772 23.5139 85.6318 23.6727C85.4957 24.2396 85.6545 23.8768 85.972 22.8335C86.2895 21.8584 86.8565 20.1801 87.0379 19.7266C87.0833 19.6358 87.1286 19.5678 87.1513 19.5905C87.174 19.6132 87.1513 19.6812 87.1286 19.7266C87.0379 19.908 86.6297 21.11 86.6524 21.1326C86.675 21.1553 86.7884 20.8605 87.0606 20.1575C87.3554 19.3183 87.4234 19.0689 87.3781 18.9782C87.3327 18.8648 87.5595 18.1164 87.6502 18.0937C87.6956 18.0937 87.6502 18.2751 87.5822 18.5019C87.4008 19.0462 87.4008 19.0689 87.4915 18.9328C87.5595 18.8875 87.5822 18.7967 87.5822 18.7741C87.5822 18.7287 87.6729 18.4792 87.7863 18.2071C87.8997 17.9349 87.9904 17.6855 87.9677 17.6401C87.9677 17.6174 88.0131 17.5267 88.0584 17.4587C88.1265 17.368 88.1265 17.2999 88.1038 17.2546C88.0811 17.2319 88.0358 17.2773 88.0131 17.3226C87.8997 17.5721 87.945 17.3226 88.0584 16.9598C88.1945 16.5515 88.1718 16.4835 87.9904 16.7557C87.9224 16.8917 87.8997 16.9144 87.8997 16.801C87.945 16.5515 87.7636 16.7103 87.6729 17.0051C87.5822 17.2999 87.4461 17.4587 87.4234 17.2999C87.4234 17.2319 87.4461 17.1412 87.4915 17.0958C87.5595 17.0051 87.5595 16.9598 87.5142 16.9144C87.4234 16.8237 87.2647 17.0732 87.1059 17.6401C87.0379 17.8442 86.9472 18.0483 86.9245 18.071C86.8565 18.1391 86.9018 18.4792 86.9699 18.4792C87.0152 18.4792 87.0379 18.4112 87.0152 18.3658C87.0152 18.2525 87.1286 18.0257 87.2193 18.003C87.2193 18.003 87.242 18.0483 87.242 18.1164C87.2647 18.1617 87.242 18.2298 87.1966 18.2298C87.174 18.2298 87.1513 18.2751 87.1513 18.3205C87.1966 18.4339 86.9472 19.0916 86.7658 19.3637C86.6977 19.4771 86.6524 19.6132 86.6524 19.7039C86.675 19.7719 86.6524 19.84 86.6297 19.84C86.5843 19.84 86.4936 20.0667 86.4256 20.3389C86.3575 20.611 86.2895 20.8378 86.2441 20.8378C86.2215 20.8378 86.1988 20.9059 86.2215 20.9739C86.2215 21.0419 86.1761 21.178 86.1308 21.2687C86.0174 21.4048 85.9947 21.4048 85.9947 21.246C85.972 21.1553 85.9947 21.0873 86.04 21.0419C86.0627 21.0192 86.0854 20.9512 86.0854 20.8832C86.0627 20.8378 86.1308 20.6337 86.1988 20.475C86.3349 20.1348 86.3349 20.0894 86.2668 20.0894C86.2441 20.1121 86.0854 20.4523 85.9493 20.8832C85.8133 21.3141 85.6999 21.7223 85.6545 21.7903C85.6545 21.8584 85.6091 21.9944 85.5638 22.1305C85.4957 22.448 85.3824 22.8109 85.337 22.8562C85.2463 22.9243 84.8381 24.3757 84.8834 24.4664C84.9061 24.5118 84.9515 24.4437 84.9968 24.3077C85.0422 24.1716 85.1102 24.0582 85.1329 24.0355C85.2009 24.0355 85.1782 24.1035 85.0649 24.6705C85.0195 24.8293 84.9968 24.9427 85.0195 24.9427C85.0422 24.9427 85.0422 24.988 85.0195 25.0334C84.9741 25.1014 84.9288 25.3282 84.8834 25.5777C84.702 26.5982 84.634 27.0971 84.702 27.528L84.7474 27.9589L84.77 27.4373C84.7927 27.1425 84.8154 26.7116 84.8607 26.4621ZM86.8791 19.7946C86.6977 20.2482 86.5616 20.543 86.5843 20.4523C86.607 20.2255 87.1513 18.7514 87.2193 18.7514C87.2874 18.7287 87.2193 18.9328 86.8791 19.7946ZM93.3652 26.258C93.3426 26.19 93.7281 25.9405 93.7508 25.9632C93.7735 25.9859 93.7054 26.0766 93.6147 26.1446C93.4333 26.2807 93.3652 26.3034 93.3652 26.258ZM98.2865 22.7882C98.2638 22.7201 98.6721 22.1305 98.7174 22.1759C98.7628 22.2212 98.536 22.6748 98.3999 22.7655C98.3319 22.8109 98.2865 22.8335 98.2865 22.7882ZM98.0824 22.8335C98.1504 22.7882 98.1504 22.8109 98.0824 22.9243C98.0371 23.015 97.9917 23.1057 97.9917 23.151C98.0144 23.2191 97.7196 23.5819 97.6515 23.6046C97.6062 23.6046 97.5835 23.5819 97.5835 23.5366C97.5835 23.4685 97.969 22.9469 98.0824 22.8335ZM112.377 17.7082C112.535 17.7082 112.513 17.7762 112.309 17.9576C112.195 18.0483 112.082 18.2298 112.059 18.3432C112.059 18.4566 111.991 18.5473 111.968 18.5473C111.946 18.5473 111.9 18.57 111.9 18.6153C111.9 18.638 111.628 19.0008 111.265 19.3864C110.903 19.7719 110.608 20.1348 110.608 20.1575C110.608 20.2709 109.519 21.3141 109.451 21.2687C109.428 21.246 109.383 21.2914 109.383 21.3367C109.383 21.6089 107.796 22.7655 106.843 23.1737C105.913 23.5819 105.278 23.6273 104.666 23.3552C104.394 23.2418 104.031 22.9243 104.008 22.7428C104.008 22.6975 103.918 22.5841 103.827 22.4934C103.577 22.2893 103.419 21.8584 103.419 21.3594C103.419 20.9739 103.532 20.2709 103.668 20.0441C103.691 19.976 103.804 19.7039 103.895 19.4317C104.235 18.4792 104.847 17.0732 105.142 16.5062L105.46 15.8939L105.233 16.0526C105.097 16.1433 104.87 16.3701 104.734 16.5515C104.553 16.8464 104.462 16.9371 104.28 16.9598C104.099 17.0051 103.895 17.1639 103.373 17.6855C103.01 18.0483 102.648 18.3432 102.602 18.3432C102.557 18.3432 102.511 18.3885 102.511 18.4566C102.511 18.5926 102.262 18.9555 102.262 18.8194C102.262 18.7967 102.194 18.8648 102.126 18.9782C102.058 19.0916 101.786 19.4317 101.536 19.7492C101.264 20.0667 100.72 20.7698 100.289 21.3367C99.3138 22.6068 99.1777 22.7882 98.5881 23.2644C97.9984 23.786 97.8397 23.8314 97.5675 23.6727C97.4315 23.6046 97.2954 23.5139 97.25 23.4685C97.2047 23.4005 97.1366 23.3552 97.114 23.3552C97.0232 23.3552 96.9779 23.1057 97.0459 23.0603C97.0913 23.0376 97.0913 22.9923 97.0232 22.9469C96.6377 22.6521 96.615 22.0625 97.0006 21.2687C97.1366 21.0192 97.25 20.7925 97.2954 20.7925C97.3861 20.7925 97.3861 20.7925 97.1593 21.2687C96.9552 21.6996 96.8191 22.3346 96.9099 22.4707C96.9552 22.5387 96.9779 22.5387 96.9779 22.448C96.9779 22.38 97.0459 22.1985 97.114 22.0171C97.2274 21.813 97.25 21.6769 97.2274 21.5635C97.182 21.4501 97.2274 21.3367 97.4995 20.9739C97.7943 20.543 97.8624 20.3616 97.6583 20.543C97.5902 20.5884 97.5449 20.5884 97.5449 20.543C97.5449 20.4976 97.5675 20.475 97.6129 20.475C97.6356 20.475 97.7263 20.3389 97.817 20.2028C97.885 20.0441 98.0211 19.8173 98.1118 19.7039C98.3159 19.4544 98.6334 19.0008 98.7695 18.7741C99.0643 18.2978 99.722 17.4133 99.79 17.368C99.8354 17.3226 99.8808 17.2546 99.8808 17.1866C99.8808 17.1412 100.04 16.8691 100.244 16.5969C100.47 16.3474 100.629 16.098 100.629 16.0753C100.606 16.0073 101.173 15.3269 101.899 14.5105C102.33 14.0569 102.602 13.8074 102.716 13.7621C102.806 13.7621 103.01 13.626 103.146 13.5126C103.509 13.1724 103.827 13.0817 104.28 13.1951C104.462 13.2405 104.666 13.3085 104.711 13.3765C104.757 13.4219 104.893 13.5353 105.029 13.6033C105.165 13.7167 105.324 13.8981 105.437 14.1476C105.55 14.3517 105.664 14.5331 105.732 14.5785C105.777 14.6012 105.891 14.7146 105.959 14.7826C106.049 14.8733 106.163 14.9414 106.208 14.9414C106.344 14.9414 106.503 15.3723 106.503 15.7124C106.503 15.9392 106.412 16.2794 106.276 16.7103C106.14 17.0505 105.936 17.6401 105.823 17.9803C105.709 18.3432 105.414 19.0916 105.188 19.6812C104.711 20.8605 104.507 21.5862 104.507 22.1305C104.507 22.4934 104.507 22.5387 104.666 22.5614C104.938 22.6294 105.301 22.5614 105.8 22.3346C106.911 21.8357 107.773 21.246 109.043 20.1575C109.383 19.84 109.61 19.7039 109.655 19.7492C109.678 19.7946 109.95 19.5678 110.358 19.1823C110.812 18.7287 111.016 18.57 111.039 18.638C111.084 18.706 111.016 18.8194 110.948 18.8875C110.857 18.9782 110.812 19.0689 110.812 19.0916C110.835 19.0916 111.016 18.9328 111.243 18.7287C111.447 18.5019 111.674 18.3205 111.764 18.2978C111.832 18.2751 111.923 18.2298 111.946 18.1617C111.991 17.9803 112.286 17.7082 112.377 17.7082ZM99.155 18.6607C99.1324 18.6607 99.1097 18.706 99.1097 18.7287C99.1097 18.8421 99.1777 18.7967 99.2684 18.6607C99.3138 18.5926 99.3365 18.5246 99.2911 18.5019C99.2458 18.4792 99.2231 18.5019 99.2231 18.57C99.2231 18.6153 99.2004 18.6607 99.155 18.6607ZM102.081 18.3885C102.171 18.5019 102.239 18.4339 102.194 18.2751C102.171 18.1844 102.149 18.1617 102.081 18.2298C102.013 18.2751 102.013 18.2978 102.081 18.3885ZM103.237 16.801C103.305 16.7103 103.033 16.9824 102.625 17.3907C101.967 18.071 101.31 18.7967 101.355 18.7967C101.378 18.7967 101.718 18.4112 102.149 17.9576C102.648 17.4133 102.942 17.1185 103.033 17.1185C103.101 17.1185 103.146 17.0958 103.124 17.0505C103.124 17.0051 103.169 16.8917 103.237 16.801ZM104.054 14.9867C104.19 14.6239 104.303 14.329 104.303 14.3064C104.258 14.2837 103.283 15.0774 103.124 15.2589C102.988 15.4176 102.874 15.4176 102.942 15.2815C102.965 15.2135 102.965 15.1908 102.897 15.2135C102.852 15.2362 102.829 15.3269 102.829 15.3723C102.829 15.5083 102.58 15.8032 101.808 16.6423C101.559 16.8917 101.105 17.4587 100.788 17.8896C100.448 18.3432 100.13 18.7514 100.085 18.8194C99.8581 19.0689 98.7695 20.9285 98.7695 21.0646C98.7695 21.178 98.9056 21.0419 99.5406 20.2935C100.743 18.8421 101.015 18.5473 101.037 18.8194C101.037 18.8648 101.06 18.8421 101.083 18.7741C101.128 18.706 101.128 18.6153 101.083 18.57C101.06 18.5246 101.287 18.2298 101.672 17.7989C102.239 17.1866 102.33 17.0958 102.489 17.1185C102.648 17.1412 102.648 17.1185 102.58 17.0278C102.489 16.9371 102.557 16.8464 103.124 16.2794C103.736 15.6444 103.804 15.5537 104.054 14.9867ZM126.732 18.4112C127.05 18.6153 126.846 18.6833 126.12 18.6607C125.508 18.638 125.394 18.6607 124.601 18.9328C122.832 19.5905 119.838 21.178 119.725 21.5409C119.679 21.6316 119.566 22.0398 119.452 22.448C118.545 25.7818 117.139 29.3877 115.62 32.3586C114.259 34.9666 112.921 36.849 111.265 38.5045C110.653 39.1168 108.952 40.5909 108.363 41.0218C107.433 41.6795 107.365 41.7475 106.684 42.1558C104.983 43.1309 104.054 43.3577 103.237 42.9495C103.033 42.8588 102.829 42.7681 102.761 42.7681C102.443 42.7454 101.786 41.6568 101.808 41.2259C101.808 41.1352 101.763 40.8631 101.672 40.6363C101.582 40.3642 101.536 40.1827 101.582 40.1374C101.627 40.092 101.627 40.024 101.582 39.9333C101.491 39.7518 101.65 39.0488 102.013 38.0282C102.217 37.5293 102.307 37.3025 102.353 37.3932C102.398 37.4386 102.398 37.4159 102.398 37.3025C102.375 37.2118 102.375 37.1438 102.398 37.1665C102.421 37.1891 102.67 36.7809 102.942 36.282C104.303 33.7647 107.002 30.4989 110.381 27.2559C112.785 24.9653 116.232 22.1759 118.296 20.8832C118.704 20.611 118.704 20.5884 118.817 20.1121C119.203 18.3885 119.294 16.5742 119.044 14.6919L118.999 14.3744L118.659 14.964C118.477 15.3042 118.205 15.7351 118.092 15.9392C117.978 16.1433 117.797 16.3928 117.684 16.5289C117.321 16.9144 114.622 20.3842 114.304 20.8605C113.987 21.3594 113.964 21.4501 114.1 21.3594C114.372 21.2007 113.737 22.0171 112.921 22.8109C112.241 23.5139 111.968 23.6727 111.333 23.8087C110.88 23.8768 110.653 23.8314 110.585 23.6273C110.562 23.5593 110.494 23.5366 110.381 23.5366C109.973 23.6046 109.497 22.3573 109.565 21.3367C109.61 20.4523 110.245 18.6607 110.993 17.2773C111.379 16.5289 112.785 14.5785 113.556 13.7167C114.168 13.0364 114.849 12.5147 115.212 12.4694C115.348 12.4467 115.597 12.4014 115.801 12.3787C116.119 12.3333 116.187 12.356 116.595 12.5601C117.275 12.9456 117.593 13.1951 117.752 13.558L117.888 13.8755L118.25 13.4673C118.5 13.1497 118.591 13.0817 118.613 13.1951C118.636 13.3085 118.704 13.2405 118.999 12.9456C119.18 12.7189 119.362 12.5828 119.407 12.6055C119.43 12.6508 119.384 12.7415 119.316 12.8096C119.203 12.923 119.203 12.9683 119.271 12.9683C119.498 12.991 119.747 13.1951 119.747 13.3765C119.725 13.4899 119.77 13.5353 119.861 13.5353C120.019 13.558 120.11 13.8755 120.224 14.8053C120.428 16.3474 120.428 17.7308 120.269 18.8194C120.224 19.1823 120.178 19.4771 120.178 19.4771C120.178 19.4771 120.473 19.341 120.836 19.1823C121.176 19.0008 121.516 18.8648 121.562 18.8875C121.675 18.8875 121.834 18.8421 122.786 18.4112C123.829 17.9803 125.19 17.6855 125.734 17.7762C126.143 17.8442 126.642 18.1164 126.574 18.2298C126.574 18.2525 126.642 18.3432 126.732 18.4112ZM115.552 17.0505C115.915 16.6196 116.255 16.2114 116.345 16.1207C116.708 15.7578 116.731 15.6444 116.663 14.7826C116.618 14.3517 116.55 13.9662 116.527 13.9435C116.414 13.7848 114.667 15.6898 113.601 17.1412C112.672 18.4112 111.492 20.6337 111.22 21.5635C111.152 21.7676 111.152 21.7676 111.311 21.6769C111.402 21.6089 111.764 21.2687 112.105 20.9059C112.422 20.543 112.876 20.0441 113.125 19.8173C113.352 19.5905 113.76 19.1369 114.032 18.7967C114.304 18.4566 114.599 18.0937 114.713 17.9803C114.826 17.8896 115.212 17.4587 115.552 17.0505ZM116.799 17.3226C116.867 17.2546 116.89 17.2092 116.867 17.2092C116.844 17.2092 116.799 17.2546 116.731 17.3226C116.686 17.368 116.663 17.4133 116.686 17.4133C116.708 17.4133 116.754 17.368 116.799 17.3226ZM116.754 16.4835C116.958 16.234 117.049 16.0753 116.98 16.166C116.799 16.2794 116.3 16.9371 116.368 16.9371C116.391 16.9371 116.572 16.733 116.754 16.4835ZM106.367 41.9517C106.367 41.8836 106.367 41.8383 106.344 41.8383C106.322 41.8383 106.299 41.8836 106.276 41.9517C106.253 42.0197 106.253 42.0651 106.299 42.0651C106.322 42.0651 106.367 42.0197 106.367 41.9517ZM106.843 41.7249C106.866 41.6795 106.843 41.6342 106.82 41.6342C106.775 41.6342 106.73 41.6568 106.684 41.7022C106.662 41.7475 106.684 41.7929 106.707 41.7929C106.752 41.7929 106.82 41.7702 106.843 41.7249ZM107.274 41.4754C107.365 41.43 107.387 41.3847 107.365 41.362C107.319 41.362 107.229 41.4074 107.138 41.4754C107.07 41.5208 107.025 41.5888 107.07 41.5888C107.115 41.5888 107.206 41.5434 107.274 41.4754ZM108.793 40.4095C108.862 40.3415 108.748 40.3868 108.544 40.5229C108.34 40.659 108.158 40.795 108.136 40.8177C108.113 40.8177 107.954 40.9311 107.773 41.0445C107.614 41.1352 107.478 41.2486 107.455 41.294C107.455 41.3393 107.614 41.2713 107.818 41.1352C108 40.9992 108.272 40.795 108.431 40.7043C108.567 40.6136 108.725 40.5002 108.793 40.4095ZM109.36 39.9559C109.519 39.7972 109.633 39.6384 109.61 39.6384C109.587 39.6158 109.428 39.7291 109.247 39.9106C109.066 40.092 108.952 40.2281 108.975 40.2508C109.02 40.2508 109.179 40.1147 109.36 39.9559ZM110.222 39.2075C110.358 39.0488 110.404 38.9581 110.313 39.0261C110.086 39.1622 109.701 39.5024 109.701 39.5477C109.701 39.6384 109.95 39.457 110.222 39.2075ZM111.107 38.3231C111.447 37.9602 111.402 37.9375 111.061 38.255C110.744 38.5499 110.721 38.5725 110.812 38.5725C110.835 38.5952 110.993 38.4818 111.107 38.3231ZM111.152 37.4386C111.175 37.4386 111.288 37.3479 111.402 37.2118L111.583 36.985L111.333 37.1891C111.107 37.4159 111.061 37.4386 111.152 37.4386ZM112.127 37.0077C112.127 36.9397 112.105 36.8943 112.105 36.8943C112.082 36.8943 112.037 36.9397 112.014 37.0077C111.991 37.0757 112.014 37.1211 112.037 37.1211C112.082 37.1211 112.105 37.0757 112.127 37.0077ZM112.127 36.7582C112.445 36.3954 112.535 36.214 112.331 36.3727C112.286 36.4181 111.991 36.7582 111.696 37.1211C111.152 37.8015 111.424 37.552 112.127 36.7582ZM113.216 35.6016C113.284 35.5109 113.284 35.4882 113.216 35.5336C113.102 35.6016 113.102 35.4202 113.216 35.2841C113.261 35.2388 113.261 35.2388 113.193 35.2841C113.148 35.3295 112.966 35.5563 112.808 35.7604C112.603 36.0325 112.558 36.1459 112.603 36.1913C112.74 36.2593 112.74 36.2593 112.694 36.1686C112.672 36.1006 112.694 36.0325 112.762 35.9645C112.83 35.8965 112.853 35.8738 112.898 35.9418C112.921 36.0098 112.944 36.0098 112.989 35.9191C113.034 35.8284 113.012 35.8057 112.966 35.8511C112.921 35.8738 112.898 35.8511 112.921 35.7831C112.944 35.7377 112.989 35.6923 113.034 35.6923C113.08 35.715 113.148 35.6697 113.216 35.6016ZM112.921 34.8532C112.876 34.9439 112.898 34.9666 112.966 34.8986C113.012 34.8532 113.034 34.7852 113.034 34.7625C113.012 34.7398 112.966 34.7852 112.921 34.8532ZM114.554 33.2204C114.622 33.175 114.622 33.107 114.599 33.0843C114.577 33.0616 114.486 33.175 114.395 33.3338C114.304 33.5152 114.032 33.9461 113.805 34.3089C113.579 34.6718 113.375 35.012 113.375 35.0347C113.375 35.0573 113.397 35.0347 113.443 34.9893C113.488 34.9213 113.556 34.8759 113.601 34.8759C113.669 34.8759 113.692 34.8306 113.692 34.7398C113.692 34.6718 113.737 34.6264 113.783 34.6264C113.828 34.6491 113.851 34.6038 113.873 34.5357C113.873 34.4904 113.942 34.3543 114.032 34.2636C114.123 34.1502 114.214 34.0141 114.214 33.9007C114.214 33.81 114.282 33.7193 114.35 33.6966C114.395 33.6739 114.463 33.5832 114.463 33.4925C114.463 33.3791 114.509 33.2657 114.554 33.2204ZM113.873 33.3791C113.828 33.4698 113.828 33.4925 113.919 33.4018C113.964 33.3791 113.987 33.3111 113.964 33.2884C113.942 33.2657 113.896 33.2884 113.873 33.3791ZM114.781 32.8575C114.826 32.8575 114.849 32.8122 114.849 32.7895C114.849 32.7668 114.826 32.7668 114.781 32.7441C114.758 32.7441 114.713 32.7895 114.713 32.8348C114.713 32.8802 114.735 32.9029 114.781 32.8575ZM114.985 31.7009C115.03 31.6329 115.075 31.5421 115.075 31.5195C115.075 31.4741 115.053 31.4741 115.007 31.5421C114.962 31.6102 114.917 31.6782 114.917 31.7236C114.917 31.7689 114.939 31.7463 114.985 31.7009ZM116.096 30.3629C116.164 30.2041 116.209 30.068 116.187 30.068C116.164 30.068 115.915 30.567 115.915 30.6577C115.915 30.7484 115.983 30.6123 116.096 30.3629ZM116.482 29.5691C116.572 29.3877 116.618 29.2289 116.618 29.2062C116.572 29.1609 116.323 29.7505 116.323 29.8412C116.323 29.8639 116.391 29.7505 116.482 29.5691ZM117.003 28.3671C117.117 28.1403 117.207 27.9362 117.185 27.8909C117.185 27.8455 117.117 27.9362 117.049 28.1177C116.799 28.73 116.799 28.7754 117.003 28.3671ZM117.366 27.5734C117.434 27.46 117.457 27.3466 117.434 27.3466C117.411 27.3012 117.366 27.392 117.321 27.528C117.207 27.8002 117.253 27.8455 117.366 27.5734ZM117.888 23.2191C118.296 22.1532 118.273 22.1985 118.114 22.2893C118.046 22.3119 117.978 22.38 117.978 22.448C117.956 22.4934 117.684 22.7428 117.366 22.9923C116.89 23.3778 116.754 23.4232 116.708 23.3325C116.663 23.2418 116.64 23.2644 116.663 23.3552C116.686 23.4459 116.64 23.5366 116.504 23.6046C116.391 23.6727 116.277 23.7634 116.232 23.8087C116.187 23.8541 115.665 24.285 115.075 24.7385C114.486 25.2148 113.896 25.6911 113.76 25.8271C113.647 25.9405 112.876 26.6436 112.037 27.3693C110.585 28.662 108.793 30.4763 107.637 31.7689C107.342 32.1091 107.025 32.4493 106.957 32.4947C106.888 32.5627 106.707 32.7895 106.526 33.0163C106.367 33.243 106.004 33.6739 105.755 33.9914C105.505 34.3089 105.233 34.6718 105.12 34.8079C104.507 35.6016 103.351 37.8241 102.988 38.89C102.738 39.6158 102.534 40.7043 102.58 41.1125C102.602 41.5434 102.716 41.6115 103.351 41.6568C103.94 41.6795 104.054 41.7929 103.668 41.9063C103.532 41.929 103.487 41.9743 103.555 41.9743C103.713 41.9743 104.53 41.7475 104.734 41.6115C104.961 41.4527 105.097 41.4981 104.915 41.6795C104.734 41.8836 104.439 42.0424 103.986 42.1784C103.713 42.2465 103.668 42.2692 103.804 42.2918C103.918 42.2918 104.235 42.2465 104.53 42.1558C105.142 41.9743 105.46 41.8383 106.458 41.2713C106.888 41.0218 107.251 40.8177 107.251 40.8177C107.274 40.8177 107.682 40.5456 108.158 40.1827C108.635 39.8425 109.474 39.1168 110.018 38.5952C110.971 37.6427 110.789 37.7788 109.519 38.9581C108.272 40.092 106.276 41.4074 106.48 40.9765C106.503 40.9084 106.548 40.8631 106.594 40.8631C106.684 40.8631 107.66 40.2281 108.317 39.7518C108.907 39.2983 110.698 37.5974 111.243 36.9624C112.059 35.9872 112.649 35.2841 112.354 35.6016C112.173 35.7831 111.832 36.1686 111.606 36.4407C111.061 37.0984 110.222 37.9375 110.132 37.9375C110.086 37.9149 110.109 37.8695 110.154 37.8015C110.222 37.7561 110.245 37.6881 110.222 37.6427C110.2 37.62 109.95 37.8468 109.678 38.119C109.111 38.6859 108.748 38.9581 108.703 38.89C108.68 38.8674 109.134 38.3684 109.723 37.8015C111.039 36.5315 111.47 36.0098 112.377 34.7172C113.488 33.107 114.667 30.9752 115.756 28.5486C116.912 25.9859 117.321 25.0334 117.547 24.285C117.615 24.0355 117.774 23.5593 117.888 23.2191ZM115.915 23.8768C115.847 23.9221 115.824 23.9902 115.847 23.9902C115.869 23.9902 115.915 23.9448 115.983 23.8768C116.028 23.8087 116.051 23.7634 116.051 23.7634C116.028 23.7634 115.96 23.8087 115.915 23.8768ZM118.273 21.4728C118.591 21.2234 118.704 21.0646 118.568 20.9739C118.5 20.9059 117.82 21.3594 117.684 21.5409C117.638 21.6316 117.547 21.6996 117.457 21.6996C117.275 21.6996 115.552 22.9469 114.939 23.5366C114.803 23.6727 114.713 23.7407 114.758 23.6953C114.803 23.6046 114.781 23.6046 114.735 23.6273C114.69 23.6727 114.667 23.718 114.667 23.7407C114.713 23.8314 114.531 23.9902 114.418 23.9448C114.372 23.9448 114.282 23.9902 114.236 24.1035C114.168 24.1716 114.123 24.2396 114.1 24.2169C114.055 24.1489 113.669 24.4664 113.669 24.6025C113.669 24.7385 113.443 24.8973 113.284 24.8973C113.216 24.8973 113.17 24.92 113.17 24.9427C113.238 25.0787 110.041 27.9589 109.95 27.8682C109.927 27.8455 109.927 27.8228 109.95 27.8682C110.018 27.9816 109.837 28.2311 109.746 28.1857C109.655 28.1403 108.793 29.0021 108.385 29.5011C108.295 29.6145 107.932 30.0454 107.546 30.4536C106.231 31.9277 104.802 33.6966 104.847 33.8327C104.87 33.8781 104.802 34.0368 104.689 34.1956C104.575 34.3543 104.485 34.5131 104.485 34.5584C104.485 34.6264 104.507 34.6038 104.87 34.0595C105.142 33.6966 105.528 33.1977 106.548 31.973C106.752 31.7236 107.047 31.4061 107.206 31.2473C107.365 31.0886 107.886 30.5443 108.34 30.0454C109.61 28.662 112.173 26.2353 114.01 24.6705C114.781 24.0355 116.164 22.9696 116.98 22.38C117.502 22.0171 118.069 21.6089 118.273 21.4728ZM121.902 19.1369C121.924 19.0916 121.902 19.0689 121.834 19.0916C121.698 19.1369 121.675 19.205 121.788 19.205C121.811 19.205 121.856 19.1596 121.902 19.1369ZM122.287 18.9555C122.423 18.9101 122.514 18.8421 122.514 18.8194C122.514 18.7741 122.083 18.9555 122.015 19.0235C121.947 19.0916 122.106 19.0462 122.287 18.9555ZM125.508 18.1617C126.029 18.2071 126.279 18.1844 126.233 18.1391C126.097 17.9803 124.986 17.9803 124.396 18.1164C123.784 18.2978 122.809 18.638 122.695 18.7287C122.65 18.7741 122.764 18.7514 122.922 18.706C123.058 18.638 123.535 18.4792 123.966 18.3432C124.646 18.1391 124.782 18.1164 125.508 18.1617ZM131.743 15.8939C131.471 15.8485 131.244 15.8258 131.267 15.8485C131.267 15.8712 131.381 16.1207 131.494 16.4155C131.743 17.0732 131.834 17.6401 131.766 18.4112C131.743 18.9328 131.698 19.1142 131.471 19.6132C131.154 20.3389 130.564 21.1326 129.929 21.6996C129.339 22.2212 128.954 22.4253 128.342 22.5841C128.047 22.6521 127.729 22.7655 127.639 22.7882C127.434 22.8789 127.185 22.8789 126.799 22.7655C126.459 22.6748 125.892 22.1305 125.915 21.9037C125.915 21.8584 125.824 21.7223 125.711 21.5862C125.28 21.0419 125.189 19.341 125.529 18.3658C126.006 17.0278 127.004 15.531 128.137 14.5105L128.568 14.1249L128.41 13.8981C128.319 13.7848 128.274 13.6487 128.296 13.626C128.342 13.5353 128.727 13.6033 128.954 13.7394C129.135 13.8528 129.203 13.8755 129.362 13.8074C129.612 13.7167 129.884 13.7394 130.133 13.8755C130.36 13.9889 130.836 14.5105 130.814 14.6465C130.814 14.8506 132.174 14.9414 133.784 14.8053C134.782 14.7373 135.712 14.6012 136.823 14.3744C136.914 14.3744 137.005 14.3744 137.096 14.3744C137.164 14.3744 137.209 14.3744 137.277 14.3744C137.3 14.3744 137.413 14.3971 137.436 14.3971C137.481 14.3971 137.504 14.3971 137.549 14.4198C137.572 14.4198 137.594 14.4424 137.594 14.4424C137.594 14.4424 137.617 14.4424 137.64 14.4651H137.663C137.685 14.4878 137.685 14.4878 137.708 14.5105C137.64 14.5105 137.594 14.5331 137.549 14.5331C137.322 14.5785 137.141 14.6239 137.164 14.6465C137.186 14.6692 137.413 14.6239 137.753 14.5558C137.753 14.5785 137.776 14.5785 137.776 14.5785C137.776 14.6012 137.799 14.6012 137.799 14.6012C137.799 14.6239 137.821 14.6919 137.844 14.6919C137.844 14.7373 137.867 14.7826 137.867 14.8053C137.844 14.7599 137.867 14.8733 137.867 14.896C137.867 14.9187 137.867 15.0321 137.867 15.0548C137.867 15.1001 137.844 15.1455 137.844 15.1682C137.821 15.1908 137.821 15.1908 137.821 15.1908C137.821 15.2135 137.799 15.2362 137.799 15.2589C137.776 15.2815 137.776 15.2815 137.776 15.3042C137.776 15.3042 137.776 15.3042 137.753 15.3042C137.753 15.3269 137.731 15.3496 137.708 15.3723C137.685 15.3723 137.685 15.3723 137.685 15.3723V15.3949C135.508 15.8712 133.195 16.0526 131.743 15.8939ZM136.597 14.7599C136.551 14.7826 136.642 14.7826 136.778 14.7599C136.914 14.7373 137.05 14.6919 137.073 14.6692C137.141 14.6239 136.665 14.7146 136.597 14.7599ZM129.816 19.9534C130.882 18.7514 131.244 17.0051 130.632 15.9392C130.473 15.6671 130.428 15.6444 130.224 15.6444C130.088 15.6444 129.974 15.599 129.952 15.5764C129.929 15.531 129.861 15.5083 129.793 15.4857C129.657 15.4857 129.544 15.3042 129.612 15.1682C129.612 15.1228 129.612 15.0774 129.566 15.1001C129.476 15.1228 128.523 16.0526 128.523 16.1207C128.5 16.166 128.41 16.3021 128.274 16.4382C127.956 16.733 127.004 18.3658 126.731 19.0462C126.391 19.8853 126.232 20.9739 126.391 21.4728C126.437 21.6542 126.459 21.6542 126.845 21.6542C127.162 21.6542 127.412 21.5862 127.956 21.3594C128.682 21.0419 129.158 20.6791 129.816 19.9534Z" fill="#C88D76"/>
</svg>
